<?xml version="1.0" encoding="UTF-8" standalone="no"?>
<!-- Created with Inkscape (http://www.inkscape.org/) -->

<svg
   xmlns:dc="http://purl.org/dc/elements/1.1/"
   xmlns:cc="http://creativecommons.org/ns#"
   xmlns:rdf="http://www.w3.org/1999/02/22-rdf-syntax-ns#"
   xmlns:svg="http://www.w3.org/2000/svg"
   xmlns="http://www.w3.org/2000/svg"
   xmlns:sodipodi="http://sodipodi.sourceforge.net/DTD/sodipodi-0.dtd"
   xmlns:inkscape="http://www.inkscape.org/namespaces/inkscape"
   width="300"
   height="147.22078"
   id="svg2"
   version="1.1"
   inkscape:version="0.48.5 r10040"
   sodipodi:docname="miros_logo.svg">
  <defs
     id="defs4">
    <filter
       inkscape:label="Colorize"
       inkscape:menu="Color"
       inkscape:menu-tooltip="Blend image or object with a flood color and set lightness and contrast"
       x="0"
       y="0"
       width="1"
       height="1"
       color-interpolation-filters="sRGB"
       id="filter3004">
      <feColorMatrix
         values="1"
         in="SourceGraphic"
         type="saturate"
         result="result2"
         id="feColorMatrix3006" />
      <feFlood
         flood-color="rgb(254,102,0)"
         flood-opacity="1"
         result="result1"
         id="feFlood3008" />
      <feBlend
         in2="result2"
         mode="multiply"
         in="result1"
         result="result3"
         id="feBlend3010" />
      <feComposite
         operator="in"
         k2="1"
         result="result4"
         in2="SourceGraphic"
         id="feComposite3012" />
    </filter>
  </defs>
  <sodipodi:namedview
     id="base"
     pagecolor="#ffffff"
     bordercolor="#666666"
     borderopacity="1.0"
     inkscape:pageopacity="0.0"
     inkscape:pageshadow="2"
     inkscape:zoom="1.4"
     inkscape:cx="301.59108"
     inkscape:cy="54.054848"
     inkscape:document-units="px"
     inkscape:current-layer="layer1"
     showgrid="false"
     inkscape:window-width="1858"
     inkscape:window-height="1057"
     inkscape:window-x="54"
     inkscape:window-y="-8"
     inkscape:window-maximized="1"
     fit-margin-top="0"
     fit-margin-left="0"
     fit-margin-right="0"
     fit-margin-bottom="0"
     showguides="true"
     inkscape:guide-bbox="true" />
  <metadata
     id="metadata7">
    <rdf:RDF>
      <cc:Work
         rdf:about="">
        <dc:format>image/svg+xml</dc:format>
        <dc:type
           rdf:resource="http://purl.org/dc/dcmitype/StillImage" />
        <dc:title></dc:title>
      </cc:Work>
    </rdf:RDF>
  </metadata>
  <g
     inkscape:label="Layer 1"
     inkscape:groupmode="layer"
     id="layer1"
     transform="translate(7.1256596,-654.56574)">
    <path
       style="fill:#000000"
       d="m 91.570437,801.57302 c -0.943176,-0.21174 -1.268531,-0.59071 -1.914856,-2.23045 -0.226802,-0.5754 -0.707474,-1.41341 -1.068166,-1.86224 -0.943709,-1.17432 -1.016173,-2.85034 -0.255761,-5.91544 0.897118,-3.61614 0.59695,-4.48822 -1.988345,-5.77684 -1.635626,-0.81526 -1.792308,-1.02635 -1.797588,-2.42183 -0.0027,-0.7287 -0.01631,-0.74056 -0.97714,-0.85436 -2.428243,-0.28758 -4.774763,-1.79192 -5.795035,-3.71516 -0.56356,-1.06232 -1.149631,-1.21361 -2.030906,-0.52427 -0.612642,0.47922 -1.585868,0.52487 -2.188642,0.10267 -0.240785,-0.16865 -0.592407,-0.74425 -0.78138,-1.27911 -0.188969,-0.53486 -0.480552,-1.36387 -0.647956,-1.84226 -0.344491,-0.98444 -0.664389,-1.07371 -2.070162,-0.57773 -0.794569,0.28034 -0.863415,0.26944 -1.714159,-0.27141 -1.941531,-1.2343 -3.757001,-3.56143 -4.807666,-6.16262 -1.069065,-2.64673 -1.402576,-6.79037 -0.782256,-9.71894 0.166887,-0.78789 0.303435,-1.45559 0.303435,-1.48378 0,-0.19149 -1.182388,0.0174 -2.063039,0.36457 -0.580193,0.22869 -1.514557,0.45444 -2.076359,0.50167 -0.906185,0.0762 -1.152782,0.21113 -2.185163,1.19585 -1.862465,1.77649 -2.606684,2.08336 -5.033951,2.0757 -2.003556,-0.006 -2.099028,-0.0288 -4.541652,-1.07012 -1.372295,-0.58501 -2.854959,-1.12121 -3.294818,-1.19154 -1.147652,-0.18352 -1.937254,0.29412 -2.638176,1.59586 -0.648812,1.20496 -1.096588,1.44721 -4.118762,2.22824 l -1.699963,0.43934 0.138487,1.10841 c 0.333666,2.6706 -1.646708,4.65328 -3.967405,3.97203 -0.645314,-0.18943 -0.69347,-0.16633 -0.94942,0.4555 -0.148294,0.36028 -0.335536,1.16158 -0.416102,1.78067 -0.200338,1.53957 -0.659333,2.20139 -2.530799,3.64914 -2.322667,1.79679 -2.356589,1.869 -2.219494,4.72424 0.06262,1.30414 0.348775,3.52236 0.635897,4.92939 0.287129,1.40702 0.524204,2.8403 0.526834,3.18506 0.0031,0.416 0.194103,0.80343 0.567595,1.15178 0.842868,0.78614 1.348924,0.98426 2.514069,0.98426 0.92944,0 1.141309,-0.0841 1.753049,-0.69584 0.382708,-0.38271 0.695834,-0.84319 0.695834,-1.02329 0,-0.68375 1.071599,-0.20015 1.532818,0.69174 0.824639,1.59468 0.06445,4.03101 -1.532818,4.9125 -0.838664,0.46284 -1.189006,0.51508 -3.920633,0.58465 -2.992011,0.0762 -3.000507,0.0751 -3.326942,-0.42308 -0.179999,-0.27471 -0.521455,-1.27457 -0.758789,-2.22191 -0.237337,-0.94734 -0.498597,-1.84631 -0.580575,-1.9977 -0.08364,-0.15447 -0.570486,-0.3018 -1.109342,-0.33571 -1.91479,-0.12053 -2.498609,-0.77041 -5.237209,-5.82981 -1.918751,-3.54478 -2.270808,-4.56306 -2.407826,-6.96431 -0.06102,-1.06934 -0.205599,-2.00515 -0.321286,-2.07959 -0.115692,-0.0744 -0.598936,-0.1936 -1.073878,-0.26482 -0.983662,-0.14751 -1.320941,-0.466 -1.798524,-1.69833 -0.8591,-2.21676 -0.555462,-5.38498 0.686992,-7.16826 0.748187,-1.07387 0.757188,-1.32491 0.07035,-1.96178 -1.145624,-1.06228 -0.780161,-3.90057 0.737701,-5.72919 0.718562,-0.86568 0.825414,-1.12531 0.825414,-2.00558 0,-0.55614 0.138048,-1.27812 0.306771,-1.6044 0.418551,-0.80939 1.498248,-1.59409 2.469268,-1.79462 0.773548,-0.15975 0.815587,-0.21064 1.060661,-1.28381 0.763717,-3.34431 1.493328,-4.52853 2.959521,-4.8036 0.651361,-0.12219 0.742907,-0.21949 0.852733,-0.90631 0.156937,-0.98143 0.706564,-1.67467 1.866815,-2.35463 0.703907,-0.41252 0.921781,-0.66149 0.921781,-1.05338 0,-0.79154 0.553487,-1.70564 1.867664,-3.08453 0.661214,-0.69376 1.201832,-1.38449 1.201373,-1.53493 -0.0015,-0.52077 -1.749338,-2.40321 -4.173805,-4.49545 -1.339275,-1.15575 -2.835838,-2.6458 -3.325693,-3.31122 -0.972397,-1.32091 -1.10144,-2.00546 -0.571296,-3.03065 0.559638,-1.08222 0.383279,-1.24009 -1.444963,-1.2935 -3.627697,-0.10599 -5.12166,-1.68494 -7.471736,-7.89675 -1.2875776,-3.40337 -1.8901966,-4.55478 -3.0110426,-5.75305 -0.699479,-0.7478 -1.079454,-0.99611 -1.524287,-0.99611 -0.908349,0 -1.886565,-0.48894 -3.676204,-1.83747 -0.899532,-0.67782 -1.71487301,-1.2324 -1.81187201,-1.2324 -0.097,0 -0.456584,0.23579 -0.799077,0.52398 -0.96087599,0.80853 -0.99474599,1.55 -0.168538,3.68933 0.38795,1.00453 0.768257,2.11278 0.845129,2.46278 0.128491,0.58501 0.09066,0.64618 -0.468926,0.75809 -0.94674099,0.18935 -2.79673099,-0.19436 -3.94179099,-0.81758 -2.57478,-1.40137 -3.72602,-4.35527 -2.58176,-6.62439 0.41816,-0.82924 0.65292,-1.00721 2.55443,-1.93646 1.15167,-0.56281 2.29313,-1.22332 2.53657,-1.4678 0.43606,-0.43793 0.43735,-0.45916 0.0869,-1.43261 -0.61361,-1.70437 -0.61643,-2.18656 -0.0187,-3.20646 0.65760999,-1.12213 1.73650099,-2.12244 3.564794,-3.30516 1.116727,-0.72241 1.525552,-1.14664 2.203481,-2.28652 1.426305,-2.39821 3.580871,-3.75311 5.9682076,-3.75311 0.600486,0 1.447909,0.24322 2.49567,0.7163 1.89786,0.85691 2.387757,0.87836 4.222282,0.18489 1.239249,-0.46844 1.636161,-0.52176 3.350058,-0.45005 2.594698,0.10858 4.079256,0.7564 5.610204,2.44815 0.791669,0.87483 1.223213,1.19386 1.614861,1.19386 0.365532,0 0.715145,0.22642 1.106018,0.7163 0.314344,0.39396 0.71799,0.7163 0.896998,0.7163 0.776336,10e-6 2.844095,1.29277 4.010247,2.5072 l 1.229268,1.28016 2.715773,0.78414 c 1.493675,0.43128 2.783498,0.7073 2.86627,0.61339 0.08278,-0.0939 0.402366,-0.81544 0.710193,-1.60337 0.633355,-1.62116 1.352969,-2.67344 1.960023,-2.86611 0.56218,-0.17843 0.328074,-0.47117 -0.74443,-0.9309 -1.061225,-0.4549 -1.304983,-0.94699 -1.304983,-2.63447 0,-0.9361 0.110794,-1.34933 0.525701,-1.96073 0.627142,-0.92415 0.512164,-1.11044 -1.037345,-1.68078 -1.180711,-0.43458 -1.358407,-0.78692 -1.72456,-3.41948 -0.532782,-3.83055 0.118534,-7.65431 1.667109,-9.78736 0.354676,-0.48854 0.03853,-0.94855 -1.017202,-1.48009 -1.608163,-0.80967 -1.674124,-0.93673 -1.542336,-2.97088 0.14148,-2.18376 -0.03856,-2.97945 -1.405364,-6.21144 -1.492872,-3.53007 -1.54362,-5.48463 -0.184673,-7.11243 0.555593,-0.66551 0.571003,-0.66981 2.536688,-0.70636 1.877487,-0.0349 1.99941,-0.0644 2.406173,-0.58149 0.770462,-0.97948 1.949981,-1.44471 3.66431,-1.44528 1.764787,-7.7e-4 3.146218,0.51173 4.243851,1.57387 0.588547,0.56952 0.782348,0.63634 1.739589,0.59979 1.685559,-0.0644 2.444205,0.48804 4.147123,3.01972 1.38585,2.06031 1.465761,2.13808 2.448547,2.38288 1.3341,0.33232 2.133687,1.21724 2.865954,3.17182 0.313693,0.83733 1.102597,2.81176 1.753118,4.38762 0.650517,1.57587 1.292244,3.23726 1.426054,3.69199 0.231873,0.78795 0.304279,0.84423 1.542251,1.19877 0.714431,0.2046 1.427466,0.52328 1.58453,0.70816 0.157061,0.18489 0.391841,1.16963 0.521733,2.18833 0.263477,2.06635 0.792679,3.76836 2.08263,6.69813 l 0.871383,1.97911 0.547533,-0.38988 c 0.301143,-0.21443 0.956724,-0.81399 1.456844,-1.33236 0.500125,-0.51836 1.400332,-1.28201 2.000471,-1.69699 1.021541,-0.70636 1.196792,-0.96377 2.746926,-4.03467 1.430185,-2.83327 1.839191,-3.46151 3.002004,-4.61115 1.233741,-1.21977 1.526621,-1.39543 3.505151,-2.10226 2.431406,-0.86863 3.420648,-1.5666 3.980749,-2.80868 0.320824,-0.71147 0.610521,-0.96646 1.74989,-1.54023 3.547358,-1.78642 6.07071,-2.01095 7.504635,-0.66777 0.249795,0.23399 0.407692,0.50064 0.350885,0.59255 -0.207997,0.33655 -0.111862,3.23029 0.134647,4.05307 0.13959,0.4659 0.541983,1.18048 0.894214,1.58795 0.608373,0.70378 0.675789,0.72983 1.347493,0.52064 1.922145,-0.59863 4.700645,-0.46242 7.101595,0.34814 l 1.17176,0.39558 1.66105,-0.90545 c 2.18133,-1.18903 3.20743,-1.23753 4.33427,-0.20486 0.75888,0.69546 0.76446,0.71235 0.76446,2.31301 0,1.46206 -0.0747,1.76415 -0.80145,3.23909 -1.40922,2.86019 -4.00891,5.01246 -6.03988,5.00037 -0.71791,-0.004 -0.9124,-0.16458 -1.42398,-1.17365 -0.24253,-0.47839 -0.53983,-0.8698 -0.66067,-0.8698 -0.27168,0 -0.15064,1.02481 0.64555,5.46535 0.32705,1.82404 0.65192,4.03434 0.72191,4.91179 0.16606,2.08154 -0.29304,4.33897 -1.12242,5.51907 -0.58768,0.83621 -0.59769,0.89399 -0.48425,2.79551 0.18029,3.02179 -0.47852,4.83239 -1.98543,5.45657 -0.82104,0.34009 -1.06784,0.94385 -2.0558,5.02931 -0.43736,1.80861 -0.98004,3.71961 -1.205966,4.24665 -0.505694,1.17974 -0.457634,1.1876 1.979806,0.32376 2.48063,-0.87915 3.598,-0.86537 5.57654,0.0688 2.05464,0.97008 2.56681,1.05318 4.18208,0.67858 3.06048,-0.70978 4.27978,-0.25602 7.34612,2.73378 l 2.22296,2.16748 1.77121,0 c 2.02283,0 3.18039,0.42854 5.11424,1.89334 1.02194,0.77407 1.1397,0.81375 1.84069,0.6202 0.41189,-0.11373 1.4437,-0.16657 2.29291,-0.1174 2.61793,0.15155 4.56597,1.5439 5.21805,3.72958 0.16561,0.5551 0.30353,1.33791 0.30649,1.73959 0.004,0.4507 0.30383,1.27883 0.78486,2.16292 0.42871,0.78794 1.20935,2.22476 1.73476,3.19294 1.16219,2.1416 1.66111,3.5471 1.96339,5.5311 0.30747,2.01799 0.54463,2.71784 1.40954,4.15938 2.1306,3.5511 1.37592,9.98464 -1.43635,12.24464 -0.64627,0.51935 -0.77774,0.75225 -0.77774,1.37767 0,0.91271 -0.38806,1.30579 -1.83,1.85368 -1.20588,0.45821 -3.56388,0.56004 -4.83271,0.20872 -1.19887,-0.33195 -2.32729,-1.04666 -3.02987,-1.91905 -0.51901,-0.64445 -0.6385,-0.9995 -0.709,-2.10664 -0.10346,-1.62472 0.3577,-3.04877 1.04716,-3.23362 0.7271,-0.19495 2.38929,-0.14475 2.81882,0.0851 0.60706,0.32489 0.47243,0.80032 -0.32044,1.13161 -0.87871,0.36715 -0.90572,0.78874 -0.10679,1.66676 l 0.59752,0.65666 1.18724,-0.30359 c 0.65298,-0.16697 1.55562,-0.55837 2.00587,-0.86976 0.76522,-0.52924 0.82278,-0.63902 0.88224,-1.68272 0.0495,-0.86905 -0.0866,-1.5193 -0.61397,-2.93362 -0.37267,-0.99938 -0.81573,-1.86299 -0.98457,-1.91912 -1.22508,-0.40728 -2.68053,-1.21379 -3.34338,-1.85269 -0.75839,-0.73098 -1.76977,-2.41074 -1.7762,-2.95004 -10e-4,-0.14444 -0.0883,-0.3973 -0.19244,-0.56191 -0.15792,-0.24968 -0.33554,-0.19485 -1.07132,0.33064 -0.48511,0.34647 -1.07707,0.69071 -1.31546,0.76499 -0.72318,0.22531 -1.48233,-0.22408 -2.11567,-1.25241 -0.89655,-1.45569 -1.23481,-1.8975 -1.45276,-1.8975 -0.10813,0 -0.82737,0.64468 -1.59829,1.43261 -1.64492,1.6812 -2.02294,1.76119 -4.26991,0.90352 -2.51997,-0.96187 -4.74964,-0.39404 -8.58103,2.18535 -2.15786,1.45273 -3.64069,2.99595 -4.95208,5.15375 -1.14229,1.87955 -2.48507,3.14639 -3.56361,3.3621 -0.40742,0.0815 -0.54059,0.20877 -0.46615,0.44558 0.53974,1.71702 0.6697,4.53761 0.2463,5.34562 -0.24549,0.46849 -0.21165,0.57538 0.40132,1.26751 1.42708,1.61137 1.38027,3.82181 -0.14618,6.90232 l -0.85839,1.73231 1.38792,2.6895 1.38792,2.6895 -0.13128,1.62019 c -0.0722,0.89111 -0.1871,2.23161 -0.25532,2.97889 -0.0932,1.02137 -0.014,1.8276 0.31939,3.24744 0.52952,2.25548 0.44509,3.41773 -0.4224,5.81425 -1.31547,3.63415 -4.45615,7.03967 -7.391297,8.01456 -0.536754,0.17828 -0.975914,0.36768 -0.975914,0.42089 0,0.0532 0.230241,0.43557 0.511644,0.84969 1.397215,2.05619 -0.159564,3.76413 -3.376854,3.70475 -0.61909,-0.0114 -1.508938,-0.10683 -1.977439,-0.21201 z m 2.863551,-0.92393 c 0.07464,-0.0746 -0.137466,-0.30183 -0.471343,-0.50487 -0.678743,-0.41277 -1.847375,-1.91931 -1.847375,-2.38154 0,-0.20069 -0.137419,-0.26421 -0.41471,-0.1917 -0.26534,0.0694 -0.642855,-0.0835 -1.048163,-0.42457 -0.605469,-0.50947 -0.628677,-0.58577 -0.525218,-1.72675 0.05953,-0.65654 0.309018,-1.58292 0.554408,-2.05861 0.332023,-0.64363 0.488038,-1.44083 0.609839,-3.11613 0.09002,-1.23818 0.26033,-2.48148 0.378459,-2.76288 0.393893,-0.93832 0.275424,1.97344 -0.182236,4.47902 -0.232629,1.27359 -0.373349,2.36522 -0.312713,2.42586 0.174989,0.17499 0.544517,-0.94157 0.86281,-2.60707 0.484741,-2.53648 0.893416,-3.92379 1.341045,-4.55243 0.38765,-0.5444 0.412466,-0.77524 0.287866,-2.67763 -0.353604,-5.39896 -1.510454,-8.66594 -5.112177,-14.43695 -0.817053,-1.30916 -1.860645,-3.02551 -2.319092,-3.8141 -0.833698,-1.4341 -1.593485,-2.31489 -1.810048,-2.09833 -0.06329,0.0633 0.366165,0.88296 0.954349,1.82148 1.170834,1.86821 2.025249,3.58471 2.023031,4.06423 -7.71e-4,0.16884 -0.403762,-0.44232 -0.895513,-1.35815 -1.024931,-1.90879 -1.83461,-3.13027 -4.729669,-7.13515 -3.089693,-4.27414 -4.196925,-5.97609 -4.536831,-6.97365 -0.532292,-1.56219 -0.202236,-1.37209 0.830042,0.47808 1.175134,2.10622 3.046758,4.93874 4.494872,6.80256 0.568466,0.73165 1.061722,1.36864 1.096125,1.41554 0.0344,0.0469 0.118214,0.0296 0.186247,-0.0384 0.06804,-0.068 -0.254302,-0.80846 -0.716301,-1.6454 -0.461999,-0.83694 -0.839999,-1.65548 -0.839999,-1.81899 0,-0.1635 -0.23966,-0.52055 -0.532574,-0.79343 -1.044672,-0.97324 -2.966076,-3.76705 -4.02224,-5.84853 l -1.073276,-2.1152 -0.690752,0.12869 c -0.689109,0.12839 -0.690478,0.12705 -0.577409,-0.56403 0.06234,-0.381 0.179301,-0.95962 0.259917,-1.28583 l 0.146583,-0.59311 -1.029161,0.13653 -1.029158,0.13652 -0.331845,-0.82936 c -0.391093,-0.97744 -0.883771,-1.24971 -1.280244,-0.7075 -0.520398,0.71169 -0.337286,1.4714 0.565917,2.34793 0.463819,0.45012 0.938575,0.8184 1.055008,0.8184 0.116435,0 0.04837,0.18048 -0.151261,0.40107 -0.246971,0.2729 -0.321263,0.56722 -0.232478,0.92096 0.297499,1.18535 -1.217594,0.15513 -1.551769,-1.05515 -0.19777,-0.71626 -1.534342,-2.31442 -1.934146,-2.31269 -0.09766,3.9e-4 -0.354865,0.43788 -0.571555,0.97213 -0.687266,1.69442 -1.94464,3.47742 -3.40722,4.83154 -0.814526,0.75413 -1.41757,1.48118 -1.41757,1.70908 0,0.21814 -0.295042,1.3567 -0.65565,2.53013 -1.346159,4.38044 -0.614242,8.15467 2.401776,12.3851 1.731506,2.4287 2.662565,2.91514 5.101367,2.66528 1.540196,-0.1578 1.663172,-0.0556 1.970251,1.63691 0.380133,2.09521 1.036292,2.57734 2.336107,1.71651 1.133434,-0.75065 2.355536,-0.43939 2.631848,0.67029 0.340368,1.36695 3.933842,4.11546 5.090206,3.89331 0.9706,-0.18647 1.556517,0.0944 1.996707,0.95728 0.226493,0.44396 0.411802,1.07402 0.411802,1.40012 0,0.63061 0.03606,0.64933 3.52828,1.83218 1.196029,0.40511 1.27904,0.70822 1.126199,4.11234 -0.08054,1.79375 -0.240323,2.79616 -0.647436,4.06174 -0.297275,0.92414 -0.63142,1.73645 -0.742545,1.80513 -0.121025,0.0748 -0.04907,0.34478 0.179428,0.67331 0.209806,0.30164 0.686514,1.12728 1.05935,1.83476 0.955124,1.81239 1.791687,2.49985 3.042077,2.49985 0.540132,0 1.043126,-0.0611 1.117761,-0.13571 z m 1.979098,-1.16643 c 0,-0.15336 -0.280762,-0.63213 -0.623911,-1.06393 -0.442763,-0.55715 -0.606167,-0.96203 -0.562808,-1.39452 0.05648,-0.56336 0.169798,-0.64252 1.498969,-1.04722 2.399925,-0.7307 3.408304,-1.3993 4.589154,-3.0428 1.32755,-1.84768 2.36787,-3.9512 2.79449,-5.65046 0.39089,-1.55693 0.30846,-4.13627 -0.17535,-5.48682 -0.28854,-0.80547 -0.28291,-0.99413 0.0702,-2.35356 0.71853,-2.76619 0.48977,-4.32531 -0.92321,-6.29207 -1.69751,-2.36281 -1.75645,-3.20969 -0.42547,-6.11332 0.60863,-1.32779 0.92096,-2.28993 0.92096,-2.83708 0,-0.66329 -0.18313,-1.07152 -0.92096,-2.05306 -0.50653,-0.67383 -0.92096,-1.37735 -0.92096,-1.56337 0,-0.18602 0.18419,-0.69926 0.40931,-1.14054 0.48753,-0.95562 0.52571,-2.19048 0.0993,-3.21104 -0.17051,-0.4081 -0.81782,-1.40497 -1.43846,-2.21527 -1.320379,-1.72388 -1.526035,-2.31887 -1.526035,-4.41504 0,-1.80528 -0.344873,-2.94505 -1.834995,-6.06449 -0.769051,-1.60993 -1.32474,-2.44713 -2.30116,-3.46691 -1.603697,-1.6749 -3.628799,-3.142 -4.48697,-3.2506 -0.358544,-0.0454 -1.105929,-0.23331 -1.660858,-0.41763 -1.364258,-0.45313 -1.538935,-0.25081 -1.109574,1.28518 0.812009,2.90486 0.615057,5.86538 -0.471069,7.08097 -0.515609,0.57706 -0.624401,0.61691 -1.096766,0.40168 -0.288409,-0.1314 -0.681014,-0.47798 -0.872459,-0.77016 -0.299331,-0.45683 -0.315652,-0.68027 -0.11654,-1.59541 0.212308,-0.97583 0.08344,-2.41289 -0.245903,-2.74224 -0.263998,-0.26399 -1.150021,0.2079 -2.461764,1.31114 -0.775283,0.65205 -1.621557,1.35055 -1.88061,1.55221 -0.259054,0.20166 -1.163954,0.48715 -2.010895,0.63443 -1.653882,0.2876 -2.167462,0.56552 -2.167462,1.17287 0,0.54802 0.664728,0.48734 1.395283,-0.12738 0.63388,-0.53338 1.060615,-0.65689 1.060615,-0.30699 0,0.11256 0.138141,0.20466 0.306987,0.20466 0.168842,0 0.306986,0.0822 0.306986,0.18276 0,0.10052 -0.138144,0.23577 -0.306986,0.30056 -0.192159,0.0737 -0.306987,0.38638 -0.306987,0.83581 0,0.53938 -0.126856,0.80113 -0.509889,1.0521 -0.280874,0.18403 -0.447016,0.43582 -0.369913,0.56058 0.07699,0.12457 0.19251,0.55194 0.256717,0.94973 0.107099,0.66353 0.184121,0.73197 0.932721,0.82875 0.799984,0.10342 0.806953,0.11141 0.355501,0.40738 -0.253265,0.16604 -0.460479,0.50518 -0.460479,0.75366 0,0.4135 0.05221,0.43356 0.616533,0.23684 0.653791,-0.22791 1.225385,-0.12072 1.225385,0.2298 0,0.11609 -0.18708,0.21108 -0.415737,0.21108 -0.772267,0 -0.734064,0.63524 0.07927,1.31807 0.571979,0.48021 0.699229,0.6932 0.520761,0.87167 -0.129903,0.1299 -0.182317,0.45082 -0.116471,0.71316 0.151484,0.60356 4.272259,7.16994 6.23094,9.92889 0.815002,1.148 1.899438,2.95712 2.409856,4.02028 0.523422,1.09025 1.377219,2.44634 1.958319,3.11039 2.047389,2.33967 3.461388,6.98406 3.773214,12.39342 0.208865,3.62324 -0.123887,5.8362 -1.361145,9.05235 -1.833114,4.76501 -1.607195,6.14955 1.144717,7.01539 1.066335,0.3355 1.125621,0.33582 1.125621,0.006 z m -3.283503,-6.1157 c 1.031209,-3.137 1.454736,-5.37561 1.577994,-8.34082 0.216859,-5.21685 -1.082651,-9.75025 -3.86176,-13.47191 -0.447718,-0.59956 -0.849181,-1.05496 -0.892143,-1.012 -0.04297,0.043 0.279821,0.76375 0.7173,1.60176 2.715569,5.20176 3.963082,10.28858 3.499787,14.27065 -0.123713,1.06335 -0.589784,2.8565 -1.250062,4.80946 -0.700262,2.07122 -1.080865,3.55943 -1.136607,4.44425 l -0.08381,1.33028 0.403329,-0.86879 c 0.221831,-0.47784 0.683517,-1.72113 1.025968,-2.76288 z m -62.926904,-0.87847 c 2.497707,-0.65057 3.459545,-1.86866 2.733618,-3.46189 -0.286053,-0.62782 -0.508405,-0.66347 -0.684161,-0.10971 -0.240227,0.75687 -1.238281,1.0811 -2.952255,0.95907 -0.852228,-0.0607 -1.736566,-0.16912 -1.965191,-0.24099 -0.366045,-0.11506 -0.443079,-4e-5 -0.645137,0.96327 -0.126197,0.60166 -0.181673,1.3439 -0.123266,1.64942 0.100636,0.52645 0.166867,0.55548 1.267278,0.55548 0.6386,0 1.704699,-0.14159 2.369114,-0.31465 z m -4.684566,-4.55001 c 0.198398,-1.32303 -0.0248,-3.31063 -0.648785,-5.77755 -0.336635,-1.33087 -0.547865,-2.73321 -0.55488,-3.68384 -0.01654,-2.24363 0.418093,-3.07378 2.54073,-4.85263 2.480912,-2.0791 2.492686,-2.09636 2.665427,-3.90855 0.134156,-1.40744 0.216632,-1.63361 0.779232,-2.13685 0.728634,-0.65176 0.91709,-0.67547 1.947393,-0.24498 0.691465,0.28891 0.806285,0.28794 1.262075,-0.0107 0.61712,-0.40436 0.782256,-0.82339 1.079524,-2.73932 0.383588,-2.4723 0.797612,-2.94938 2.398995,-2.76436 1.524773,0.17616 2.327233,-0.27691 3.684599,-2.08033 1.802053,-2.39424 2.883459,-2.54989 6.424453,-0.92462 1.248878,0.57321 2.656294,1.13121 3.127587,1.23999 2.065719,0.47681 4.248796,0.003 4.950064,-1.07365 0.680432,-1.04496 1.307613,-1.35036 3.479182,-1.69416 2.37087,-0.37535 3.45499,-0.90651 6.328024,-3.10039 1.794063,-1.36997 1.846137,-1.43461 3.018714,-3.74758 0.65624,-1.29446 1.65033,-2.93006 2.209089,-3.63467 1.072131,-1.35197 1.53762,-2.55629 1.321258,-3.41835 -0.111893,-0.44582 -0.244214,-0.51932 -0.934939,-0.51932 -1.244089,0 -2.34259,0.69703 -4.676792,2.96754 -1.181898,1.14965 -2.540313,2.28953 -3.018702,2.53306 -0.820948,0.41793 -0.869795,0.4925 -0.869795,1.32788 0,0.62607 -0.120153,0.99382 -0.410572,1.25665 -0.225815,0.20435 -0.436866,0.33375 -0.469002,0.28754 -0.03213,-0.0462 -0.284839,-0.42875 -0.561555,-0.85009 -0.572207,-0.87126 -0.64793,-0.88695 -2.16005,-0.44736 -1.191906,0.3465 -1.379097,0.60806 -0.637061,0.89018 0.257889,0.0981 0.584489,0.31756 0.725777,0.48781 0.212505,0.25605 0.166856,0.39955 -0.264233,0.83064 -0.3777,0.3777 -0.52112,0.73772 -0.52112,1.30813 0,0.85611 -0.283835,1.27818 -0.859563,1.27818 -0.442361,0 -0.442851,-0.0114 -0.0614,-1.43261 0.304522,-1.13451 0.402516,-2.4968 0.194572,-2.70475 -0.06183,-0.0618 -0.480529,-0.0297 -0.930442,0.0714 -0.449916,0.10108 -2.726571,0.31366 -5.059242,0.47239 -2.478937,0.16869 -4.579689,0.41234 -5.055802,0.58641 -0.448019,0.1638 -1.115717,0.41054 -1.483771,0.54831 -0.494579,0.18513 -1.108694,0.1994 -2.353566,0.0547 -1.012134,-0.11764 -2.296975,-0.12416 -3.21931,-0.0163 -3.625082,0.42378 -5.865181,1.51856 -8.498907,4.15356 -1.6507,1.65149 -1.992815,2.13186 -3.211274,4.50897 -0.750057,1.46331 -1.925947,3.53543 -2.613085,4.60472 -2.256763,3.51188 -2.726957,4.92984 -2.968707,8.95271 -0.07606,1.26568 -0.31367,3.01551 -0.528019,3.8885 -0.501343,2.04184 -0.495249,3.2455 0.02422,4.78755 0.482531,1.43238 0.705052,1.81237 2.183004,3.72783 0.595129,0.7713 1.082053,1.55872 1.082053,1.74982 0,0.19111 0.113887,0.46135 0.253088,0.60055 0.357988,0.35799 0.716637,-0.18593 0.891506,-1.35204 z m -3.61976,-1.22391 c -0.254082,-0.42211 -0.631488,-1.01404 -0.838676,-1.31541 -1.327624,-1.93114 -1.494511,-3.69829 -0.659861,-6.98731 0.453106,-1.78553 0.509106,-2.33308 0.391359,-3.82676 -0.275128,-3.49016 0.817712,-6.23737 5.352299,-13.45474 2.462531,-3.91943 2.717227,-4.54595 1.205585,-2.96555 -2.038523,2.13123 -4.541509,6.55783 -5.740492,10.1522 -0.609217,1.82635 -0.839116,2.82907 -1.461368,6.37392 l -0.143702,0.81863 -0.190099,-1.16542 c -0.27141,-1.66392 0.177072,-3.59716 1.657684,-7.14572 0.675843,-1.61977 1.337868,-3.35947 1.471172,-3.866 0.18106,-0.68799 0.93153,-1.77519 2.966686,-4.29782 3.743511,-4.64018 5.283313,-6.05986 8.124416,-7.49061 2.221703,-1.11883 4.164515,-1.47536 9.112335,-1.67223 2.389088,-0.0951 4.401147,-0.23018 4.471247,-0.30028 0.0701,-0.0701 -0.03344,-0.39986 -0.230118,-0.73279 -0.46046,-0.77949 -0.274634,-1.26492 0.484209,-1.26492 0.656213,0 1.069947,0.39096 1.461873,1.38143 0.257257,0.65014 0.29168,0.66514 1.526316,0.66514 1.240768,0 1.266592,-0.0115 1.458939,-0.64847 0.107701,-0.35666 0.446423,-0.83314 0.752715,-1.05884 0.468763,-0.34541 0.639707,-0.37262 1.080194,-0.17192 0.707775,0.32248 0.844102,0.7843 0.383145,1.29789 l -0.382975,0.42669 0.920963,-0.15153 c 1.208026,-0.19877 1.969124,-0.59209 2.967538,-1.53356 0.661076,-0.62338 1.028752,-0.79814 1.910378,-0.90805 1.62549,-0.20264 3.283402,-0.89795 4.216521,-1.76835 0.455959,-0.42532 0.775402,-0.82692 0.709872,-0.89244 -0.06553,-0.0655 -0.571504,-0.035 -1.12439,0.0679 -0.585118,0.10885 -1.689527,0.11387 -2.642515,0.012 -2.233007,-0.23866 -4.26684,-0.23761 -4.898464,0.003 -0.565095,0.21485 -0.681103,0.0475 -0.269146,-0.38837 0.21087,-0.22309 0.177276,-0.23028 -0.191202,-0.0409 -0.245865,0.12634 -0.939115,0.22971 -1.540562,0.22971 -0.658504,0 -1.274486,0.12674 -1.548387,0.31859 -0.425863,0.29828 -0.454853,0.29176 -0.454853,-0.10233 0,-0.52459 -0.306276,-0.53262 -3.590014,-0.0941 -4.164084,0.55613 -5.526459,0.30768 -10.883259,-1.98471 -1.825682,-0.78129 -3.966915,-1.56674 -4.758295,-1.74545 -0.846331,-0.19113 -1.438877,-0.43085 -1.438877,-0.58212 0,-0.88818 -1.910464,-2.1543 -3.25063,-2.1543 -1.044097,0 -1.74191,0.67644 -2.906188,2.81718 -0.945903,1.73922 -1.691132,2.65794 -2.370365,2.9222 -0.327136,0.12727 -0.50985,0.47024 -0.697705,1.30968 -0.214684,0.9593 -0.32515,1.13725 -0.705985,1.13725 -0.58658,0 -1.452645,0.68944 -1.863067,1.4831 -0.178707,0.34558 -0.502631,1.26961 -0.71983,2.0534 -0.217195,0.78379 -0.531181,1.68859 -0.69774,2.01069 -0.360989,0.69807 -1.262021,1.20652 -2.13811,1.20652 -0.529183,0 -0.683239,0.11646 -0.927561,0.7012 -0.161137,0.38566 -0.354703,1.23755 -0.430144,1.89309 -0.113567,0.98683 -0.291109,1.38884 -1.031992,2.33678 -1.522247,1.94765 -1.685424,3.28387 -0.553953,4.53627 0.656683,0.72687 0.728777,0.91381 0.640956,1.66206 -0.05476,0.46656 -0.446981,1.4234 -0.878244,2.14249 -0.977935,1.63061 -1.130915,2.91575 -0.579137,4.86511 0.210925,0.74518 0.475597,1.38526 0.588161,1.42241 0.11256,0.0371 0.600263,0.16886 1.083789,0.2927 1.330282,0.34071 1.589798,0.9237 1.755397,3.94339 0.151144,2.75618 0.02333,2.39435 2.366353,6.69852 1.37147,2.5194 2.205171,3.56811 3.185432,4.00694 0.931595,0.41704 0.993955,0.35668 0.492372,-0.47659 z m 66.306491,-19.67324 c -0.19871,-0.57002 -1.20602,-1.70414 -1.20602,-1.35785 0,0.30401 1.034486,1.94674 1.225924,1.94674 0.106131,0 0.09762,-0.25176 -0.0199,-0.58889 z m -2.843285,-4.48844 c 0,-0.3731 -0.562222,-0.89732 -0.888915,-0.82883 -0.322389,0.0676 -0.32446,0.11001 -0.02603,0.5339 0.311764,0.44283 0.91495,0.63727 0.91495,0.29493 z m -1.436011,-2.19699 c -0.120736,-0.31755 -0.732434,-1.30936 -1.359329,-2.204 -0.626896,-0.89465 -1.318713,-2.03107 -1.537373,-2.52539 -0.218664,-0.49433 -1.036917,-1.53811 -1.818339,-2.31954 l -1.420767,-1.42077 0.53658,1.06714 c 1.121976,2.23137 5.463949,8.33474 5.735906,8.06278 0.04556,-0.0456 -0.01593,-0.34266 -0.136678,-0.66022 z m 55.564462,-1.6367 c 0.65516,-0.32225 0.85015,-0.55262 0.99382,-1.17414 0.20462,-0.88521 0.054,-1.94741 -0.35551,-2.50748 -0.26859,-0.36732 -0.31543,-0.35404 -1.06145,0.30097 -1.29579,1.13772 -2.41496,1.54059 -4.28944,1.54408 -1.22312,0.002 -1.78587,-0.0884 -2.1894,-0.35282 -0.61516,-0.40306 -0.9047,-0.1775 -0.57146,0.44517 0.12177,0.22751 0.52918,0.46337 0.93043,0.53865 0.72174,0.1354 0.92713,0.38535 0.45799,0.55737 -0.36709,0.1346 0.0982,0.58917 0.92998,0.90851 1.01395,0.3893 4.15702,0.23058 5.15504,-0.26031 z M 29.489965,756.17868 c 0,-0.39339 2.603236,-2.3062 4.195487,-3.08277 2.509129,-1.22375 4.568828,-1.6448 7.90616,-1.61622 2.396045,0.0205 2.871303,-0.0296 3.367918,-0.35493 0.483136,-0.31652 0.990148,-0.37881 3.083607,-0.37881 1.731255,0 2.584559,-0.079 2.761585,-0.25582 0.320511,-0.32006 -0.640668,-0.32797 -6.1343,-0.0505 -7.524196,0.38003 -11.236473,1.31654 -13.56786,3.42281 -0.942297,0.85131 -2.150087,2.51159 -1.827085,2.51159 0.117967,0 0.214488,-0.0879 0.214488,-0.19536 z m 103.840205,-0.26512 c -0.0845,-0.25326 -0.2597,-0.86573 -0.38941,-1.36103 -0.17114,-0.65349 -0.27316,-0.8033 -0.37186,-0.54607 -0.21554,0.56168 -0.1605,1.11265 0.17621,1.76377 0.37029,0.71606 0.81217,0.82432 0.58506,0.14333 z m 8.20528,-3.63267 c -0.0664,-0.61909 -0.25371,-1.84954 -0.41619,-2.73433 -0.16248,-0.88479 -0.29542,-2.19857 -0.29542,-2.91952 l 0,-1.31082 -2.0411,-2.61741 c -2.96196,-3.79829 -3.41755,-4.248 -4.46887,-4.41116 -0.48503,-0.0753 -1.8991,-0.64701 -3.14237,-1.27054 -2.07186,-1.03907 -2.28994,-1.10702 -2.61342,-0.81428 -0.19411,0.17567 -0.64499,0.3194 -1.00195,0.3194 -0.69974,0 -0.78985,-0.21693 -0.45546,-1.09644 0.24335,-0.64005 0.30556,-0.59109 -2.86984,-2.25807 -3.0665,-1.60981 -5.24,-2.25609 -7.01122,-2.08475 -1.45323,0.14058 -1.62742,0.23433 -1.32754,0.71451 0.33412,0.535 0.0631,1.0835 -0.49605,1.0041 -0.407,-0.0578 -0.45988,-0.18013 -0.44854,-1.03765 0.0148,-1.11937 0.15347,-1.07939 -2.28845,-0.65985 -2.30441,0.39592 -4.25946,1.04032 -8.36662,2.75772 -4.868902,2.03592 -8.183896,3.06471 -9.886818,3.06831 -0.452326,10e-4 -0.629599,0.0785 -0.53383,0.23344 0.275409,0.44562 2.92711,0.0358 5.406533,-0.83563 2.643625,-0.92911 3.834305,-1.04491 4.393245,-0.42729 0.40155,0.44371 0.29525,1.03091 -0.18662,1.03091 -0.16978,0 -0.45955,-0.23023 -0.64393,-0.51164 -0.33506,-0.51136 -0.90214,-0.6998 -0.90214,-0.29979 0,0.11652 0.15235,0.44439 0.33856,0.72858 0.31531,0.48122 0.31504,0.54025 -0.004,0.85913 -0.40481,0.40482 -1.00602,0.14162 -1.12205,-0.49122 -0.0391,-0.21306 -0.13394,-0.45462 -0.21082,-0.53681 -0.18531,-0.19808 -1.662396,0.216 -1.662396,0.46603 0,0.37648 0.10583,0.49301 0.502758,0.55358 0.464948,0.071 0.717618,0.40253 0.722058,0.94752 0.003,0.33206 -0.11068,0.36983 -0.823164,0.27427 -0.454459,-0.061 -1.151228,-0.35867 -1.548375,-0.66159 -0.826363,-0.6303 -1.0763,-0.54782 -0.718646,0.23715 0.36456,0.80012 -0.0692,1.16565 -0.605053,0.50987 -0.217133,-0.26574 -0.394787,-0.60786 -0.394787,-0.76027 0,-0.24415 -0.591362,-0.70083 -0.907508,-0.70083 -0.405458,0 0.06573,1.05745 1.232882,2.76689 0.741769,1.0864 1.494912,2.40447 1.673654,2.92905 0.178742,0.52458 0.522396,1.10906 0.763679,1.29886 0.241282,0.18979 0.555199,0.74274 0.697593,1.22878 0.142395,0.48603 0.392295,1.09257 0.555335,1.34786 0.26105,0.40874 0.25894,0.47856 -0.0177,0.5847 -0.414371,0.15902 -0.40311,0.48607 0.0167,0.48607 0.2342,0 0.29838,0.12419 0.21968,0.42515 -0.0678,0.2593 0.19098,1.04998 0.66342,2.02693 0.42603,0.88099 0.82509,1.79482 0.88678,2.03075 0.21997,0.84115 1.93728,0.29704 2.5006,-0.79229 0.41325,-0.79915 0.39146,-1.29681 -0.0989,-2.25794 -0.48531,-0.95129 -0.52286,-1.99261 -0.1077,-2.98625 0.39955,-0.95626 4.74861,-5.58496 5.40151,-5.74883 0.71507,-0.17947 1.41258,-0.1788 2.51595,0.002 0.94008,0.15438 0.95564,0.14785 1.0886,-0.45752 0.31376,-1.42854 1.56828,-2.27063 3.38269,-2.27063 1.70958,0 3.30446,1.07925 3.60276,2.43798 0.46193,2.10398 0.90239,2.46324 2.5137,2.05027 1.01814,-0.26094 1.05144,-0.29389 1.50357,-1.48823 0.25431,-0.67176 0.74954,-1.52948 1.10052,-1.90605 0.52364,-0.56181 0.78901,-0.68466 1.47905,-0.68466 1.08352,0 1.38312,0.44033 1.66844,2.45208 0.20871,1.47159 0.60501,2.25505 1.14068,2.25505 0.14194,0 0.54983,-0.36838 0.90644,-0.81863 0.3566,-0.45025 0.81775,-0.81863 1.02478,-0.81863 0.7915,0 1.58854,0.98239 2.13965,2.63724 0.61938,1.85982 1.16228,2.4792 2.17305,2.4792 1.17351,0 2.02179,0.61486 2.91755,2.11471 0.83288,1.39455 1.13367,1.65754 0.75417,0.65939 -0.25087,-0.65987 -0.0903,-1.05368 0.29821,-0.73127 0.34711,0.28808 0.64081,1.49184 0.94967,3.89225 0.21291,1.65468 0.27648,1.85281 0.42684,1.33028 0.0972,-0.33769 0.12234,-1.1205 0.0559,-1.73959 z m 2.26305,0.10428 c 0.52955,-1.95634 0.32969,-3.67398 -0.73222,-6.2927 -1.41271,-3.48384 -1.83203,-4.86657 -2.14121,-7.06091 -0.33197,-2.35605 -0.64846,-3.09413 -2.34857,-5.47687 -1.45862,-2.0443 -1.7225,-2.71079 -1.74296,-4.4022 -0.019,-1.57074 -0.3906,-2.23438 -1.89379,-3.38215 -1.63207,-1.24618 -3.49025,-1.55968 -5.21865,-0.88044 -0.51061,0.20065 -0.72103,0.11485 -2.26696,-0.92443 -2.10024,-1.41194 -3.76801,-1.91505 -5.32663,-1.60687 l -1.02841,0.20334 -2.01407,-1.87131 c -3.49636,-3.24852 -5.2233,-3.97751 -7.88817,-3.32981 l -1.38681,0.33707 -2.43051,-0.84266 c -3.27853,-1.13668 -4.21293,-1.0918 -6.99834,0.33619 -1.663338,0.85273 -2.025684,1.12782 -2.279127,1.73023 -0.165741,0.39397 -0.896088,1.57068 -1.622991,2.61491 -0.726903,1.04423 -1.5446,2.38561 -1.817105,2.98084 -0.272505,0.59523 -0.736536,1.30649 -1.031182,1.58058 -0.294645,0.27409 -0.792278,0.86887 -1.105851,1.32173 -0.313574,0.45286 -0.815676,0.95479 -1.115787,1.11541 -0.398347,0.21319 -0.517097,0.40579 -0.439881,0.71344 0.08169,0.32545 -0.219972,0.71665 -1.324798,1.71806 -0.882633,0.80001 -1.545684,1.25248 -1.731124,1.18132 -0.195487,-0.075 -0.300558,0.013 -0.300558,0.25188 0,0.20197 -0.230242,0.58352 -0.511644,0.84788 -0.511582,0.48061 -0.621018,0.90946 -0.387421,1.5182 0.159139,0.4147 1.221254,0.42476 2.188263,0.0207 0.589731,-0.24641 0.948052,-0.26118 1.918077,-0.0791 2.676903,0.50257 6.594,-0.19061 11.221109,-1.98573 1.35074,-0.52402 3.50769,-1.32247 4.79323,-1.77432 2.19838,-0.7727 2.35308,-0.80002 2.60202,-0.45958 0.25281,0.34573 0.32236,0.34488 1.55116,-0.0189 1.83428,-0.54312 5.86749,-0.50422 8.74811,0.0844 1.69413,0.34616 2.76455,0.73673 5.13284,1.87286 1.64577,0.78952 3.10557,1.4355 3.244,1.4355 0.13842,0 0.73746,0.45943 1.33119,1.02097 1.12545,1.06439 3.0139,2.04617 5.50093,2.85985 1.34104,0.43875 1.43873,0.51843 3.00104,2.44761 1.88294,2.3251 3.25465,4.38523 3.41126,5.12325 0.0608,0.28644 0.39391,1.33355 0.74029,2.32691 0.53073,1.52207 0.62468,2.07888 0.5974,3.54054 -0.0512,2.73976 0.51965,3.36254 1.10385,1.20436 z m -65.488917,-2.30436 c -0.07589,-0.30954 -0.270068,-0.69766 -0.431502,-0.86248 -0.25672,-0.26211 -0.293519,-0.24118 -0.293519,0.16695 0,0.57644 0.348636,1.25834 0.643359,1.25834 0.136625,0 0.167492,-0.21273 0.08166,-0.56281 z m -18.537681,-1.09579 c 1.227112,-0.42551 2.288865,-1.19171 1.132859,-0.81752 -0.33758,0.10927 -1.281578,0.30501 -2.097763,0.43497 -0.901395,0.14352 -1.664669,0.39337 -1.94425,0.63643 l -0.460276,0.40015 1.125621,-0.13315 c 0.61909,-0.0732 1.628803,-0.30763 2.243809,-0.52088 z m 45.968978,-0.93208 c -0.0634,-0.16526 -0.20805,-0.24315 -0.32141,-0.17309 -0.29029,0.17941 -0.25669,1.1982 0.0497,1.50771 0.20528,0.20734 0.26878,0.13071 0.32141,-0.38787 0.0361,-0.35545 0.0137,-0.78148 -0.0497,-0.94675 z m 1.21735,0.28828 c 0.0635,-0.25326 -0.0199,-0.84356 -0.18515,-1.31177 -0.28299,-0.80156 -0.25856,-1.09296 0.0916,-1.09296 0.0828,0 0.25285,0.2935 0.3779,0.65222 0.16673,0.4783 0.288,0.59158 0.45476,0.42482 0.16676,-0.16676 0.16532,-0.40545 -0.005,-0.89512 -0.16324,-0.46827 -0.16829,-0.73221 -0.0169,-0.88359 0.25213,-0.25213 0.59999,0.18074 0.605,0.75284 0.002,0.19698 0.10521,0.35815 0.22998,0.35815 0.14706,0 0.17457,-0.19794 0.0782,-0.56281 -0.23005,-0.87107 -0.22258,-1.1257 0.0357,-1.21719 0.13115,-0.0465 0.29853,0.10481 0.37195,0.33612 0.19216,0.60547 0.51414,0.51765 0.52144,-0.14222 0.005,-0.48116 0.0365,-0.51085 0.21483,-0.20466 0.31677,0.54386 0.56451,0.43038 0.63577,-0.29123 0.0648,-0.65579 0.57577,-1.0936 0.57577,-0.49329 0,0.17822 0.0921,0.32404 0.20466,0.32404 0.11256,0 0.20466,-0.19281 0.20466,-0.42847 0,-0.25636 0.16442,-0.47148 0.40931,-0.53552 0.54378,-0.1422 0.51609,-0.38045 -0.11789,-1.01443 -0.45427,-0.45427 -0.65507,-0.51279 -1.45158,-0.42301 -1.10035,0.12403 -2.04966,0.95331 -3.45185,3.01541 -0.84937,1.24911 -0.89306,1.38022 -0.71608,2.1489 0.10367,0.45025 0.2415,1.0719 0.30629,1.38144 0.1425,0.68076 0.46863,0.73399 0.62692,0.10233 z m -46.687577,-0.46518 c 0.533472,-0.2229 0.855275,-0.25318 1.129693,-0.10632 0.310133,0.16598 0.449739,0.1046 0.727979,-0.32005 0.189343,-0.28897 0.313118,-0.55655 0.275054,-0.59461 -0.238294,-0.2383 -3.647341,0.91657 -3.647341,1.2356 0,0.19919 0.793239,0.0868 1.514615,-0.21462 z m 13.536344,-2.04256 c -0.179864,-0.61871 -0.428266,-1.12493 -0.552006,-1.12493 -0.35353,0 -0.08762,1.9386 0.356327,2.59775 0.377938,0.56115 0.388463,0.56377 0.454799,0.11328 0.03737,-0.25364 -0.07926,-0.96738 -0.25912,-1.5861 z m 1.935643,1.83244 c 0,-0.0619 -0.127631,-0.36118 -0.283627,-0.66514 -0.155996,-0.30395 -0.390253,-1.07009 -0.520568,-1.70251 -0.224596,-1.08997 -0.690663,-2.03913 -0.892382,-1.81735 -0.204203,0.2245 0.608454,3.47732 0.968,3.87461 0.362324,0.40036 0.728577,0.5564 0.728577,0.31039 z m 2.322733,-1.8252 c 0.18416,-0.47992 -0.187747,-0.54579 -0.58751,-0.10406 -0.353279,0.39037 -0.351424,0.40449 0.05308,0.40449 0.230527,0 0.471019,-0.1352 0.534428,-0.30043 z m -12.169646,-1.03625 c 0.530826,-0.89969 0.536303,-0.98443 0.04667,-0.72239 -0.330631,0.17695 -1.251281,1.47998 -1.251281,1.77098 0,0.30374 0.836173,-0.42414 1.204609,-1.04859 z m 47.402643,-1.66484 c 0.28588,-0.6842 0.33685,-0.71832 0.57882,-0.38741 0.24732,0.33822 0.29007,0.32514 0.62928,-0.19256 0.26363,-0.40235 0.42568,-0.49368 0.58799,-0.33136 0.16232,0.16232 0.3259,0.0697 0.59358,-0.33627 0.35382,-0.53655 0.36956,-0.54079 0.37085,-0.0999 0.002,0.65812 0.54528,0.5756 0.91478,-0.13894 0.29246,-0.56554 0.34191,-0.58424 0.87506,-0.33075 0.31079,0.14777 0.81834,0.32716 1.12788,0.39866 0.54182,0.12514 0.56281,0.0995 0.56281,-0.68838 0,-0.75611 -0.0662,-0.85244 -0.86979,-1.26617 -0.61175,-0.31495 -1.25937,-0.4528 -2.18293,-0.46464 l -1.31313,-0.0168 -0.69202,1.17785 c -0.38061,0.64782 -0.96392,1.37889 -1.29625,1.62459 -0.45767,0.33836 -0.60425,0.61116 -0.60425,1.12455 0,0.89407 0.32728,0.86101 0.71732,-0.0725 z m -50.753287,0.33632 c 0.07251,-0.11733 -0.39257,-0.44013 -1.058293,-0.73455 -3.557115,-1.57312 -8.384854,-4.95402 -14.264157,-9.98928 -1.784622,-1.52842 -3.315982,-2.77894 -3.403028,-2.77894 -0.08704,0 -0.488886,0.13814 -0.892983,0.30699 -1.543509,0.64491 -2.782892,0.17051 -3.335623,-1.27679 -0.331742,-0.86865 -0.314634,-2.43299 0.05003,-4.5761 0.124805,-0.73346 0.112414,-0.7482 -3.068629,-3.65039 -1.756666,-1.60268 -3.193939,-2.95527 -3.193939,-3.00577 0,-0.1838 0.743455,0.32917 1.944251,1.34148 3.241212,2.73246 5.037545,3.93425 5.191274,3.47306 0.138067,-0.4142 -0.701674,-1.29693 -2.261179,-2.37694 -0.847003,-0.58657 -2.260234,-1.72068 -3.140518,-2.52025 -0.880284,-0.79956 -1.883777,-1.59912 -2.229984,-1.77679 -0.346203,-0.17767 -1.707094,-1.3603 -3.024201,-2.62808 -6.253725,-6.01951 -14.802866,-11.06934 -20.2308146,-11.95001 -3.733121,-0.6057 -7.720681,0.3551 -10.03708101,2.41842 -0.495688,0.44153 -0.85520799,0.84532 -0.79892799,0.8973 0.0563,0.052 1.04655899,0.57636 2.20060899,1.16528 1.33212901,0.67979 2.34094301,1.351 2.76288101,1.83825 0.412643,0.47654 0.918325,0.81675 1.333856,0.89742 2.144219,0.41624 4.35549,2.27247 5.3684346,4.50646 0.559549,1.23406 1.227667,3.90055 1.227667,4.89967 0,0.26653 0.240497,0.70787 0.534444,0.98076 0.293944,0.27288 0.885348,1.00268 1.314235,1.62177 1.688671,2.43757 2.52567,2.98206 4.044986,2.63136 0.553059,-0.12767 1.337216,-0.1699 1.742567,-0.0938 1.345549,0.25242 1.977663,1.744 1.266387,2.98825 -0.160867,0.28141 -0.295749,0.6835 -0.299737,0.89354 -0.01392,0.73341 1.459248,2.36915 3.97127,4.4095 2.641608,2.14562 3.8283,3.35747 4.362466,4.45498 0.174562,0.35865 0.531281,0.70459 0.794739,0.77071 0.262907,0.066 0.631393,0.35406 0.81885,0.64016 0.418771,0.63912 1.29366,1.08899 3.552841,1.82688 2.180451,0.71218 2.935954,1.09153 4.660464,2.34014 2.71209,1.96364 5.089651,2.29525 12.594259,1.75659 5.409711,-0.3883 8.423689,-0.33238 9.592321,0.17797 0.809837,0.35366 1.730368,0.41187 1.910259,0.1208 z m 24.618132,-0.62549 c 0.33193,-0.61662 0.178318,-3.12346 -0.288791,-4.7129 -0.501378,-1.70605 -1.720951,-3.87553 -2.739032,-4.87245 l -0.922741,-0.90354 -0.06456,0.65343 c -0.04646,0.47025 0.08612,0.8325 0.472933,1.2922 1.336448,1.58827 2.474224,4.79048 2.698253,7.59407 0.132132,1.65356 0.339327,1.88659 0.843936,0.94919 z m -13.775236,-0.1835 c 0.151203,-0.68843 0.01226,-1.02828 -0.420298,-1.02828 -0.305147,0 -0.39864,0.71949 -0.170682,1.31353 0.193389,0.50397 0.444232,0.3829 0.59098,-0.28525 z m 6.302984,-0.28222 c 1.115385,-0.54571 4.785488,-3.74597 4.557444,-3.97401 -0.14394,-0.14394 -0.790778,0.31373 -2.673016,1.89129 -2.010467,1.68504 -2.893971,2.15529 -4.049333,2.15529 -1.695393,0 -2.342751,-1.37777 -1.968573,-4.18971 0.119405,-0.89732 0.255135,-1.69303 0.301626,-1.76825 0.04649,-0.0752 -0.141743,-0.54161 -0.418297,-1.03642 -0.925032,-1.65506 -1.190229,-3.229 -1.079751,-6.40825 0.106239,-3.0572 0.555477,-5.60697 1.618062,-9.18377 0.330407,-1.1122 0.559808,-2.0631 0.509781,-2.11313 -0.05003,-0.05 -0.323604,0.2144 -0.607948,0.58762 -1.294127,1.69861 -2.461189,7.31467 -2.480133,11.93477 l -0.01176,2.86521 0.771897,1.6245 c 0.42454,0.89348 0.792926,1.90654 0.81863,2.25124 0.046,0.61685 0.0302,0.62769 -1.003137,0.68774 -1.039455,0.0604 -1.051082,0.0686 -1.171802,0.82353 -0.105515,0.65985 -0.279482,0.85801 -1.291863,1.47159 -1.44666,0.87676 -3.585256,1.62239 -4.673429,1.62941 -0.450603,0.003 -1.456012,-0.1768 -2.234234,-0.39935 -0.778225,-0.22256 -1.62704,-0.35142 -1.886256,-0.28636 -0.342721,0.086 -1.101108,-0.24296 -2.77988,-1.2059 -1.269719,-0.7283 -3.074217,-1.70856 -4.009992,-2.17835 -1.468141,-0.73706 -2.071416,-1.22612 -4.400145,-3.56714 -1.484303,-1.49213 -3.02107,-2.93307 -3.415037,-3.20208 -0.603212,-0.41188 -0.659757,-0.4239 -0.35815,-0.0761 0.693278,0.79937 0.347599,0.73012 -0.567918,-0.11377 -0.509338,-0.46949 -1.015999,-0.79804 -1.125921,-0.7301 -0.329104,0.20339 0.416727,1.0028 1.931041,2.06975 0.929124,0.65463 1.6561,1.37285 2.117968,2.09244 0.487471,0.75948 1.074313,1.32465 1.912549,1.84192 0.665114,0.41044 2.287519,1.51401 3.605348,2.45239 6.223035,4.43118 10.90138,5.36199 15.656922,3.1151 1.18803,-0.56132 1.435665,-0.78103 1.992692,-1.76804 0.599372,-1.06202 1.10156,-1.5166 1.374219,-1.24394 0.06613,0.0661 -0.03363,0.7327 -0.221638,1.48126 -0.61818,2.46098 0.02295,3.18197 2.748195,3.09058 0.982463,-0.0329 1.644607,-0.19663 2.511826,-0.62092 z m 0.20524,-1.74217 c 1.957436,-1.32234 3.165061,-2.52479 3.660523,-3.64487 0.223535,-0.50534 0.36768,-0.95755 0.320322,-1.00491 -0.261132,-0.26113 -2.703702,-0.52337 -3.938921,-0.4229 -2.029263,0.16507 -3.00657,0.50695 -2.850936,0.99731 0.06703,0.21119 0.0027,0.52768 -0.143135,0.7033 -0.218969,0.26384 -0.211167,0.35991 0.04492,0.55299 0.170462,0.12852 0.314842,0.41787 0.320843,0.64299 0.006,0.22512 0.07964,0.56921 0.163628,0.76462 0.116347,0.27069 0.01373,0.40975 -0.430893,0.58389 -0.582638,0.22819 -0.582831,0.22888 -0.11347,0.40914 0.258579,0.0993 0.44277,0.31493 0.409315,0.47916 -0.05752,0.28237 0.569268,0.91483 0.920539,0.92888 0.08951,0.003 0.826273,-0.44174 1.63726,-0.9896 z M 68.374957,740.4185 c 0.365984,-0.11165 0.424248,-0.18714 0.204658,-0.26515 -0.168842,-0.06 -1.043754,-0.35984 -1.944251,-0.66635 -1.977964,-0.67325 -4.119401,-1.73197 -6.682468,-3.30376 -4.614795,-2.83001 -6.178947,-3.75417 -6.35399,-3.75417 -0.314923,0 0.507598,1.22545 1.313745,1.95731 0.418775,0.38018 1.328989,0.97775 2.022692,1.32793 0.693706,0.35018 1.484318,0.90176 1.75692,1.22573 0.813142,0.96636 3.273645,2.47184 5.051228,3.09064 1.68249,0.58569 3.487427,0.73683 4.631466,0.38782 z m 59.043793,-0.41709 c 0.0696,-0.11256 -0.0171,-0.20465 -0.19258,-0.20465 -0.17548,0 -0.31907,0.0921 -0.31907,0.20465 0,0.11256 0.0867,0.20466 0.19258,0.20466 0.10592,0 0.2495,-0.0921 0.31907,-0.20466 z m -56.309342,-1.64847 c -0.43461,-0.0624 -0.991364,-0.22361 -1.237228,-0.35815 -0.522793,-0.28607 -1.779516,-0.33114 -1.610558,-0.0578 0.06351,0.10276 0.467375,0.2463 0.897465,0.31896 0.43009,0.0727 1.051255,0.29901 1.380366,0.50299 0.553098,0.34279 0.627212,0.34576 0.97927,0.0392 0.362408,-0.31559 0.342555,-0.33719 -0.409315,-0.44522 z m -6.055612,-0.66044 c -0.194492,-0.13712 -1.464122,-0.84793 -2.821403,-1.57959 -1.357281,-0.73165 -3.730792,-2.1725 -5.274471,-3.20189 -1.543678,-1.0294 -2.842552,-1.83775 -2.886389,-1.79633 -0.240411,0.22712 1.135304,1.53377 2.228059,2.11621 0.696078,0.371 2.109136,1.25008 3.140133,1.95349 1.030993,0.70342 2.288969,1.49156 2.795499,1.75142 1.530076,0.78498 3.675737,1.36102 2.818572,0.75669 z m -7.730361,-0.42232 c 0,-0.0389 -0.773046,-0.54307 -1.717884,-1.12045 -1.26729,-0.77442 -2.300639,-1.66202 -3.939662,-3.38402 -1.221979,-1.28383 -2.451224,-2.4525 -2.731646,-2.59702 -1.200765,-0.61884 3.971998,4.6878 5.742589,5.89122 1.148957,0.78091 2.646603,1.46578 2.646603,1.21027 z m 14.201547,-0.0981 c 0.05737,-0.0928 -0.328602,-0.37874 -0.85772,-0.63536 -1.395252,-0.6767 -3.979094,-2.39476 -7.408751,-4.92628 -1.653164,-1.22024 -3.824729,-2.75246 -4.825695,-3.40492 -2.356589,-1.5361 -6.035099,-3.18933 -6.908025,-3.10466 -0.356446,0.0346 -0.64808,0.13528 -0.64808,0.2238 0,0.0885 0.74189,0.46007 1.648645,0.82568 0.906755,0.36561 2.564486,1.18053 3.683843,1.81094 1.119358,0.63041 2.541725,1.39853 3.160812,1.70693 0.61909,0.30841 1.54588,0.95128 2.059537,1.4286 0.513649,0.47733 1.704579,1.31239 2.64651,1.85569 0.941927,0.54331 2.409635,1.57465 3.26157,2.29188 0.851935,0.71722 1.871312,1.47827 2.265278,1.69122 0.747574,0.40408 1.742817,0.52652 1.922076,0.23648 z m 2.580394,-0.15166 c 0,-0.42614 -0.619218,-1.04474 -1.809566,-1.80773 -1.127621,-0.72279 -1.520203,-1.12841 -2.173828,-2.24606 -1.008186,-1.72392 -3.351655,-4.84596 -6.780328,-9.03296 -3.141104,-3.83583 -4.78757,-6.03487 -6.124782,-8.18034 -0.532963,-0.8551 -1.002987,-1.52076 -1.044506,-1.47924 -0.04152,0.0415 0.06337,0.54305 0.233072,1.11453 0.354483,1.19367 0.708812,1.71547 4.164006,6.13214 1.391339,1.77851 4.384461,5.74123 6.651382,8.80607 3.677569,4.972 4.202278,5.59524 4.869764,5.78425 0.411451,0.11651 0.964028,0.39176 1.227949,0.61167 0.479623,0.39965 0.786837,0.51587 0.786837,0.29767 z m -8.417835,-0.59327 c -0.507058,-0.50706 -14.10963,-8.75832 -14.233795,-8.63416 -0.151811,0.15181 0.986258,1.77087 1.244783,1.77087 0.514937,0 3.473987,1.6579 6.547861,3.66865 1.789276,1.17043 3.907483,2.38626 4.707131,2.70185 1.377667,0.5437 1.946618,0.70539 1.73402,0.49279 z m 32.158147,-1.05789 c 0.844215,-0.17022 2.154582,-0.52309 2.911922,-0.78415 1.37028,-0.47235 3.33642,-1.50168 3.17559,-1.66251 -0.12451,-0.12451 -4.632742,1.33053 -5.516547,1.78046 -0.417626,0.21261 -1.154394,0.39058 -1.637264,0.39548 -1.219472,0.0124 -2.604324,0.3025 -2.889825,0.60542 -0.289702,0.30737 1.539189,0.15264 3.956124,-0.3347 z m -18.316876,-0.59072 c 0.675368,-0.16307 1.575178,-0.29793 1.999572,-0.29969 l 0.771627,-0.003 -0.413476,-0.81048 c -0.467213,-0.91581 -0.515716,-1.2361 -0.187195,-1.2361 0.124453,0 0.4999,-0.23024 0.834333,-0.51165 0.73403,-0.61764 1.407848,-0.6538 1.906928,-0.10232 1.037846,1.14681 2.600259,0.009 6.836521,-4.97891 2.485011,-2.9259 3.943533,-4.91063 5.463116,-7.43413 1.650017,-2.74012 2.571929,-5.11721 3.242164,-8.35973 0.713558,-3.45212 1.224988,-4.54916 2.881898,-6.18179 1.18381,-1.16647 1.31154,-1.36905 1.17359,-1.86138 -0.0851,-0.30386 -0.14578,-1.15109 -0.13477,-1.88274 0.0165,-1.09901 0.19096,-1.73944 1.00329,-3.68384 0.9335,-2.23443 0.98273,-2.4468 0.9725,-4.19549 -0.009,-1.49979 -0.17344,-2.45014 -0.88657,-5.11644 -0.77182,-2.88581 -0.8775,-3.54426 -0.89019,-5.5467 l -0.0144,-2.27217 1.31457,-2.5871 c 0.72302,-1.42291 1.27559,-2.62017 1.22795,-2.66059 -0.19459,-0.16508 -2.01433,-0.53104 -3.28623,-0.6609 -3.666408,-0.37431 -7.612216,1.77956 -9.511693,5.19207 -0.42014,0.7548 -1.850749,3.23413 -3.179129,5.50961 -3.777889,6.47143 -5.188633,9.52635 -6.222063,13.4737 -0.293199,1.11991 -0.855795,3.04719 -1.25022,4.28283 -0.751026,2.35279 -0.778881,3.12123 -0.138796,3.82852 0.184951,0.20437 0.401463,0.37158 0.481135,0.37158 0.07967,0 0.257923,-0.71375 0.396114,-1.5861 1.024984,-6.47046 3.690172,-13.2755 7.915211,-20.20997 0.7544,-1.23818 1.792485,-3.02554 2.306856,-3.97192 0.828395,-1.52415 1.715578,-2.47093 2.318278,-2.47403 0.08194,-3.9e-4 -0.529025,1.03531 -1.357701,2.30164 -5.16719,7.8961 -8.817563,16.20681 -10.228986,23.28805 -0.898753,4.50915 -0.901429,4.40484 0.199347,7.76877 1.442113,4.40705 1.337825,6.00479 -0.447228,6.85186 -1.283892,0.60924 -1.412518,0.45257 -1.412518,-1.72052 0,-2.12692 -0.357341,-2.78053 -0.607636,-1.11143 -0.553044,3.68795 -2.866872,11.29404 -4.753919,15.62725 -1.538618,3.5331 -1.50367,3.27588 -0.4439,3.26723 0.491517,-0.004 1.446243,-0.14071 2.121612,-0.30379 z m -14.837694,-0.18419 c 0,-0.40178 -7.441581,-5.2967 -9.715475,-6.39064 -1.997694,-0.96106 -2.826228,-0.91575 -0.994896,0.0544 0.769139,0.40746 2.825927,1.66534 4.570633,2.79528 2.573923,1.66699 5.838205,3.60996 6.088574,3.62404 0.02815,0.002 0.05116,-0.0358 0.05116,-0.0831 z m 3.888497,-0.60008 c 0,-0.58386 -0.932131,-1.66729 -1.490377,-1.73228 -0.305911,-0.0356 -0.556202,-0.0311 -0.556202,0.01 0,0.15634 1.743414,1.99897 1.891335,1.99897 0.08538,0 0.155244,-0.12453 0.155244,-0.27672 z m 4.059047,-0.0814 c -0.03752,-0.0844 -0.402701,-0.84421 -0.811518,-1.68842 -0.408814,-0.84422 -0.933871,-2.27171 -1.166793,-3.1722 -0.702657,-2.71651 -1.834046,-8.58842 -2.359743,-12.24706 -0.272394,-1.89572 -0.608466,-3.55345 -0.746834,-3.68384 -0.470599,-0.44347 -0.07867,3.83872 0.718187,7.84691 0.413997,2.0824 0.876058,4.66109 1.026809,5.73042 0.345058,2.44768 1.697445,6.25421 2.454001,6.90721 0.515519,0.44494 1.025798,0.62177 0.885891,0.30698 z m 3.552795,-0.61397 c 0.395228,-0.46018 0.607749,-1.0597 0.460248,-1.29836 -0.151395,-0.24496 -1.113723,0.90242 -1.113723,1.3279 0,0.42969 0.269532,0.4175 0.653475,-0.0295 z m 31.938283,-1.90172 c 0.76441,-0.35548 0.71316,-0.61989 -0.0763,-0.39348 -0.61888,0.17749 -1.61215,0.73458 -1.61215,0.90419 0,0.11269 0.99517,-0.18832 1.68843,-0.51071 z m -41.392047,0.27636 c 0,-0.26934 -1.708771,-3.03536 -2.630818,-4.25855 -0.509094,-0.67537 -1.811937,-2.24101 -2.895201,-3.47919 -2.963651,-3.38747 -4.513538,-5.40801 -5.059798,-6.5963 -0.838773,-1.82461 -1.100449,-1.72939 -1.311215,0.47717 -0.194816,2.03953 -0.527147,2.53762 -1.693137,2.53762 -0.884623,0 -0.893825,-0.007 -1.1209,-0.90926 -0.332663,-1.32113 -0.28834,-2.05783 0.282694,-4.69898 0.549754,-2.54273 0.635226,-4.0691 0.296223,-5.28979 -0.330989,-1.19183 -0.507606,-0.9106 -0.432015,0.6879 0.04106,0.86831 -0.0209,1.54608 -0.153493,1.67866 -0.160041,0.16004 -0.222363,-0.18204 -0.222363,-1.22064 0,-0.79364 -0.115117,-1.75605 -0.255822,-2.13867 l -0.255822,-0.69568 -0.102328,1.31429 c -0.152317,1.95634 -0.581285,1.87567 -0.656275,-0.12341 -0.04724,-1.25928 -0.125429,-1.6002 -0.367013,-1.6002 -0.225537,0 -0.338587,0.32581 -0.426075,1.22795 l -0.11909,1.22795 -0.03741,-1.12562 c -0.04219,-1.26917 -0.385698,-2.113 -0.900515,-2.21214 -0.302633,-0.0583 -0.318996,0.0141 -0.127443,0.56355 0.218372,0.62642 0.132202,1.24033 -0.17379,1.23812 -0.08795,-7.7e-4 -0.173554,-0.36599 -0.190222,-0.81189 -0.01666,-0.44591 -0.234392,-1.14095 -0.483827,-1.54454 -0.249432,-0.4036 -0.409963,-0.77736 -0.356735,-0.83059 0.155375,-0.15537 2.593957,1.28754 4.077535,2.41267 1.40742,1.06739 1.595236,1.37763 1.599999,2.64301 0.0039,1.01661 0.221352,2.02099 0.437695,2.02099 0.09849,0 0.179073,-0.59318 0.179073,-1.31819 0,-0.72501 0.0921,-1.37512 0.204658,-1.44469 0.118692,-0.0734 0.204657,0.12597 0.204657,0.47451 0,0.33055 0.138145,0.71565 0.306987,0.85577 0.259933,0.21572 0.30699,0.17044 0.30699,-0.29538 0,-0.30259 -0.09235,-0.72271 -0.205213,-0.9336 -0.115422,-0.21567 -0.126328,-0.4322 -0.02491,-0.49487 0.09916,-0.0613 0.235251,0.16337 0.302424,0.49923 0.14104,0.7052 0.527128,0.78277 1.045432,0.21005 0.349859,-0.38659 0.337171,-0.4349 -0.362779,-1.38144 -3.168551,-4.28483 -8.427229,-6.6117 -17.917152,-7.92798 l -2.324507,-0.32242 -1.257004,-1.0913 c -1.619559,-1.40605 -3.265762,-2.50479 -5.707576,-3.80949 -1.078274,-0.57614 -2.106081,-1.26971 -2.284013,-1.54127 -1.246696,-1.90269 -3.856561,-2.89137 -7.174398,-2.71783 -1.461018,0.0764 -2.152541,0.22095 -3.072543,0.64214 -0.820833,0.37579 -1.263252,0.4804 -1.433641,0.33899 -0.135545,-0.11249 -0.790527,-0.48043 -1.455518,-0.81765 -1.024132,-0.51934 -1.446004,-0.61352 -2.758029,-0.61571 -1.9153836,-0.003 -3.4184416,0.42412 -4.1131186,1.16937 -0.291001,0.3122 -0.823602,1.1936 -1.183557,1.95868 -0.688866,1.46417 -1.422788,2.15739 -3.296861,3.114 -0.51308701,0.26191 -1.23986201,0.76295 -1.61505501,1.11343 -0.666323,0.62244 -0.679393,0.66695 -0.562743,1.91618 0.06569,0.70341 0.213181,1.52551 0.327762,1.82688 l 0.208329,0.54795 1.184968,-0.41218 c 7.37027801,-2.56369 12.34058061,-1.64727 20.12912561,3.7114 1.62483,1.11791 3.686068,2.47131 4.580529,3.00756 0.894465,0.53624 2.091716,1.44615 2.660552,2.02203 0.568843,0.57587 1.587434,1.46194 2.263542,1.96903 0.676105,0.5071 2.195688,1.93365 3.376853,3.17013 1.379545,1.44414 2.769692,2.65979 3.887163,3.39922 0.956775,0.6331 2.187103,1.47523 2.734061,1.8714 0.546962,0.39618 1.163175,0.72032 1.369364,0.72032 1.065809,0 0.362443,-1.07126 -1.000619,-1.52399 -0.544575,-0.18089 -1.258266,-0.61354 -1.585988,-0.96145 -0.327723,-0.34793 -2.166787,-1.99553 -4.086807,-3.66136 -3.030716,-2.62947 -4.309443,-3.90514 -5.619548,-5.6061 -0.619225,-0.80397 0.357935,-0.0376 2.981715,2.33863 6.041875,5.47175 7.790773,6.82573 10.707328,8.28944 1.16503,0.58469 3.529267,1.53414 3.820171,1.53414 0.0253,0 0.148372,-0.40659 0.273508,-0.90355 0.329678,-1.30926 1.116253,-2.16632 1.988176,-2.16632 0.439072,0 0.859594,0.16149 1.133306,0.4352 0.394395,0.39439 0.421618,0.5719 0.290354,1.89309 -0.264391,2.66104 -0.377426,2.38037 1.170606,2.90664 1.831378,0.62259 3.943834,1.71328 7.532051,3.8889 1.624476,0.98496 3.437096,2.01258 4.028045,2.28359 0.734528,0.33686 1.074456,0.61319 1.074456,0.87346 0,0.25823 0.181083,0.40815 0.562808,0.46598 0.984241,0.1491 1.483767,0.15078 1.483767,0.005 z m -14.121389,-0.24538 c 0,-0.10027 -0.323584,-0.62982 -0.719078,-1.17678 -1.630893,-2.2555 -1.575417,-2.12869 -2.252679,-5.14953 -0.262605,-1.17131 -0.281896,-1.55858 -0.0892,-1.79076 0.191846,-0.23116 0.189586,-0.36406 -0.0103,-0.60489 -0.160813,-0.19376 -0.217754,-0.64925 -0.152988,-1.22384 0.199077,-1.76622 -0.925579,-2.15246 -1.18722,-0.40773 -0.223863,1.49282 0.01716,5.19456 0.412859,6.34036 0.542021,1.56957 1.525583,2.9657 2.544575,3.61192 0.930519,0.59012 1.454014,0.73458 1.454014,0.40125 z m 24.117198,-4.31509 c 0.449481,-1.63494 0.877457,-3.29495 0.951059,-3.68891 0.0736,-0.39397 0.396234,-1.22283 0.716965,-1.84192 0.72757,-1.40441 1.799615,-6.26557 1.457261,-6.60793 -0.562361,-0.56236 -1.228898,1.21972 -1.973953,5.27765 -0.289339,1.57587 -0.854384,3.78617 -1.255666,4.91179 -1.003442,2.81474 -1.501341,4.5843 -1.49595,5.31667 l 0.0046,0.61841 0.389249,-0.50658 c 0.214087,-0.27861 0.757007,-1.84424 1.206488,-3.47918 z m -4.063648,0.6024 c 0.292887,-3.6227 0.48653,-4.54533 1.558687,-7.42644 0.927843,-2.49331 1.158,-4.18694 0.688269,-5.06464 -0.322119,-0.60188 -0.517679,-0.48609 -0.97323,0.57626 -1.089836,2.54152 -1.670469,6.48806 -1.676127,11.39262 -0.0023,1.90417 0.03729,3.42083 0.08778,3.37036 0.05048,-0.0505 0.192058,-1.33215 0.314622,-2.84816 z m 5.182944,2.00192 c 0.751426,-1.15813 1.390474,-3.24478 2.261772,-7.38527 0.41859,-1.98918 0.897666,-3.71225 1.142096,-4.10775 0.25672,-0.41538 0.421351,-1.03129 0.421818,-1.57808 3.85e-4,-0.54357 0.166512,-1.16867 0.421578,-1.58705 0.492643,-0.80807 0.384927,-1.31031 -0.261066,-1.21719 -0.345405,0.0498 -0.496909,0.26206 -0.63105,0.88415 -0.560266,2.59832 -2.719136,11.02654 -3.394361,13.2516 -0.435524,1.43516 -0.731847,2.60938 -0.6585,2.60938 0.07335,0 0.387317,-0.39141 0.697713,-0.86979 z m -36.185691,-1.24482 c 0,-1.34241 0.81268,-2.78557 2.091558,-3.7142 0.468034,-0.33985 0.856597,-0.73908 0.863477,-0.88719 0.0069,-0.1481 0.105171,-0.44242 0.218429,-0.65405 0.17352,-0.32422 0.29976,-0.35206 0.802221,-0.1769 1.105802,0.38549 0.971464,0.74195 -0.986601,2.61798 -1.789862,1.71486 -2.17667,2.34176 -2.033922,3.29632 0.05603,0.37467 0.245884,0.19479 1.069312,-1.01314 0.703281,-1.03169 1.251339,-1.59549 1.841917,-1.89484 1.069875,-0.54228 1.140808,-0.66245 1.144595,-1.93906 0.0027,-0.92655 -0.073,-1.12033 -0.616865,-1.57796 -1.356518,-1.14143 -3.037384,-0.79879 -4.598339,0.93737 -0.863531,0.96045 -1.535371,2.48328 -1.535371,3.48016 0,0.83796 1.106002,2.61896 1.624688,2.61623 0.0632,-3.9e-4 0.114901,-0.49116 0.114901,-1.09072 z m 6.047278,0.0874 c -0.430538,-0.84392 -1.304891,-1.65661 -1.78232,-1.65661 -0.455797,0 0.193135,1.07722 1.098506,1.8235 1.015135,0.83676 1.175832,0.79754 0.683814,-0.16689 z m 20.893282,-0.0552 c -0.117797,-0.37425 -0.313616,-1.60709 -0.435146,-2.73965 -0.266871,-2.48701 -2.171723,-11.98343 -2.316882,-11.55056 -0.193223,0.57622 -0.551073,3.78363 -0.550811,4.93694 1.58e-4,0.69425 0.158067,1.50751 0.39805,2.05003 0.218784,0.49461 0.690548,2.09497 1.048367,3.55637 0.651955,2.66274 0.990897,3.57388 1.578919,4.24445 0.432184,0.49286 0.532585,0.31283 0.277503,-0.49758 z m -21.176929,-2.47121 c -0.05677,-0.14071 -0.103227,-0.0256 -0.103227,0.25582 0,0.2814 0.04645,0.39652 0.103227,0.25582 0.05678,-0.1407 0.05678,-0.37094 0,-0.51164 z m 24.135142,-3.24332 c 0.175954,-1.39605 0.550884,-3.49506 0.833173,-4.66446 0.354202,-1.4673 0.468551,-2.35521 0.368995,-2.86521 l -0.144256,-0.73902 -0.29389,0.81863 c -0.619329,1.72515 -1.308138,4.98811 -1.429764,6.77293 -0.115418,1.6938 0.02588,3.53534 0.253797,3.30743 0.05062,-0.0506 0.235992,-1.23425 0.411945,-2.6303 z m -6.793845,-0.7583 c -1.007846,-3.5765 -1.503142,-4.51471 -3.157907,-5.98177 -1.046211,-0.92754 -1.586208,-1.61289 -2.175981,-2.76172 -0.617979,-1.20378 -0.880623,-1.52821 -1.237717,-1.5289 -1.708332,-0.003 -0.788819,3.86555 1.612663,6.78528 1.056512,1.28451 5.552144,6.10058 5.630739,6.03208 0.02005,-0.0175 -0.282277,-1.16269 -0.671797,-2.54497 z m 11.786154,0.4201 c 0.0015,-0.25326 -0.07082,-0.46048 -0.16116,-0.46048 -0.202317,0 -0.650482,2.08004 -0.501575,2.32792 0.135345,0.22529 0.658601,-1.24912 0.662735,-1.86744 z m -5.641973,-5.35476 c 0.434771,-1.79136 0.739756,-3.38924 0.677743,-3.55085 -0.112637,-0.29353 -2.158121,-0.66607 -2.388324,-0.43498 -0.290796,0.29191 -0.09761,4.54076 0.266505,5.86141 0.209482,0.75979 0.442234,1.38144 0.517228,1.38144 0.075,0 0.492076,-1.46566 0.926848,-3.25702 z m -16.957339,1.69821 c -0.367075,-1.46253 -0.344966,-1.71901 0.300418,-3.48501 0.364252,-0.99672 0.789988,-2.06424 0.946077,-2.37226 0.539044,-1.06375 1.544989,-1.99358 2.734111,-2.52723 0.656317,-0.29454 1.400879,-0.75647 1.654579,-1.02653 l 0.461274,-0.491 -0.647454,0 c -0.3561,0 -1.10623,0.17432 -1.666956,0.38738 -2.178495,0.82777 -3.748494,2.66528 -4.617903,5.40477 -0.847669,2.67099 -0.605203,4.6454 0.570475,4.6454 0.328992,0 0.375984,-0.0948 0.265379,-0.53552 z m 30.698737,-3.60051 c -0.225328,-2.89329 -1.50428,-6.04572 -3.264096,-8.04552 -1.192454,-1.35506 -1.981173,-1.81729 -2.47935,-1.45302 -0.338949,0.24785 -0.292115,0.32191 0.585234,0.92555 2.517803,1.73229 4.887624,6.9539 4.563484,10.05507 -0.08122,0.77709 -0.03948,1.23393 0.128063,1.40148 0.384448,0.38445 0.611774,-1.02023 0.466665,-2.88356 z m -7.95906,0.0159 c -0.08833,-0.74579 -0.369273,-1.42615 -0.969034,-2.34669 -0.464552,-0.71303 -0.950955,-1.64968 -1.080896,-2.08145 -0.430067,-1.42901 -3.815941,-4.12249 -5.199211,-4.13599 -0.371614,-0.003 -0.460483,0.10886 -0.460483,0.58286 0,0.54617 0.06599,0.5948 0.941074,0.69344 0.762117,0.0859 1.114533,0.27582 1.853237,0.99874 0.967769,0.94708 2.509735,3.22358 3.446425,5.08815 0.611994,1.21823 1.289445,2.25123 1.476378,2.25123 0.0643,0 0.06093,-0.47263 -0.0075,-1.05029 z m -13.6447,-0.0817 c 0,-1.03424 -0.416184,-1.4047 -0.963365,-0.85752 -0.546839,0.54684 -0.05054,1.51042 0.9122,1.77105 0.02815,0.008 0.05117,-0.40347 0.05117,-0.91353 z m 1.339124,-1.46378 c -0.06544,-0.26073 -0.262682,-0.47405 -0.438323,-0.47405 -0.342197,0 -0.302845,0.44994 0.187951,2.14891 l 0.236481,0.81863 0.06644,-1.00973 c 0.03652,-0.55535 0.01288,-1.22304 -0.05255,-1.48376 z m 16.442487,-0.34047 c 1.340671,-0.85316 1.36806,-1.0964 0.09659,-0.85788 -0.729606,0.13688 -2.348876,1.43818 -2.770952,2.22684 -0.200242,0.37416 -0.159583,0.3694 0.576128,-0.0674 0.435366,-0.2585 1.379568,-0.84419 2.09823,-1.30152 z m -2.315918,-0.43325 c 0.181746,-0.27738 0.370838,-1.08322 0.420202,-1.79075 0.04936,-0.70754 0.12234,-1.68343 0.162174,-2.16865 0.06835,-0.83253 0.02765,-0.91047 -0.722472,-1.38401 -0.43719,-0.27598 -0.794889,-0.64926 -0.794889,-0.82951 0,-0.6943 0.902146,-1.92445 1.670669,-2.2781 0.625843,-0.28799 0.798464,-0.49437 0.897411,-1.07288 1.164644,-6.80949 3.149164,-11.50146 8.648296,-20.44702 2.110822,-3.43372 3.048082,-4.75062 4.333331,-6.08857 0.901977,-0.93896 1.792732,-1.7072 1.97946,-1.7072 0.305884,0 0.308576,0.0355 0.02719,0.35815 -3.703114,4.24641 -7.066407,9.61846 -10.666888,17.03777 -1.675224,3.45203 -2.063309,4.43122 -2.19008,5.52576 -0.08474,0.73165 -0.409898,2.1131 -0.722568,3.06987 -0.553862,1.69482 -0.779645,3.87793 -0.436643,4.2219 0.08982,0.0901 0.32006,0.0649 0.511644,-0.0559 0.249848,-0.15755 0.35743,-0.53162 0.380499,-1.32303 0.057,-1.95506 2.376462,-8.7805 4.517587,-13.2938 1.979515,-4.17265 5.484624,-9.87483 7.791591,-12.67551 0.509955,-0.61909 1.567604,-1.78359 2.350334,-2.58779 1.271955,-1.30684 1.378388,-1.47638 1.001845,-1.59589 -0.657046,-0.20853 -1.633087,-1.45241 -1.894092,-2.41385 -0.135391,-0.49872 -0.188252,-1.46147 -0.123393,-2.24739 l 0.113458,-1.37491 -1.069427,-0.3371 c -0.901503,-0.28418 -1.250899,-0.29944 -2.225112,-0.0972 -1.440794,0.2991 -3.206974,1.42204 -4.559878,2.89917 -0.739556,0.80747 -1.459729,1.32377 -2.597332,1.86207 -3.795651,1.79604 -5.911991,3.85604 -7.615275,7.41255 -1.348982,2.81671 -1.997119,3.57004 -4.964788,5.77062 -2.544448,1.88675 -3.018097,2.4318 -3.838579,4.41718 -0.311903,0.75474 -0.699552,1.48219 -0.861441,1.61654 -0.23937,0.19866 -0.290827,1.01269 -0.27549,4.35817 0.02048,4.46544 0.02441,4.44106 -1.34641,8.30937 -0.57894,1.6337 -0.785221,2.57437 -0.860376,3.92349 l -0.09886,1.77457 0.965964,0.14486 c 0.942093,0.14128 3.710685,-0.0165 4.307357,-0.24546 0.483765,-0.18564 0.161526,-0.43301 -1.006327,-0.77251 -1.600291,-0.46522 -1.685123,-0.63401 -1.270413,-2.52772 0.57975,-2.64737 0.73086,-3.08833 1.259607,-3.67581 l 0.509111,-0.56567 -0.525944,1.02043 c -0.335899,0.65169 -0.504035,1.27254 -0.465308,1.71814 0.05584,0.64246 0.134735,0.71644 0.996061,0.93403 2.153933,0.54414 3.436058,1.69021 5.677484,5.07502 1.736507,2.62233 1.727622,2.61089 2.028125,2.61089 0.138685,0 0.400854,-0.22695 0.5826,-0.50433 z m -15.945062,-0.20866 c 1.99533,-1.0235 6.761832,-1.12994 9.789921,-0.21862 0.553063,0.16644 1.037376,0.27083 1.076246,0.23196 0.03887,-0.0389 0.01033,-0.31112 -0.06343,-0.60499 -0.214372,-0.85414 -2.178792,-1.38018 -5.631098,-1.50793 -2.989092,-0.11061 -4.584984,0.16561 -5.750095,0.99524 -0.585091,0.41662 -0.897233,1.05938 -0.682896,1.40618 0.167797,0.2715 0.122444,0.28236 1.261354,-0.30184 z m -63.9878506,0.1695 c 0,-0.0738 -0.22533,-0.42959 -0.50073,-0.79066 -0.2754,-0.36107 -0.56167,-0.89931 -0.63616,-1.1961 -0.0934,-0.37211 -0.27149,-0.5401 -0.57373,-0.54119 -0.29117,-10e-4 -0.58514,-0.25886 -0.87577,-0.76805 -0.41036,-0.71896 -0.4183,-0.81456 -0.12812,-1.5421 0.17015,-0.42659 0.24689,-0.83809 0.17053,-0.91445 -0.19181,-0.1918 -0.51896,0.37063 -0.52276,0.89871 -0.002,0.23949 -0.14127,0.55007 -0.31012,0.6902 -0.51361,0.42626 -0.38137,-0.59213 0.19932,-1.53493 0.89978,-1.46088 0.42604,-1.87768 -0.68976,-0.60685 -0.55276,0.62955 -0.63493,0.87519 -0.63326,1.89308 0.004,2.2942 1.90018,4.54158 3.83542,4.54526 0.36583,7.7e-4 0.66514,-0.0591 0.66514,-0.13292 z m 61.9836046,-1.21699 c 0.400649,-0.87933 0.306419,-1.16739 -0.33043,-1.0101 -0.805244,0.19887 -0.89642,0.35462 -0.626375,1.07005 0.270422,0.71642 0.612839,0.69497 0.956805,-0.06 z m 20.44234,-0.0792 c 0.365829,-0.22304 0.665141,-0.45032 0.665141,-0.50504 0,-0.0547 -0.228325,-0.61578 -0.507382,-1.24678 -0.377461,-0.85351 -0.600186,-1.12956 -0.869799,-1.07807 -0.303153,0.0579 -0.372188,0.3282 -0.422184,1.65309 -0.06669,1.7672 0.0194,1.85653 1.134224,1.1768 z m -19.243816,-2.41525 c -0.119182,-1.42159 -0.65828,-3.11275 -0.992266,-3.11275 -0.102483,0 -0.144357,0.20721 -0.09305,0.46048 0.05131,0.25326 0.143936,0.97278 0.205837,1.59893 0.133525,1.35058 0.483064,2.44306 0.781662,2.44306 0.139722,0 0.173767,-0.48374 0.09781,-1.38972 z m 2.469315,0.54466 c 0.03482,-0.1808 -1.004187,-3.44915 -2.308892,-7.26301 -2.570841,-7.51495 -3.114548,-9.31149 -5.629042,-18.59978 -1.716034,-6.33886 -4.075592,-13.6369 -5.39275,-16.67961 -1.105031,-2.55269 -0.229035,-1.31746 1.499409,2.1143 1.750638,3.47582 2.803247,6.66249 4.709749,14.25833 2.76317,11.00892 4.440199,16.52346 6.091022,20.02899 0.472242,1.0028 0.77806,2.00222 0.853837,2.79036 0.06493,0.67537 0.210157,1.22794 0.322721,1.22794 0.11256,0 0.40144,-1.17914 0.641951,-2.62031 0.240516,-1.44117 0.493781,-2.6768 0.562808,-2.74583 0.06903,-0.069 0.125515,-0.0126 0.125515,0.12534 0,0.13796 0.08284,0.19964 0.184094,0.13707 0.42645,-0.26357 0.653668,-2.32529 0.711874,-6.45944 0.06884,-4.8892 0.141226,-5.24226 1.491758,-7.27631 1.047846,-1.57817 1.06532,-2.56158 0.07821,-4.40239 -1.791363,-3.34064 -1.744568,-3.19628 -1.8195,-5.61297 -0.03841,-1.23923 -0.157967,-2.36001 -0.265644,-2.49062 -0.107682,-0.1306 -0.87991,-0.38966 -1.716065,-0.57569 l -1.520284,-0.33823 -0.414143,-1.39062 c -0.227782,-0.76484 -0.414144,-1.71 -0.414144,-2.10035 0,-0.48853 -0.156247,-0.85651 -0.501316,-1.18068 -0.616857,-0.57951 -1.161578,-1.74071 -1.636651,-3.48889 -0.19883,-0.73165 -0.587116,-1.81058 -0.86286,-2.39761 -0.428795,-0.91288 -0.603491,-1.0865 -1.207147,-1.19975 -1.115196,-0.20921 -2.227277,-1.16486 -3.741684,-3.21535 -1.677078,-2.27075 -2.123921,-2.60156 -3.514149,-2.60156 -1.115427,0 -1.574545,-0.18744 -3.487627,-1.42393 -2.220975,-1.43548 -3.505958,-1.32346 -4.667193,0.40689 -0.835151,1.24445 -0.716182,1.21247 -3.416741,0.9183 l -1.443957,-0.15729 -0.546074,0.64897 c -0.669098,0.79518 -1.010546,1.98087 -0.836579,2.90504 0.07173,0.38107 0.693571,1.79178 1.381867,3.13492 l 1.251443,2.44206 0,2.60088 c 0,2.95938 0.09049,3.16958 1.615201,3.75187 1.631271,0.62299 1.693916,1.41268 0.349007,4.39954 -0.439844,0.97683 -0.905167,2.16766 -1.034044,2.64628 -0.305015,1.13274 -0.299724,4.00025 0.0103,5.576 0.241676,1.22841 0.257156,1.24894 1.289345,1.70971 1.14174,0.50968 1.622281,0.9525 1.939757,1.78752 0.175449,0.46147 0.113019,0.6872 -0.407356,1.47283 -0.489657,0.73924 -0.601666,1.10675 -0.551115,1.80819 0.0614,0.85188 0.101527,0.89851 1.240232,1.44117 1.063558,0.50685 1.176781,0.62261 1.176781,1.2032 0,0.51284 -0.248136,0.88977 -1.230321,1.86891 -1.260363,1.25646 -1.643137,2.02121 -1.291049,2.57939 0.472485,0.74904 1.271774,1.10234 2.857488,1.26305 1.709674,0.17327 2.843667,0.55366 5.237032,1.75674 2.220176,1.11603 3.172967,1.82538 4.837967,3.60185 1.639636,1.74943 2.325687,2.20841 3.300949,2.20841 0.756139,0 1.841922,-0.51994 1.841922,-0.88203 0,-0.60953 -2.298402,-7.00234 -3.336425,-9.27998 -1.117268,-2.45151 -1.724869,-4.3122 -2.195125,-6.72227 -0.131781,-0.67537 -0.559218,-2.22365 -0.949863,-3.44063 -0.748056,-2.3304 -1.12864,-4.18657 -0.8888,-4.3348 0.137184,-0.0848 0.73403,1.72176 2.771678,8.38941 0.515986,1.68842 1.222453,3.84938 1.569929,4.80213 0.749907,2.0562 2.181962,5.22 2.306427,5.09554 0.04829,-0.0483 -0.677277,-2.52527 -1.612378,-5.50438 -1.622671,-5.16965 -2.355382,-7.7794 -4.91087,-17.4914 -1.234668,-4.69228 -3.468157,-11.51786 -4.33212,-13.23905 -0.648276,-1.29149 -1.482973,-2.35924 -3.569544,-4.56618 -0.851376,-0.90049 -1.757973,-1.93657 -2.014659,-2.3024 -0.817994,-1.1658 0.01975,-0.78669 1.695903,0.76747 0.849787,0.78793 1.629817,1.4326 1.733399,1.4326 0.525419,0 3.242234,5.10865 4.639665,8.72434 1.31651,3.40631 3.685101,11.78304 6.155557,21.76968 1.157259,4.67813 1.649975,6.1958 3.256719,10.03143 1.597021,3.81241 2.136401,5.52993 2.136401,6.80281 0,0.56633 0.143825,0.92877 0.516426,1.30137 0.557035,0.55703 1.179696,0.58254 1.281771,0.0525 z m -66.5810336,-1.27066 c 0.28615,-0.48828 0.51822,-1.10993 0.51572,-1.38144 l -0.005,-0.49367 -0.39886,0.51165 c -0.4812,0.61729 -1.0736,2.25123 -0.81619,2.25123 0.10098,0 0.41773,-0.3995 0.70388,-0.88777 z m 62.3482306,-4.9818 c -0.345069,-0.65398 -0.413993,-0.70486 -0.42156,-0.31116 -0.01226,0.63931 0.659291,1.9083 0.760374,1.43678 0.04054,-0.1891 -0.111928,-0.69563 -0.338814,-1.12562 z M 109.05974,682.5608 c 0.71922,-0.10109 0.93763,-0.2393 1.20258,-0.76103 0.17806,-0.35062 0.77213,-1.24673 1.32015,-1.99134 1.24726,-1.69467 1.67753,-2.69391 1.50272,-3.4898 -0.1146,-0.5218 -0.16616,-0.56047 -0.37197,-0.27901 -0.21398,0.29265 -0.31283,0.27222 -0.94701,-0.19566 -0.69255,-0.51095 -0.71146,-0.51335 -0.86099,-0.10911 -0.16442,0.44446 -0.47323,0.53953 -0.67773,0.20865 -0.24003,-0.38839 -0.51912,-0.20337 -0.40131,0.26603 0.15794,0.62925 -0.73122,1.17614 -1.23392,0.75894 -0.40555,-0.33657 -0.65417,-0.11058 -0.32056,0.29139 0.4113,0.4956 0.0498,0.80236 -0.51186,0.43435 -0.76239,-0.49955 -0.93214,-0.3801 -0.56223,0.39562 0.35113,0.73632 0.24071,1.18376 -0.18666,0.7564 -0.35951,-0.35951 -0.54484,-0.2939 -0.42833,0.15163 0.0757,0.28943 -0.0708,0.48368 -0.55268,0.73287 -0.63227,0.32696 -0.64123,0.34917 -0.2511,0.62243 0.22251,0.15585 0.61471,0.80114 0.87155,1.43396 0.43059,1.06091 0.50844,1.14071 0.99876,1.0239 0.29247,-0.0697 0.92724,-0.18229 1.41059,-0.25022 z"
       id="path2996"
       inkscape:connector-curvature="0" />
    <text
       xml:space="preserve"
       style="font-size:40.41728592px;font-style:normal;font-variant:normal;font-weight:normal;font-stretch:normal;text-align:start;line-height:125%;letter-spacing:0px;word-spacing:0px;writing-mode:lr-tb;text-anchor:start;fill:#000000;fill-opacity:1;stroke:none;filter:url(#filter3004);font-family:DejaVu Serif;-inkscape-font-specification:DejaVu Serif"
       x="115.9185"
       y="712.71045"
       id="text3000"
       sodipodi:linespacing="125%"><tspan
         sodipodi:role="line"
         id="tspan3002"
         x="115.9185"
         y="712.71045">Miros</tspan></text>
    <flowRoot
       xml:space="preserve"
       id="flowRoot3082"
       style="fill:black;stroke:none;stroke-opacity:1;stroke-width:1px;stroke-linejoin:miter;stroke-linecap:butt;fill-opacity:1;font-family:CMU Bright;font-style:normal;font-weight:normal;font-size:13.99999905000000000px;line-height:125%;letter-spacing:0px;word-spacing:0px;-inkscape-font-specification:CMU Bright;font-stretch:normal;font-variant:normal;text-anchor:start;text-align:start;writing-mode:lr"><flowRegion
         id="flowRegion3084"><rect
           id="rect3086"
           width="483.57144"
           height="317.85715"
           x="-42.857143"
           y="-74.207794" /></flowRegion><flowPara
         id="flowPara3088"></flowPara></flowRoot>  </g>
</svg>
