<?xml version="1.0" encoding="utf-8"?>
<!-- Generator: Adobe Illustrator 15.1.0, SVG Export Plug-In . SVG Version: 6.00 Build 0)  -->
<!DOCTYPE svg PUBLIC "-//W3C//DTD SVG 1.1//EN" "http://www.w3.org/Graphics/SVG/1.1/DTD/svg11.dtd">
<svg version="1.1" id="Layer_1" xmlns="http://www.w3.org/2000/svg" xmlns:xlink="http://www.w3.org/1999/xlink" x="0px" y="0px"
	 width="200px" height="58px" viewBox="0 0 200 58" enable-background="new 0 0 200 58" xml:space="preserve">
<g>
	<g>
		<g>
			<g>
				<path fill-rule="evenodd" clip-rule="evenodd" d="M29.225,4.022c3.593,0.619,5.672,3.234,7.061,5.429
					c1.511,2.393,2.452,5.023,3.171,7.632c1.345,4.892,2.125,11.954,1.745,17.909c-0.221,3.449-0.843,7.244-2.214,10.416
					c-1.319,3.05-3.21,5.363-5.338,7.145c-4.281,3.59-10.131,5.246-16.757,3.733C9.58,54.615,5.132,50.135,3.025,45.324
					c-1.635-3.736-2.271-8.268-0.636-13.845c0.534-1.816,1.232-3.455,1.889-4.883C7.09,20.507,10.911,15.278,14.53,11.5
					c2.839-2.966,6.097-5.85,10.125-7.08C26.083,3.984,27.481,3.726,29.225,4.022z"/>
			</g>
		</g>
		<g>
			<g>
				<path fill-rule="evenodd" clip-rule="evenodd" fill="#FFFFFF" d="M27.871,9.73c2.808,0.484,4.434,2.527,5.519,4.243
					c1.18,1.867,1.915,3.923,2.477,5.96c1.048,3.825,1.662,9.345,1.364,13.996c-0.173,2.696-0.661,5.663-1.732,8.141
					c-1.027,2.385-2.507,4.192-4.167,5.583c-3.35,2.808-7.919,4.102-13.1,2.917c-5.714-1.304-9.189-4.805-10.833-8.564
					c-1.279-2.92-1.777-6.462-0.497-10.82c0.417-1.417,0.963-2.7,1.476-3.814c2.197-4.76,5.181-8.847,8.011-11.799
					c2.218-2.316,4.763-4.57,7.912-5.531C25.418,9.701,26.511,9.496,27.871,9.73z"/>
			</g>
		</g>
		<g>
			<g>
				<path fill-rule="evenodd" clip-rule="evenodd" fill="#231F20" d="M26.767,14.38c2.173,0.373,3.425,1.95,4.262,3.275
					c0.912,1.443,1.48,3.029,1.916,4.605c0.811,2.95,1.281,7.213,1.049,10.806c-0.133,2.083-0.506,4.371-1.335,6.285
					c-0.796,1.841-1.936,3.235-3.219,4.312c-2.585,2.165-6.115,3.167-10.116,2.253c-4.412-1.007-7.095-3.711-8.364-6.614
					c-0.991-2.254-1.374-4.989-0.385-8.355c0.322-1.096,0.743-2.084,1.139-2.947c1.698-3.672,4-6.832,6.185-9.11
					c1.716-1.789,3.681-3.53,6.112-4.271C24.875,14.355,25.714,14.198,26.767,14.38z"/>
			</g>
		</g>
		<g>
			<g>
				<path fill-rule="evenodd" clip-rule="evenodd" fill="#FFFFFF" d="M25.39,20.193c1.369,0.237,2.163,1.229,2.69,2.068
					c0.575,0.909,0.934,1.913,1.205,2.904c0.515,1.866,0.812,4.555,0.666,6.821c-0.085,1.315-0.32,2.758-0.841,3.968
					c-0.504,1.162-1.225,2.041-2.034,2.719c-1.631,1.367-3.859,1.999-6.383,1.422c-2.786-0.636-4.477-2.344-5.281-4.173
					c-0.622-1.424-0.865-3.15-0.239-5.273c0.201-0.691,0.466-1.317,0.718-1.861c1.071-2.317,2.525-4.31,3.905-5.75
					c1.078-1.128,2.321-2.226,3.856-2.695C24.194,20.177,24.726,20.08,25.39,20.193z"/>
			</g>
		</g>
		<circle fill-rule="evenodd" clip-rule="evenodd" fill="#231F20" cx="22.619" cy="31.675" r="4.054"/>
	</g>
	<g>
		<path d="M97.476,25.407c0.378-1.133,0.378-2.266,0.378-3.147c0-3.587-2.455-6.042-6.105-6.042c-4.784,0-8.812,3.399-11.581,7.049
			l-0.125-0.126c0.377-4.28-1.889-6.923-6.356-6.923c-4.91,0-8.749,3.776-11.707,7.301c0-3.65-0.503-6.357-3.966-7.301l-6.468,5.745
			l-12.532,10.75l1.344,1.557l12.275-10.53c0.476-0.298,0.95-0.536,1.229-0.536c1.132,0,1.51,0.818,1.51,1.573
			c0,0.314,0,0.818-0.251,1.511l-6.861,21.021h7.112c1.26-5.413,3.588-15.042,6.672-19.825c1.51-2.329,4.469-6.546,7.741-6.546
			c1.889,0,3.652,0.945,3.652,3.273c0,3.776-6.231,18.377-7.491,23.098h7.491c1.322-5.791,3.146-14.35,6.167-19.384
			c1.7-2.833,4.909-6.987,8.498-6.987c2.328,0,3.146,1.637,3.146,3.65c0,0.692-0.125,1.7-0.377,2.329l-4.972,14.161
			c-0.377,1.133-0.377,2.077-0.377,3.021c0,2.832,1.951,4.091,4.594,4.091c2.958,0,5.413-2.014,7.427-3.965l-0.378-2.643
			c-0.818,0.692-2.454,2.203-3.525,2.203c-0.754,0-1.258-0.755-1.258-1.51c0-0.629,0.188-1.511,0.503-2.581L97.476,25.407z"/>
		<path d="M120.545,6.462c0-2.391-1.887-4.154-4.152-4.154s-4.146,1.763-4.146,4.154c0,2.392,1.881,4.154,4.146,4.154
			S120.545,8.854,120.545,6.462z"/>
		<path d="M116.014,16.218l-11.173,3.839l-0.189,2.14c0.379-0.126,0.819-0.189,1.259-0.189c1.258,0,2.58,0.503,2.58,1.384
			c0,2.896-6.295,16.049-6.295,20.392c0,2.958,2.203,4.406,4.973,4.406c2.889,0,5.578-2.518,7.148-4.217L114,41.519
			c-1.13,1.007-2.566,2.266-3.506,2.266c-0.938,0-1.375-0.755-1.375-1.51c0-4.028,7.273-17.812,7.273-23.098
			C116.393,18.169,116.268,17.162,116.014,16.218z"/>
		<path d="M141.314,16.218c-4.468,0-7.237,6.168-9.188,9.315L132,25.407c0.063-0.944,0.251-1.951,0.251-3.021
			c0-2.58-1.509-4.72-3.46-6.168l-7.806,7.049l0.692,1.825c0.566-0.503,1.826-1.51,2.643-1.51c1.322,0,1.638,0.63,1.638,1.762
			c0,0.252-0.126,0.755-0.378,1.574c-1.322,4.783-6.167,18.252-7.049,20.392h7.616c0.88-5.602,3.083-12.524,5.601-17.245
			c0.881-1.637,3.965-7.238,5.854-7.238c1.259,0,1.636,0.755,2.957,0.755c2.393,0,4.28-1.133,4.28-3.776
			C144.84,17.792,143.393,16.218,141.314,16.218z"/>
		<path d="M161.139,16.218c-9.629,0-17.434,9.818-17.434,19.826c0,6.734,3.775,12.147,10.952,12.147
			c9.628,0,17.435-9.818,17.435-19.825C172.092,21.63,168.313,16.218,161.139,16.218z M155.411,45.799
			c-4.342,0-5.097-3.084-5.097-6.797c0-4.469,2.958-20.392,10.069-20.392c4.344,0,5.097,3.084,5.097,6.797
			C165.48,29.875,162.523,45.799,155.411,45.799z"/>
		<path d="M188.265,18.609c3.211,0,1.134,5.098,5.476,5.098c1.951,0,3.588-1.196,3.588-3.273c0-3.146-4.344-4.217-6.797-4.217
			c-5.539,0-11.455,3.588-11.455,9.693c0,8.433,9.504,8.874,9.504,14.79c0,2.707-2.454,5.098-5.665,5.098
			c-2.454,0-2.644-0.818-2.644-2.077c0-1.511-1.322-4.217-3.902-4.217c-2.076,0-3.461,1.762-3.461,3.776
			c0,4.154,5.286,4.909,8.498,4.909c6.671,0,12.837-2.644,12.837-10.259c0-8.56-10.131-9.252-10.131-15.042
			C184.112,20.875,186.188,18.609,188.265,18.609z"/>
	</g>
</g>
</svg>
