<?xml version="1.0" encoding="utf-8"?>
<!-- Generator: Adobe Illustrator 15.1.0, SVG Export Plug-In . SVG Version: 6.00 Build 0)  -->
<!DOCTYPE svg PUBLIC "-//W3C//DTD SVG 1.1//EN" "http://www.w3.org/Graphics/SVG/1.1/DTD/svg11.dtd">
<svg version="1.1" id="Layer_1" xmlns="http://www.w3.org/2000/svg" xmlns:xlink="http://www.w3.org/1999/xlink" x="0px" y="0px"
	 width="200px" height="47.253px" viewBox="0 0 200 47.253" enable-background="new 0 0 200 47.253" xml:space="preserve">
<g>
	<g>
		<path d="M97.084,18.359c-0.725-1.097-1.717-1.99-2.949-2.656c-1.233-0.665-2.761-1.001-4.541-1.001
			c-2.361,0-4.501,0.717-6.36,2.131c-1.585,1.205-2.787,2.868-3.583,4.955c-0.179-0.721-0.409-1.406-0.686-2.048
			c-0.43-0.994-1.002-1.874-1.704-2.614c-0.708-0.747-1.593-1.344-2.633-1.776c-1.036-0.43-2.268-0.648-3.661-0.648
			c-1.087,0-2.159,0.177-3.189,0.526c-1.027,0.349-1.992,0.871-2.866,1.55c-0.869,0.676-1.66,1.507-2.353,2.469
			c-0.394,0.547-0.741,1.141-1.037,1.778c-0.001-0.008-0.001-0.015-0.001-0.023l-0.112-3.744c-0.021-0.572-0.049-1.049-0.087-1.431
			c-0.018-0.192-0.18-0.338-0.373-0.338h-1.238c-0.105,0-0.206,0.044-0.276,0.123c-0.072,0.078-0.107,0.183-0.096,0.288
			c0.035,0.373,0.073,0.838,0.111,1.396c0.037,0.558,0.064,1.145,0.083,1.759l0.057,1.83c0.019,0.596,0.028,1.098,0.028,1.508
			v19.359c0,0.207,0.168,0.375,0.375,0.375h1.238c0.207,0,0.375-0.168,0.375-0.375V28.808c0-1.94,0.25-3.69,0.742-5.203
			c0.489-1.505,1.168-2.799,2.017-3.847c0.842-1.039,1.841-1.848,2.968-2.404c1.125-0.553,2.348-0.833,3.634-0.833
			c1.455,0,2.664,0.311,3.592,0.923c0.94,0.622,1.687,1.403,2.216,2.322c0.538,0.931,0.912,1.987,1.109,3.14
			c0.203,1.183,0.305,2.297,0.305,3.313v15.532c0,0.207,0.168,0.375,0.375,0.375h1.237c0.207,0,0.375-0.168,0.375-0.375V28.808
			c0-1.938,0.26-3.687,0.769-5.198c0.509-1.508,1.198-2.804,2.045-3.852c0.842-1.04,1.841-1.848,2.971-2.404
			c1.125-0.553,2.348-0.833,3.632-0.833c1.458,0,2.677,0.311,3.623,0.924c0.961,0.624,1.737,1.407,2.306,2.33
			c0.572,0.934,0.982,1.991,1.219,3.142c0.236,1.173,0.357,2.284,0.357,3.302v15.532c0,0.207,0.168,0.375,0.375,0.375h1.238
			c0.207,0,0.375-0.168,0.375-0.375V26.107c0-1.371-0.154-2.743-0.461-4.079C98.318,20.677,97.799,19.443,97.084,18.359z"/>
		<path d="M110.08,15.489h-1.238c-0.207,0-0.375,0.168-0.375,0.375v25.887c0,0.207,0.168,0.375,0.375,0.375h1.238
			c0.207,0,0.375-0.168,0.375-0.375V15.864C110.455,15.657,110.287,15.489,110.08,15.489z"/>
		<path d="M108.295,3.387c-0.334,0.335-0.504,0.765-0.504,1.278c0,0.551,0.17,1,0.504,1.334c0.334,0.334,0.727,0.504,1.166,0.504
			c0.396,0,0.777-0.167,1.129-0.495c0.359-0.335,0.541-0.787,0.541-1.344c0-0.512-0.17-0.942-0.504-1.279
			C109.955,2.719,108.965,2.72,108.295,3.387z"/>
		<path d="M132.041,14.765c-0.215-0.042-0.406-0.063-0.576-0.063h-0.508c-1.984,0-3.857,0.62-5.564,1.843
			c-1.33,0.953-2.389,2.388-3.154,4.279l-0.107-3.565c-0.02-0.572-0.049-1.049-0.086-1.431c-0.02-0.192-0.182-0.338-0.373-0.338
			h-1.238c-0.105,0-0.205,0.044-0.277,0.123c-0.07,0.078-0.105,0.183-0.096,0.288c0.035,0.373,0.074,0.838,0.111,1.396
			s0.064,1.145,0.084,1.759l0.057,1.83c0.018,0.596,0.027,1.098,0.027,1.508v19.359c0,0.207,0.168,0.375,0.375,0.375h1.238
			c0.207,0,0.375-0.168,0.375-0.375V28.358c0-1.394,0.176-2.812,0.523-4.215c0.346-1.4,0.889-2.688,1.613-3.828
			c0.717-1.129,1.643-2.056,2.754-2.754c1.096-0.69,2.447-1.04,4.02-1.04h0.311c0.098,0,0.209,0.015,0.332,0.045
			c0.109,0.027,0.23,0.002,0.32-0.069c0.092-0.071,0.145-0.18,0.145-0.295v-1.069C132.346,14.953,132.219,14.799,132.041,14.765z"/>
		<path d="M157.672,18.638c-1.232-1.231-2.723-2.206-4.43-2.896c-1.707-0.69-3.6-1.04-5.627-1.04c-2.029,0-3.912,0.35-5.602,1.041
			c-1.688,0.69-3.168,1.665-4.4,2.896c-1.23,1.232-2.197,2.724-2.869,4.433c-0.67,1.706-1.01,3.617-1.01,5.68s0.34,3.983,1.01,5.708
			c0.672,1.729,1.637,3.24,2.867,4.489c1.232,1.25,2.713,2.235,4.402,2.926s3.574,1.041,5.602,1.041s3.92-0.35,5.627-1.041
			c1.709-0.691,3.199-1.676,4.432-2.926c1.23-1.249,2.195-2.759,2.869-4.489c0.67-1.724,1.01-3.645,1.01-5.708
			s-0.34-3.974-1.012-5.68C159.869,21.362,158.902,19.871,157.672,18.638z M147.615,41.095c-1.852,0-3.523-0.33-4.967-0.98
			c-1.449-0.652-2.705-1.541-3.734-2.644c-1.031-1.103-1.828-2.414-2.371-3.896c-0.545-1.489-0.82-3.112-0.82-4.824
			c0-1.673,0.275-3.277,0.82-4.767c0.543-1.483,1.34-2.793,2.371-3.896c1.029-1.102,2.283-1.981,3.73-2.613
			c1.445-0.633,3.117-0.954,4.971-0.954c1.852,0,3.535,0.321,5,0.954c1.465,0.633,2.729,1.512,3.758,2.613
			c1.029,1.103,1.828,2.414,2.369,3.896c0.547,1.492,0.822,3.096,0.822,4.767c0,1.709-0.275,3.333-0.822,4.824
			c-0.541,1.483-1.338,2.794-2.369,3.896c-1.029,1.102-2.295,1.991-3.762,2.643C151.146,40.765,149.467,41.095,147.615,41.095z"/>
		<path d="M183.652,31.891c-0.459-0.833-1.084-1.538-1.855-2.093c-0.754-0.542-1.637-1.002-2.621-1.37
			c-0.965-0.359-1.971-0.675-2.996-0.942c-1.068-0.256-2.064-0.529-2.961-0.809c-0.865-0.271-1.609-0.606-2.215-0.998
			c-0.58-0.375-1.039-0.877-1.363-1.492c-0.326-0.617-0.49-1.467-0.49-2.526c0-0.939,0.199-1.745,0.594-2.395
			c0.398-0.661,0.908-1.198,1.516-1.597c0.617-0.405,1.307-0.7,2.049-0.877c0.754-0.18,1.482-0.271,2.164-0.271
			c1.471,0,2.738,0.261,3.77,0.776c1.033,0.516,1.975,1.323,2.797,2.397c0.115,0.15,0.324,0.189,0.486,0.097l1.068-0.619
			c0.092-0.053,0.156-0.141,0.18-0.244c0.021-0.103,0-0.21-0.061-0.296c-1.83-2.608-4.602-3.93-8.24-3.93
			c-1.008,0-2.02,0.147-3.004,0.437c-0.994,0.292-1.895,0.728-2.676,1.294c-0.791,0.574-1.434,1.307-1.91,2.178
			c-0.479,0.878-0.721,1.923-0.721,3.106c0,1.178,0.191,2.179,0.57,2.974c0.377,0.796,0.904,1.474,1.564,2.015
			c0.648,0.531,1.412,0.968,2.27,1.298c0.834,0.323,1.734,0.621,2.686,0.885c0.859,0.225,1.785,0.478,2.777,0.758
			c0.965,0.273,1.855,0.632,2.652,1.066c0.771,0.422,1.422,0.991,1.93,1.691c0.494,0.683,0.744,1.594,0.744,2.707
			c0,0.944-0.201,1.792-0.6,2.521c-0.404,0.737-0.938,1.36-1.586,1.851c-0.658,0.498-1.395,0.875-2.193,1.123
			c-0.803,0.25-1.607,0.377-2.393,0.377c-3.383,0-6.006-1.272-7.797-3.782c-0.117-0.166-0.348-0.205-0.514-0.094l-1.014,0.676
			c-0.084,0.056-0.143,0.144-0.162,0.244c-0.018,0.1,0.006,0.203,0.064,0.285c1.047,1.472,2.393,2.602,4.002,3.358
			c1.6,0.751,3.404,1.133,5.363,1.133c1.197,0,2.336-0.177,3.385-0.525c1.053-0.352,1.992-0.867,2.793-1.531
			c0.807-0.669,1.455-1.497,1.926-2.459c0.473-0.966,0.713-2.072,0.713-3.288C184.344,33.778,184.111,32.733,183.652,31.891z"/>
	</g>
	<g>
		<g>
			<path fill-rule="evenodd" clip-rule="evenodd" fill="none" stroke="#000000" stroke-width="1.4" stroke-miterlimit="10" d="
				M50.422,24.256c-0.584,3.969-2.066,7.257-3.988,9.999c-3.869,5.525-10.174,9.285-18.369,9.592
				c-9.051,0.339-15.635-3.495-19.593-8.445c-2.508-3.132-4.26-7.09-4.785-12.243"/>
		</g>
	</g>
	
		<ellipse fill-rule="evenodd" clip-rule="evenodd" fill="none" stroke="#000000" stroke-width="1.4" stroke-miterlimit="10" cx="27.16" cy="23.139" rx="23.473" ry="6.748"/>
	<path fill-rule="evenodd" clip-rule="evenodd" fill="none" stroke="#000000" stroke-width="1.4" stroke-miterlimit="10" d="
		M45.889,22.717c0,2.323-8.381,4.205-18.729,4.205c-10.347,0-18.732-1.882-18.732-4.205c0-2.323,8.385-4.206,18.732-4.206
		C37.508,18.511,45.889,20.394,45.889,22.717z"/>
	
		<ellipse fill-rule="evenodd" clip-rule="evenodd" fill="none" stroke="#000000" stroke-width="1.4" stroke-miterlimit="10" cx="27.167" cy="22.61" rx="13.748" ry="1.863"/>
	<g>
		<defs>
			<path id="SVGID_1_" d="M40.567,21.924c1.404-1.225,1.184-3.54-0.62-4.445c0.675-1.342,0.15-3.12-1.541-3.762
				c0.396-1.078,0.066-2.359-0.957-3.117C38.071,9.641,38,8.375,37.284,7.466c0.792-0.841,0.924-2.073,0.432-3.062
				c0.85-1.657-0.118-4.041-2.916-4.054C29.375,0.325,23.967,0.025,18.541,0c-2.466-0.012-3.511,1.828-3.15,3.406
				c-1.202,0.839-1.485,2.398-0.812,3.565c-1.26,1.101-1.223,3.112,0.125,4.162c-0.928,0.811-1.026,2.054-0.486,3.073
				c-1.084,0.91-1.271,2.46-0.523,3.574c-1.389,1.02-1.137,2.967,0.195,4.072c-0.297,0.12-0.471,0.246-0.471,0.376
				c0,0.811,6.156,1.468,13.748,1.468c7.595,0,13.748-0.657,13.748-1.468C40.915,22.124,40.769,22.023,40.567,21.924z"/>
		</defs>
		<clipPath id="SVGID_2_">
			<use xlink:href="#SVGID_1_"  overflow="visible"/>
		</clipPath>
		<g clip-path="url(#SVGID_2_)">
			<g>
				<g>
					<path fill-rule="evenodd" clip-rule="evenodd" fill="#FFFFFF" d="M26.887,17.848c1.266-0.117,2.203,0.577,2.869,1.192
						c0.726,0.668,1.279,1.47,1.76,2.285c0.896,1.527,1.798,3.838,2.207,5.878c0.237,1.184,0.37,2.519,0.195,3.712
						c-0.167,1.147-0.597,2.098-1.156,2.891c-1.116,1.597-2.939,2.684-5.31,2.773c-2.611,0.098-4.52-1.011-5.663-2.441
						c-0.891-1.111-1.511-2.581-1.466-4.609c0.015-0.66,0.102-1.276,0.196-1.817c0.396-2.306,1.211-4.413,2.091-6.015
						c0.687-1.256,1.527-2.523,2.773-3.301C25.823,18.119,26.271,17.904,26.887,17.848z"/>
					<path d="M27.132,37.286c-2.402,0-4.494-0.963-5.891-2.711c-1.118-1.396-1.664-3.099-1.62-5.063
						c0.018-0.763,0.126-1.462,0.206-1.922c0.369-2.146,1.139-4.36,2.168-6.232c0.647-1.183,1.575-2.658,3.017-3.558
						c0.446-0.28,1.012-0.577,1.811-0.651c1.571-0.146,2.711,0.73,3.41,1.375c0.676,0.623,1.258,1.376,1.888,2.444
						c0.987,1.683,1.886,4.075,2.291,6.097c0.299,1.493,0.366,2.822,0.202,3.951c-0.169,1.158-0.599,2.232-1.277,3.194
						c-1.318,1.886-3.399,2.977-5.857,3.07C27.361,37.284,27.246,37.286,27.132,37.286z M27.167,18.537
						c-0.07,0-0.142,0.003-0.215,0.01c-0.476,0.044-0.822,0.208-1.195,0.443c-1.16,0.724-1.93,1.944-2.531,3.043
						c-0.957,1.741-1.672,3.799-2.016,5.796c-0.079,0.452-0.17,1.054-0.186,1.714c-0.037,1.647,0.393,3.006,1.312,4.154
						c0.676,0.846,2.287,2.291,5.088,2.179c2.008-0.076,3.699-0.954,4.761-2.474c0.552-0.782,0.9-1.652,1.037-2.59
						c0.14-0.956,0.074-2.156-0.189-3.473c-0.371-1.853-1.224-4.127-2.124-5.66c-0.556-0.943-1.059-1.598-1.63-2.124
						C28.766,19.081,28.062,18.537,27.167,18.537z"/>
				</g>
			</g>
		</g>
		<g clip-path="url(#SVGID_2_)">
			<path fill-rule="evenodd" clip-rule="evenodd" fill="#FFFFFF" d="M35.377,21.72c-0.649-2.014-2.298-3.597-2.634-6.344
				c-0.229-1.874,0.39-4,0-5.737c-1.156-5.138-9.778-5.326-10.979,0c-0.418,1.854,0.263,4.079,0,5.986
				c-0.363,2.653-2.618,4.989-2.993,7.235C17.124,35.999,36.991,35.64,35.85,23.727C35.799,23.242,35.537,22.197,35.377,21.72z
				 M30.079,11.628c-0.377,3.115-5.198,3.105-5.67,0.157c-0.333-2.101,0.674-2.989,2.206-3.306
				C28.584,8.071,30.359,9.294,30.079,11.628z"/>
			<path d="M27.262,33.389C27.261,33.389,27.261,33.389,27.262,33.389c-2.863,0-5.478-1.103-7.174-3.025
				c-1.697-1.923-2.392-4.548-2.01-7.591c0.2-1.201,0.813-2.317,1.463-3.499c0.667-1.212,1.355-2.466,1.531-3.744
				c0.111-0.805,0.036-1.689-0.043-2.625c-0.096-1.139-0.195-2.317,0.054-3.42c0.612-2.715,3.015-4.47,6.123-4.47
				c2.596,0,5.526,1.383,6.222,4.471c0.234,1.045,0.144,2.178,0.056,3.273c-0.069,0.857-0.14,1.745-0.044,2.533
				c0.189,1.547,0.846,2.717,1.481,3.849c0.419,0.747,0.852,1.519,1.125,2.365c0.16,0.476,0.444,1.583,0.503,2.149
				c0.254,2.655-0.456,4.984-2.054,6.742C32.764,32.298,30.128,33.389,27.262,33.389z M27.204,6.414
				c-1.843,0-4.195,0.885-4.757,3.378c-0.201,0.893-0.115,1.914-0.024,2.995c0.082,0.971,0.167,1.975,0.035,2.934
				c-0.21,1.535-0.963,2.904-1.691,4.228c-0.59,1.074-1.148,2.089-1.305,3.026c-0.326,2.604,0.252,4.849,1.675,6.462
				c1.431,1.622,3.663,2.552,6.124,2.552c2.473,0,4.731-0.923,6.195-2.534c1.325-1.458,1.912-3.416,1.697-5.661
				c-0.042-0.4-0.283-1.385-0.439-1.851c-0.232-0.721-0.613-1.399-1.016-2.118c-0.669-1.192-1.427-2.543-1.649-4.364
				c-0.114-0.93-0.037-1.888,0.038-2.815c0.083-1.037,0.162-2.016-0.026-2.854C31.535,7.458,29.243,6.414,27.204,6.414z
				 M27.231,14.681c-1.806,0-3.251-1.145-3.515-2.784c-0.355-2.238,0.598-3.656,2.755-4.103c1.365-0.282,2.692,0.105,3.504,1.021
				c0.46,0.519,0.973,1.443,0.797,2.897C30.527,13.752,28.764,14.681,27.231,14.681z M27.355,9.102c-0.196,0-0.397,0.021-0.6,0.063
				c-1.413,0.292-1.893,1.02-1.656,2.511c0.178,1.108,1.199,1.605,2.132,1.605c0.896,0,1.997-0.455,2.152-1.736
				c0.089-0.742-0.068-1.364-0.455-1.8C28.562,9.33,28.003,9.102,27.355,9.102z"/>
		</g>
		<g clip-path="url(#SVGID_2_)">
			<path fill-rule="evenodd" clip-rule="evenodd" fill="#FFFFFF" d="M22.178,15.695c2.457,0.527,4.986,3.211,4.986,3.211
				s1.5-1.909,5.563-3.818"/>
			<path d="M27.213,19.977l-0.558-0.59c-0.024-0.025-2.413-2.533-4.624-3.007l0.294-1.369c1.967,0.422,3.911,2.047,4.82,2.896
				c0.766-0.741,2.411-2.102,5.285-3.452l0.595,1.268c-3.869,1.817-5.297,3.599-5.311,3.617L27.213,19.977z"/>
		</g>
	</g>
	<path fill-rule="evenodd" clip-rule="evenodd" fill="none" stroke="#000000" stroke-width="1.4" stroke-miterlimit="10" d="
		M8.428,22.717c0,0-0.381,0.63,0.794,4.775"/>
	
		<line fill-rule="evenodd" clip-rule="evenodd" fill="none" stroke="#000000" stroke-width="1.4" stroke-miterlimit="10" x1="13.412" y1="22.574" x2="13.924" y2="25.431"/>
	
		<line fill-rule="evenodd" clip-rule="evenodd" fill="none" stroke="#000000" stroke-width="1.4" stroke-miterlimit="10" x1="40.943" y1="22.717" x2="40.43" y2="25.574"/>
	<path fill-rule="evenodd" clip-rule="evenodd" fill="none" stroke="#000000" stroke-width="1.4" stroke-miterlimit="10" d="
		M45.792,22.717c0,0,0.381,0.63-0.795,4.775"/>
</g>
</svg>
