<?xml version="1.0" encoding="utf-8" standalone="no"?>
<!DOCTYPE svg PUBLIC "-//W3C//DTD SVG 1.1//EN"
  "http://www.w3.org/Graphics/SVG/1.1/DTD/svg11.dtd">
<!-- Created with matplotlib (https://matplotlib.org/) -->
<svg height="345.6pt" version="1.1" viewBox="0 0 460.8 345.6" width="460.8pt" xmlns="http://www.w3.org/2000/svg" xmlns:xlink="http://www.w3.org/1999/xlink">
 <defs>
  <style type="text/css">
*{stroke-linecap:butt;stroke-linejoin:round;}
  </style>
 </defs>
 <g id="figure_1">
  <g id="patch_1">
   <path d="M 0 345.6 
L 460.8 345.6 
L 460.8 0 
L 0 0 
z
" style="fill:#ffffff;"/>
  </g>
  <g id="axes_1">
   <g id="patch_2">
    <path d="M 57.6 162.432 
L 414.72 162.432 
L 414.72 41.472 
L 57.6 41.472 
z
" style="fill:#ffffff;"/>
   </g>
   <g id="matplotlib.axis_1">
    <g id="xtick_1">
     <g id="line2d_1">
      <defs>
       <path d="M 0 0 
L 0 3.5 
" id="m135a324553" style="stroke:#000000;stroke-width:0.8;"/>
      </defs>
      <g>
       <use style="stroke:#000000;stroke-width:0.8;" x="73.832727" xlink:href="#m135a324553" y="162.432"/>
      </g>
     </g>
     <g id="text_1">
      <!-- 0 -->
      <defs>
       <path d="M 31.78125 66.40625 
Q 24.171875 66.40625 20.328125 58.90625 
Q 16.5 51.421875 16.5 36.375 
Q 16.5 21.390625 20.328125 13.890625 
Q 24.171875 6.390625 31.78125 6.390625 
Q 39.453125 6.390625 43.28125 13.890625 
Q 47.125 21.390625 47.125 36.375 
Q 47.125 51.421875 43.28125 58.90625 
Q 39.453125 66.40625 31.78125 66.40625 
z
M 31.78125 74.21875 
Q 44.046875 74.21875 50.515625 64.515625 
Q 56.984375 54.828125 56.984375 36.375 
Q 56.984375 17.96875 50.515625 8.265625 
Q 44.046875 -1.421875 31.78125 -1.421875 
Q 19.53125 -1.421875 13.0625 8.265625 
Q 6.59375 17.96875 6.59375 36.375 
Q 6.59375 54.828125 13.0625 64.515625 
Q 19.53125 74.21875 31.78125 74.21875 
z
" id="DejaVuSans-48"/>
      </defs>
      <g transform="translate(70.651477 177.030437)scale(0.1 -0.1)">
       <use xlink:href="#DejaVuSans-48"/>
      </g>
     </g>
    </g>
    <g id="xtick_2">
     <g id="line2d_2">
      <g>
       <use style="stroke:#000000;stroke-width:0.8;" x="127.941818" xlink:href="#m135a324553" y="162.432"/>
      </g>
     </g>
     <g id="text_2">
      <!-- 20 -->
      <defs>
       <path d="M 19.1875 8.296875 
L 53.609375 8.296875 
L 53.609375 0 
L 7.328125 0 
L 7.328125 8.296875 
Q 12.9375 14.109375 22.625 23.890625 
Q 32.328125 33.6875 34.8125 36.53125 
Q 39.546875 41.84375 41.421875 45.53125 
Q 43.3125 49.21875 43.3125 52.78125 
Q 43.3125 58.59375 39.234375 62.25 
Q 35.15625 65.921875 28.609375 65.921875 
Q 23.96875 65.921875 18.8125 64.3125 
Q 13.671875 62.703125 7.8125 59.421875 
L 7.8125 69.390625 
Q 13.765625 71.78125 18.9375 73 
Q 24.125 74.21875 28.421875 74.21875 
Q 39.75 74.21875 46.484375 68.546875 
Q 53.21875 62.890625 53.21875 53.421875 
Q 53.21875 48.921875 51.53125 44.890625 
Q 49.859375 40.875 45.40625 35.40625 
Q 44.1875 33.984375 37.640625 27.21875 
Q 31.109375 20.453125 19.1875 8.296875 
z
" id="DejaVuSans-50"/>
      </defs>
      <g transform="translate(121.579318 177.030437)scale(0.1 -0.1)">
       <use xlink:href="#DejaVuSans-50"/>
       <use x="63.623047" xlink:href="#DejaVuSans-48"/>
      </g>
     </g>
    </g>
    <g id="xtick_3">
     <g id="line2d_3">
      <g>
       <use style="stroke:#000000;stroke-width:0.8;" x="182.050909" xlink:href="#m135a324553" y="162.432"/>
      </g>
     </g>
     <g id="text_3">
      <!-- 40 -->
      <defs>
       <path d="M 37.796875 64.3125 
L 12.890625 25.390625 
L 37.796875 25.390625 
z
M 35.203125 72.90625 
L 47.609375 72.90625 
L 47.609375 25.390625 
L 58.015625 25.390625 
L 58.015625 17.1875 
L 47.609375 17.1875 
L 47.609375 0 
L 37.796875 0 
L 37.796875 17.1875 
L 4.890625 17.1875 
L 4.890625 26.703125 
z
" id="DejaVuSans-52"/>
      </defs>
      <g transform="translate(175.688409 177.030437)scale(0.1 -0.1)">
       <use xlink:href="#DejaVuSans-52"/>
       <use x="63.623047" xlink:href="#DejaVuSans-48"/>
      </g>
     </g>
    </g>
    <g id="xtick_4">
     <g id="line2d_4">
      <g>
       <use style="stroke:#000000;stroke-width:0.8;" x="236.16" xlink:href="#m135a324553" y="162.432"/>
      </g>
     </g>
     <g id="text_4">
      <!-- 60 -->
      <defs>
       <path d="M 33.015625 40.375 
Q 26.375 40.375 22.484375 35.828125 
Q 18.609375 31.296875 18.609375 23.390625 
Q 18.609375 15.53125 22.484375 10.953125 
Q 26.375 6.390625 33.015625 6.390625 
Q 39.65625 6.390625 43.53125 10.953125 
Q 47.40625 15.53125 47.40625 23.390625 
Q 47.40625 31.296875 43.53125 35.828125 
Q 39.65625 40.375 33.015625 40.375 
z
M 52.59375 71.296875 
L 52.59375 62.3125 
Q 48.875 64.0625 45.09375 64.984375 
Q 41.3125 65.921875 37.59375 65.921875 
Q 27.828125 65.921875 22.671875 59.328125 
Q 17.53125 52.734375 16.796875 39.40625 
Q 19.671875 43.65625 24.015625 45.921875 
Q 28.375 48.1875 33.59375 48.1875 
Q 44.578125 48.1875 50.953125 41.515625 
Q 57.328125 34.859375 57.328125 23.390625 
Q 57.328125 12.15625 50.6875 5.359375 
Q 44.046875 -1.421875 33.015625 -1.421875 
Q 20.359375 -1.421875 13.671875 8.265625 
Q 6.984375 17.96875 6.984375 36.375 
Q 6.984375 53.65625 15.1875 63.9375 
Q 23.390625 74.21875 37.203125 74.21875 
Q 40.921875 74.21875 44.703125 73.484375 
Q 48.484375 72.75 52.59375 71.296875 
z
" id="DejaVuSans-54"/>
      </defs>
      <g transform="translate(229.7975 177.030437)scale(0.1 -0.1)">
       <use xlink:href="#DejaVuSans-54"/>
       <use x="63.623047" xlink:href="#DejaVuSans-48"/>
      </g>
     </g>
    </g>
    <g id="xtick_5">
     <g id="line2d_5">
      <g>
       <use style="stroke:#000000;stroke-width:0.8;" x="290.269091" xlink:href="#m135a324553" y="162.432"/>
      </g>
     </g>
     <g id="text_5">
      <!-- 80 -->
      <defs>
       <path d="M 31.78125 34.625 
Q 24.75 34.625 20.71875 30.859375 
Q 16.703125 27.09375 16.703125 20.515625 
Q 16.703125 13.921875 20.71875 10.15625 
Q 24.75 6.390625 31.78125 6.390625 
Q 38.8125 6.390625 42.859375 10.171875 
Q 46.921875 13.96875 46.921875 20.515625 
Q 46.921875 27.09375 42.890625 30.859375 
Q 38.875 34.625 31.78125 34.625 
z
M 21.921875 38.8125 
Q 15.578125 40.375 12.03125 44.71875 
Q 8.5 49.078125 8.5 55.328125 
Q 8.5 64.0625 14.71875 69.140625 
Q 20.953125 74.21875 31.78125 74.21875 
Q 42.671875 74.21875 48.875 69.140625 
Q 55.078125 64.0625 55.078125 55.328125 
Q 55.078125 49.078125 51.53125 44.71875 
Q 48 40.375 41.703125 38.8125 
Q 48.828125 37.15625 52.796875 32.3125 
Q 56.78125 27.484375 56.78125 20.515625 
Q 56.78125 9.90625 50.3125 4.234375 
Q 43.84375 -1.421875 31.78125 -1.421875 
Q 19.734375 -1.421875 13.25 4.234375 
Q 6.78125 9.90625 6.78125 20.515625 
Q 6.78125 27.484375 10.78125 32.3125 
Q 14.796875 37.15625 21.921875 38.8125 
z
M 18.3125 54.390625 
Q 18.3125 48.734375 21.84375 45.5625 
Q 25.390625 42.390625 31.78125 42.390625 
Q 38.140625 42.390625 41.71875 45.5625 
Q 45.3125 48.734375 45.3125 54.390625 
Q 45.3125 60.0625 41.71875 63.234375 
Q 38.140625 66.40625 31.78125 66.40625 
Q 25.390625 66.40625 21.84375 63.234375 
Q 18.3125 60.0625 18.3125 54.390625 
z
" id="DejaVuSans-56"/>
      </defs>
      <g transform="translate(283.906591 177.030437)scale(0.1 -0.1)">
       <use xlink:href="#DejaVuSans-56"/>
       <use x="63.623047" xlink:href="#DejaVuSans-48"/>
      </g>
     </g>
    </g>
    <g id="xtick_6">
     <g id="line2d_6">
      <g>
       <use style="stroke:#000000;stroke-width:0.8;" x="344.378182" xlink:href="#m135a324553" y="162.432"/>
      </g>
     </g>
     <g id="text_6">
      <!-- 100 -->
      <defs>
       <path d="M 12.40625 8.296875 
L 28.515625 8.296875 
L 28.515625 63.921875 
L 10.984375 60.40625 
L 10.984375 69.390625 
L 28.421875 72.90625 
L 38.28125 72.90625 
L 38.28125 8.296875 
L 54.390625 8.296875 
L 54.390625 0 
L 12.40625 0 
z
" id="DejaVuSans-49"/>
      </defs>
      <g transform="translate(334.834432 177.030437)scale(0.1 -0.1)">
       <use xlink:href="#DejaVuSans-49"/>
       <use x="63.623047" xlink:href="#DejaVuSans-48"/>
       <use x="127.246094" xlink:href="#DejaVuSans-48"/>
      </g>
     </g>
    </g>
    <g id="xtick_7">
     <g id="line2d_7">
      <g>
       <use style="stroke:#000000;stroke-width:0.8;" x="398.487273" xlink:href="#m135a324553" y="162.432"/>
      </g>
     </g>
     <g id="text_7">
      <!-- 120 -->
      <g transform="translate(388.943523 177.030437)scale(0.1 -0.1)">
       <use xlink:href="#DejaVuSans-49"/>
       <use x="63.623047" xlink:href="#DejaVuSans-50"/>
       <use x="127.246094" xlink:href="#DejaVuSans-48"/>
      </g>
     </g>
    </g>
   </g>
   <g id="matplotlib.axis_2">
    <g id="ytick_1">
     <g id="line2d_8">
      <defs>
       <path d="M 0 0 
L -3.5 0 
" id="m22a0ce8b15" style="stroke:#000000;stroke-width:0.8;"/>
      </defs>
      <g>
       <use style="stroke:#000000;stroke-width:0.8;" x="57.6" xlink:href="#m22a0ce8b15" y="156.933818"/>
      </g>
     </g>
     <g id="text_8">
      <!-- 0 -->
      <g transform="translate(44.2375 160.733037)scale(0.1 -0.1)">
       <use xlink:href="#DejaVuSans-48"/>
      </g>
     </g>
    </g>
    <g id="ytick_2">
     <g id="line2d_9">
      <g>
       <use style="stroke:#000000;stroke-width:0.8;" x="57.6" xlink:href="#m22a0ce8b15" y="130.500252"/>
      </g>
     </g>
     <g id="text_9">
      <!-- 5 -->
      <defs>
       <path d="M 10.796875 72.90625 
L 49.515625 72.90625 
L 49.515625 64.59375 
L 19.828125 64.59375 
L 19.828125 46.734375 
Q 21.96875 47.46875 24.109375 47.828125 
Q 26.265625 48.1875 28.421875 48.1875 
Q 40.625 48.1875 47.75 41.5 
Q 54.890625 34.8125 54.890625 23.390625 
Q 54.890625 11.625 47.5625 5.09375 
Q 40.234375 -1.421875 26.90625 -1.421875 
Q 22.3125 -1.421875 17.546875 -0.640625 
Q 12.796875 0.140625 7.71875 1.703125 
L 7.71875 11.625 
Q 12.109375 9.234375 16.796875 8.0625 
Q 21.484375 6.890625 26.703125 6.890625 
Q 35.15625 6.890625 40.078125 11.328125 
Q 45.015625 15.765625 45.015625 23.390625 
Q 45.015625 31 40.078125 35.4375 
Q 35.15625 39.890625 26.703125 39.890625 
Q 22.75 39.890625 18.8125 39.015625 
Q 14.890625 38.140625 10.796875 36.28125 
z
" id="DejaVuSans-53"/>
      </defs>
      <g transform="translate(44.2375 134.29947)scale(0.1 -0.1)">
       <use xlink:href="#DejaVuSans-53"/>
      </g>
     </g>
    </g>
    <g id="ytick_3">
     <g id="line2d_10">
      <g>
       <use style="stroke:#000000;stroke-width:0.8;" x="57.6" xlink:href="#m22a0ce8b15" y="104.066685"/>
      </g>
     </g>
     <g id="text_10">
      <!-- 10 -->
      <g transform="translate(37.875 107.865904)scale(0.1 -0.1)">
       <use xlink:href="#DejaVuSans-49"/>
       <use x="63.623047" xlink:href="#DejaVuSans-48"/>
      </g>
     </g>
    </g>
    <g id="ytick_4">
     <g id="line2d_11">
      <g>
       <use style="stroke:#000000;stroke-width:0.8;" x="57.6" xlink:href="#m22a0ce8b15" y="77.633119"/>
      </g>
     </g>
     <g id="text_11">
      <!-- 15 -->
      <g transform="translate(37.875 81.432338)scale(0.1 -0.1)">
       <use xlink:href="#DejaVuSans-49"/>
       <use x="63.623047" xlink:href="#DejaVuSans-53"/>
      </g>
     </g>
    </g>
    <g id="ytick_5">
     <g id="line2d_12">
      <g>
       <use style="stroke:#000000;stroke-width:0.8;" x="57.6" xlink:href="#m22a0ce8b15" y="51.199552"/>
      </g>
     </g>
     <g id="text_12">
      <!-- 20 -->
      <g transform="translate(37.875 54.998771)scale(0.1 -0.1)">
       <use xlink:href="#DejaVuSans-50"/>
       <use x="63.623047" xlink:href="#DejaVuSans-48"/>
      </g>
     </g>
    </g>
    <g id="text_13">
     <!-- open_circuit_voltage csv -->
     <defs>
      <path d="M 30.609375 48.390625 
Q 23.390625 48.390625 19.1875 42.75 
Q 14.984375 37.109375 14.984375 27.296875 
Q 14.984375 17.484375 19.15625 11.84375 
Q 23.34375 6.203125 30.609375 6.203125 
Q 37.796875 6.203125 41.984375 11.859375 
Q 46.1875 17.53125 46.1875 27.296875 
Q 46.1875 37.015625 41.984375 42.703125 
Q 37.796875 48.390625 30.609375 48.390625 
z
M 30.609375 56 
Q 42.328125 56 49.015625 48.375 
Q 55.71875 40.765625 55.71875 27.296875 
Q 55.71875 13.875 49.015625 6.21875 
Q 42.328125 -1.421875 30.609375 -1.421875 
Q 18.84375 -1.421875 12.171875 6.21875 
Q 5.515625 13.875 5.515625 27.296875 
Q 5.515625 40.765625 12.171875 48.375 
Q 18.84375 56 30.609375 56 
z
" id="DejaVuSans-111"/>
      <path d="M 18.109375 8.203125 
L 18.109375 -20.796875 
L 9.078125 -20.796875 
L 9.078125 54.6875 
L 18.109375 54.6875 
L 18.109375 46.390625 
Q 20.953125 51.265625 25.265625 53.625 
Q 29.59375 56 35.59375 56 
Q 45.5625 56 51.78125 48.09375 
Q 58.015625 40.1875 58.015625 27.296875 
Q 58.015625 14.40625 51.78125 6.484375 
Q 45.5625 -1.421875 35.59375 -1.421875 
Q 29.59375 -1.421875 25.265625 0.953125 
Q 20.953125 3.328125 18.109375 8.203125 
z
M 48.6875 27.296875 
Q 48.6875 37.203125 44.609375 42.84375 
Q 40.53125 48.484375 33.40625 48.484375 
Q 26.265625 48.484375 22.1875 42.84375 
Q 18.109375 37.203125 18.109375 27.296875 
Q 18.109375 17.390625 22.1875 11.75 
Q 26.265625 6.109375 33.40625 6.109375 
Q 40.53125 6.109375 44.609375 11.75 
Q 48.6875 17.390625 48.6875 27.296875 
z
" id="DejaVuSans-112"/>
      <path d="M 56.203125 29.59375 
L 56.203125 25.203125 
L 14.890625 25.203125 
Q 15.484375 15.921875 20.484375 11.0625 
Q 25.484375 6.203125 34.421875 6.203125 
Q 39.59375 6.203125 44.453125 7.46875 
Q 49.3125 8.734375 54.109375 11.28125 
L 54.109375 2.78125 
Q 49.265625 0.734375 44.1875 -0.34375 
Q 39.109375 -1.421875 33.890625 -1.421875 
Q 20.796875 -1.421875 13.15625 6.1875 
Q 5.515625 13.8125 5.515625 26.8125 
Q 5.515625 40.234375 12.765625 48.109375 
Q 20.015625 56 32.328125 56 
Q 43.359375 56 49.78125 48.890625 
Q 56.203125 41.796875 56.203125 29.59375 
z
M 47.21875 32.234375 
Q 47.125 39.59375 43.09375 43.984375 
Q 39.0625 48.390625 32.421875 48.390625 
Q 24.90625 48.390625 20.390625 44.140625 
Q 15.875 39.890625 15.1875 32.171875 
z
" id="DejaVuSans-101"/>
      <path d="M 54.890625 33.015625 
L 54.890625 0 
L 45.90625 0 
L 45.90625 32.71875 
Q 45.90625 40.484375 42.875 44.328125 
Q 39.84375 48.1875 33.796875 48.1875 
Q 26.515625 48.1875 22.3125 43.546875 
Q 18.109375 38.921875 18.109375 30.90625 
L 18.109375 0 
L 9.078125 0 
L 9.078125 54.6875 
L 18.109375 54.6875 
L 18.109375 46.1875 
Q 21.34375 51.125 25.703125 53.5625 
Q 30.078125 56 35.796875 56 
Q 45.21875 56 50.046875 50.171875 
Q 54.890625 44.34375 54.890625 33.015625 
z
" id="DejaVuSans-110"/>
      <path d="M 50.984375 -16.609375 
L 50.984375 -23.578125 
L -0.984375 -23.578125 
L -0.984375 -16.609375 
z
" id="DejaVuSans-95"/>
      <path d="M 48.78125 52.59375 
L 48.78125 44.1875 
Q 44.96875 46.296875 41.140625 47.34375 
Q 37.3125 48.390625 33.40625 48.390625 
Q 24.65625 48.390625 19.8125 42.84375 
Q 14.984375 37.3125 14.984375 27.296875 
Q 14.984375 17.28125 19.8125 11.734375 
Q 24.65625 6.203125 33.40625 6.203125 
Q 37.3125 6.203125 41.140625 7.25 
Q 44.96875 8.296875 48.78125 10.40625 
L 48.78125 2.09375 
Q 45.015625 0.34375 40.984375 -0.53125 
Q 36.96875 -1.421875 32.421875 -1.421875 
Q 20.0625 -1.421875 12.78125 6.34375 
Q 5.515625 14.109375 5.515625 27.296875 
Q 5.515625 40.671875 12.859375 48.328125 
Q 20.21875 56 33.015625 56 
Q 37.15625 56 41.109375 55.140625 
Q 45.0625 54.296875 48.78125 52.59375 
z
" id="DejaVuSans-99"/>
      <path d="M 9.421875 54.6875 
L 18.40625 54.6875 
L 18.40625 0 
L 9.421875 0 
z
M 9.421875 75.984375 
L 18.40625 75.984375 
L 18.40625 64.59375 
L 9.421875 64.59375 
z
" id="DejaVuSans-105"/>
      <path d="M 41.109375 46.296875 
Q 39.59375 47.171875 37.8125 47.578125 
Q 36.03125 48 33.890625 48 
Q 26.265625 48 22.1875 43.046875 
Q 18.109375 38.09375 18.109375 28.8125 
L 18.109375 0 
L 9.078125 0 
L 9.078125 54.6875 
L 18.109375 54.6875 
L 18.109375 46.1875 
Q 20.953125 51.171875 25.484375 53.578125 
Q 30.03125 56 36.53125 56 
Q 37.453125 56 38.578125 55.875 
Q 39.703125 55.765625 41.0625 55.515625 
z
" id="DejaVuSans-114"/>
      <path d="M 8.5 21.578125 
L 8.5 54.6875 
L 17.484375 54.6875 
L 17.484375 21.921875 
Q 17.484375 14.15625 20.5 10.265625 
Q 23.53125 6.390625 29.59375 6.390625 
Q 36.859375 6.390625 41.078125 11.03125 
Q 45.3125 15.671875 45.3125 23.6875 
L 45.3125 54.6875 
L 54.296875 54.6875 
L 54.296875 0 
L 45.3125 0 
L 45.3125 8.40625 
Q 42.046875 3.421875 37.71875 1 
Q 33.40625 -1.421875 27.6875 -1.421875 
Q 18.265625 -1.421875 13.375 4.4375 
Q 8.5 10.296875 8.5 21.578125 
z
M 31.109375 56 
z
" id="DejaVuSans-117"/>
      <path d="M 18.3125 70.21875 
L 18.3125 54.6875 
L 36.8125 54.6875 
L 36.8125 47.703125 
L 18.3125 47.703125 
L 18.3125 18.015625 
Q 18.3125 11.328125 20.140625 9.421875 
Q 21.96875 7.515625 27.59375 7.515625 
L 36.8125 7.515625 
L 36.8125 0 
L 27.59375 0 
Q 17.1875 0 13.234375 3.875 
Q 9.28125 7.765625 9.28125 18.015625 
L 9.28125 47.703125 
L 2.6875 47.703125 
L 2.6875 54.6875 
L 9.28125 54.6875 
L 9.28125 70.21875 
z
" id="DejaVuSans-116"/>
      <path d="M 2.984375 54.6875 
L 12.5 54.6875 
L 29.59375 8.796875 
L 46.6875 54.6875 
L 56.203125 54.6875 
L 35.6875 0 
L 23.484375 0 
z
" id="DejaVuSans-118"/>
      <path d="M 9.421875 75.984375 
L 18.40625 75.984375 
L 18.40625 0 
L 9.421875 0 
z
" id="DejaVuSans-108"/>
      <path d="M 34.28125 27.484375 
Q 23.390625 27.484375 19.1875 25 
Q 14.984375 22.515625 14.984375 16.5 
Q 14.984375 11.71875 18.140625 8.90625 
Q 21.296875 6.109375 26.703125 6.109375 
Q 34.1875 6.109375 38.703125 11.40625 
Q 43.21875 16.703125 43.21875 25.484375 
L 43.21875 27.484375 
z
M 52.203125 31.203125 
L 52.203125 0 
L 43.21875 0 
L 43.21875 8.296875 
Q 40.140625 3.328125 35.546875 0.953125 
Q 30.953125 -1.421875 24.3125 -1.421875 
Q 15.921875 -1.421875 10.953125 3.296875 
Q 6 8.015625 6 15.921875 
Q 6 25.140625 12.171875 29.828125 
Q 18.359375 34.515625 30.609375 34.515625 
L 43.21875 34.515625 
L 43.21875 35.40625 
Q 43.21875 41.609375 39.140625 45 
Q 35.0625 48.390625 27.6875 48.390625 
Q 23 48.390625 18.546875 47.265625 
Q 14.109375 46.140625 10.015625 43.890625 
L 10.015625 52.203125 
Q 14.9375 54.109375 19.578125 55.046875 
Q 24.21875 56 28.609375 56 
Q 40.484375 56 46.34375 49.84375 
Q 52.203125 43.703125 52.203125 31.203125 
z
" id="DejaVuSans-97"/>
      <path d="M 45.40625 27.984375 
Q 45.40625 37.75 41.375 43.109375 
Q 37.359375 48.484375 30.078125 48.484375 
Q 22.859375 48.484375 18.828125 43.109375 
Q 14.796875 37.75 14.796875 27.984375 
Q 14.796875 18.265625 18.828125 12.890625 
Q 22.859375 7.515625 30.078125 7.515625 
Q 37.359375 7.515625 41.375 12.890625 
Q 45.40625 18.265625 45.40625 27.984375 
z
M 54.390625 6.78125 
Q 54.390625 -7.171875 48.1875 -13.984375 
Q 42 -20.796875 29.203125 -20.796875 
Q 24.46875 -20.796875 20.265625 -20.09375 
Q 16.0625 -19.390625 12.109375 -17.921875 
L 12.109375 -9.1875 
Q 16.0625 -11.328125 19.921875 -12.34375 
Q 23.78125 -13.375 27.78125 -13.375 
Q 36.625 -13.375 41.015625 -8.765625 
Q 45.40625 -4.15625 45.40625 5.171875 
L 45.40625 9.625 
Q 42.625 4.78125 38.28125 2.390625 
Q 33.9375 0 27.875 0 
Q 17.828125 0 11.671875 7.65625 
Q 5.515625 15.328125 5.515625 27.984375 
Q 5.515625 40.671875 11.671875 48.328125 
Q 17.828125 56 27.875 56 
Q 33.9375 56 38.28125 53.609375 
Q 42.625 51.21875 45.40625 46.390625 
L 45.40625 54.6875 
L 54.390625 54.6875 
z
" id="DejaVuSans-103"/>
      <path id="DejaVuSans-32"/>
      <path d="M 44.28125 53.078125 
L 44.28125 44.578125 
Q 40.484375 46.53125 36.375 47.5 
Q 32.28125 48.484375 27.875 48.484375 
Q 21.1875 48.484375 17.84375 46.4375 
Q 14.5 44.390625 14.5 40.28125 
Q 14.5 37.15625 16.890625 35.375 
Q 19.28125 33.59375 26.515625 31.984375 
L 29.59375 31.296875 
Q 39.15625 29.25 43.1875 25.515625 
Q 47.21875 21.78125 47.21875 15.09375 
Q 47.21875 7.46875 41.1875 3.015625 
Q 35.15625 -1.421875 24.609375 -1.421875 
Q 20.21875 -1.421875 15.453125 -0.5625 
Q 10.6875 0.296875 5.421875 2 
L 5.421875 11.28125 
Q 10.40625 8.6875 15.234375 7.390625 
Q 20.0625 6.109375 24.8125 6.109375 
Q 31.15625 6.109375 34.5625 8.28125 
Q 37.984375 10.453125 37.984375 14.40625 
Q 37.984375 18.0625 35.515625 20.015625 
Q 33.0625 21.96875 24.703125 23.78125 
L 21.578125 24.515625 
Q 13.234375 26.265625 9.515625 29.90625 
Q 5.8125 33.546875 5.8125 39.890625 
Q 5.8125 47.609375 11.28125 51.796875 
Q 16.75 56 26.8125 56 
Q 31.78125 56 36.171875 55.265625 
Q 40.578125 54.546875 44.28125 53.078125 
z
" id="DejaVuSans-115"/>
     </defs>
     <g transform="translate(31.517187 163.475437)rotate(-90)scale(0.1 -0.1)">
      <use xlink:href="#DejaVuSans-111"/>
      <use x="61.181641" xlink:href="#DejaVuSans-112"/>
      <use x="124.658203" xlink:href="#DejaVuSans-101"/>
      <use x="186.181641" xlink:href="#DejaVuSans-110"/>
      <use x="249.560547" xlink:href="#DejaVuSans-95"/>
      <use x="299.560547" xlink:href="#DejaVuSans-99"/>
      <use x="354.541016" xlink:href="#DejaVuSans-105"/>
      <use x="382.324219" xlink:href="#DejaVuSans-114"/>
      <use x="423.40625" xlink:href="#DejaVuSans-99"/>
      <use x="478.386719" xlink:href="#DejaVuSans-117"/>
      <use x="541.765625" xlink:href="#DejaVuSans-105"/>
      <use x="569.548828" xlink:href="#DejaVuSans-116"/>
      <use x="608.757812" xlink:href="#DejaVuSans-95"/>
      <use x="658.757812" xlink:href="#DejaVuSans-118"/>
      <use x="717.9375" xlink:href="#DejaVuSans-111"/>
      <use x="779.119141" xlink:href="#DejaVuSans-108"/>
      <use x="806.902344" xlink:href="#DejaVuSans-116"/>
      <use x="846.111328" xlink:href="#DejaVuSans-97"/>
      <use x="907.390625" xlink:href="#DejaVuSans-103"/>
      <use x="970.867188" xlink:href="#DejaVuSans-101"/>
      <use x="1032.390625" xlink:href="#DejaVuSans-32"/>
      <use x="1064.177734" xlink:href="#DejaVuSans-99"/>
      <use x="1119.158203" xlink:href="#DejaVuSans-115"/>
      <use x="1171.257812" xlink:href="#DejaVuSans-118"/>
     </g>
    </g>
   </g>
   <g id="line2d_13">
    <path clip-path="url(#pa0ade80a72)" d="M 73.832727 156.933818 
L 81.949091 139.857734 
L 90.065455 117.177734 
L 98.181818 104.648224 
L 106.298182 100.10165 
L 114.414545 95.555077 
L 122.530909 93.28179 
L 125.236364 92.964587 
L 127.941818 92.700252 
L 154.996364 92.118713 
L 182.050909 91.590042 
L 209.105455 91.008503 
L 236.16 90.374098 
L 263.214545 89.845427 
L 290.269091 89.316755 
L 317.323636 88.735217 
L 347.083636 88.153678 
L 352.494545 86.46193 
L 357.905455 84.770182 
L 363.316364 79.64207 
L 371.432727 73.403748 
L 398.487273 46.970182 
" style="fill:none;stroke:#d62728;stroke-linecap:square;stroke-width:1.5;"/>
   </g>
   <g id="patch_3">
    <path d="M 57.6 162.432 
L 57.6 41.472 
" style="fill:none;stroke:#000000;stroke-linecap:square;stroke-linejoin:miter;stroke-width:0.8;"/>
   </g>
   <g id="patch_4">
    <path d="M 414.72 162.432 
L 414.72 41.472 
" style="fill:none;stroke:#000000;stroke-linecap:square;stroke-linejoin:miter;stroke-width:0.8;"/>
   </g>
   <g id="patch_5">
    <path d="M 57.6 162.432 
L 414.72 162.432 
" style="fill:none;stroke:#000000;stroke-linecap:square;stroke-linejoin:miter;stroke-width:0.8;"/>
   </g>
   <g id="patch_6">
    <path d="M 57.6 41.472 
L 414.72 41.472 
" style="fill:none;stroke:#000000;stroke-linecap:square;stroke-linejoin:miter;stroke-width:0.8;"/>
   </g>
   <g id="text_14">
    <!-- Battery: Open Circuit Voltage Profile -->
    <defs>
     <path d="M 19.671875 34.8125 
L 19.671875 8.109375 
L 35.5 8.109375 
Q 43.453125 8.109375 47.28125 11.40625 
Q 51.125 14.703125 51.125 21.484375 
Q 51.125 28.328125 47.28125 31.5625 
Q 43.453125 34.8125 35.5 34.8125 
z
M 19.671875 64.796875 
L 19.671875 42.828125 
L 34.28125 42.828125 
Q 41.5 42.828125 45.03125 45.53125 
Q 48.578125 48.25 48.578125 53.8125 
Q 48.578125 59.328125 45.03125 62.0625 
Q 41.5 64.796875 34.28125 64.796875 
z
M 9.8125 72.90625 
L 35.015625 72.90625 
Q 46.296875 72.90625 52.390625 68.21875 
Q 58.5 63.53125 58.5 54.890625 
Q 58.5 48.1875 55.375 44.234375 
Q 52.25 40.28125 46.1875 39.3125 
Q 53.46875 37.75 57.5 32.78125 
Q 61.53125 27.828125 61.53125 20.40625 
Q 61.53125 10.640625 54.890625 5.3125 
Q 48.25 0 35.984375 0 
L 9.8125 0 
z
" id="DejaVuSans-66"/>
     <path d="M 32.171875 -5.078125 
Q 28.375 -14.84375 24.75 -17.8125 
Q 21.140625 -20.796875 15.09375 -20.796875 
L 7.90625 -20.796875 
L 7.90625 -13.28125 
L 13.1875 -13.28125 
Q 16.890625 -13.28125 18.9375 -11.515625 
Q 21 -9.765625 23.484375 -3.21875 
L 25.09375 0.875 
L 2.984375 54.6875 
L 12.5 54.6875 
L 29.59375 11.921875 
L 46.6875 54.6875 
L 56.203125 54.6875 
z
" id="DejaVuSans-121"/>
     <path d="M 11.71875 12.40625 
L 22.015625 12.40625 
L 22.015625 0 
L 11.71875 0 
z
M 11.71875 51.703125 
L 22.015625 51.703125 
L 22.015625 39.3125 
L 11.71875 39.3125 
z
" id="DejaVuSans-58"/>
     <path d="M 39.40625 66.21875 
Q 28.65625 66.21875 22.328125 58.203125 
Q 16.015625 50.203125 16.015625 36.375 
Q 16.015625 22.609375 22.328125 14.59375 
Q 28.65625 6.59375 39.40625 6.59375 
Q 50.140625 6.59375 56.421875 14.59375 
Q 62.703125 22.609375 62.703125 36.375 
Q 62.703125 50.203125 56.421875 58.203125 
Q 50.140625 66.21875 39.40625 66.21875 
z
M 39.40625 74.21875 
Q 54.734375 74.21875 63.90625 63.9375 
Q 73.09375 53.65625 73.09375 36.375 
Q 73.09375 19.140625 63.90625 8.859375 
Q 54.734375 -1.421875 39.40625 -1.421875 
Q 24.03125 -1.421875 14.8125 8.828125 
Q 5.609375 19.09375 5.609375 36.375 
Q 5.609375 53.65625 14.8125 63.9375 
Q 24.03125 74.21875 39.40625 74.21875 
z
" id="DejaVuSans-79"/>
     <path d="M 64.40625 67.28125 
L 64.40625 56.890625 
Q 59.421875 61.53125 53.78125 63.8125 
Q 48.140625 66.109375 41.796875 66.109375 
Q 29.296875 66.109375 22.65625 58.46875 
Q 16.015625 50.828125 16.015625 36.375 
Q 16.015625 21.96875 22.65625 14.328125 
Q 29.296875 6.6875 41.796875 6.6875 
Q 48.140625 6.6875 53.78125 8.984375 
Q 59.421875 11.28125 64.40625 15.921875 
L 64.40625 5.609375 
Q 59.234375 2.09375 53.4375 0.328125 
Q 47.65625 -1.421875 41.21875 -1.421875 
Q 24.65625 -1.421875 15.125 8.703125 
Q 5.609375 18.84375 5.609375 36.375 
Q 5.609375 53.953125 15.125 64.078125 
Q 24.65625 74.21875 41.21875 74.21875 
Q 47.75 74.21875 53.53125 72.484375 
Q 59.328125 70.75 64.40625 67.28125 
z
" id="DejaVuSans-67"/>
     <path d="M 28.609375 0 
L 0.78125 72.90625 
L 11.078125 72.90625 
L 34.1875 11.53125 
L 57.328125 72.90625 
L 67.578125 72.90625 
L 39.796875 0 
z
" id="DejaVuSans-86"/>
     <path d="M 19.671875 64.796875 
L 19.671875 37.40625 
L 32.078125 37.40625 
Q 38.96875 37.40625 42.71875 40.96875 
Q 46.484375 44.53125 46.484375 51.125 
Q 46.484375 57.671875 42.71875 61.234375 
Q 38.96875 64.796875 32.078125 64.796875 
z
M 9.8125 72.90625 
L 32.078125 72.90625 
Q 44.34375 72.90625 50.609375 67.359375 
Q 56.890625 61.8125 56.890625 51.125 
Q 56.890625 40.328125 50.609375 34.8125 
Q 44.34375 29.296875 32.078125 29.296875 
L 19.671875 29.296875 
L 19.671875 0 
L 9.8125 0 
z
" id="DejaVuSans-80"/>
     <path d="M 37.109375 75.984375 
L 37.109375 68.5 
L 28.515625 68.5 
Q 23.6875 68.5 21.796875 66.546875 
Q 19.921875 64.59375 19.921875 59.515625 
L 19.921875 54.6875 
L 34.71875 54.6875 
L 34.71875 47.703125 
L 19.921875 47.703125 
L 19.921875 0 
L 10.890625 0 
L 10.890625 47.703125 
L 2.296875 47.703125 
L 2.296875 54.6875 
L 10.890625 54.6875 
L 10.890625 58.5 
Q 10.890625 67.625 15.140625 71.796875 
Q 19.390625 75.984375 28.609375 75.984375 
z
" id="DejaVuSans-102"/>
    </defs>
    <g transform="translate(126.985313 35.472)scale(0.12 -0.12)">
     <use xlink:href="#DejaVuSans-66"/>
     <use x="68.603516" xlink:href="#DejaVuSans-97"/>
     <use x="129.882812" xlink:href="#DejaVuSans-116"/>
     <use x="169.091797" xlink:href="#DejaVuSans-116"/>
     <use x="208.300781" xlink:href="#DejaVuSans-101"/>
     <use x="269.824219" xlink:href="#DejaVuSans-114"/>
     <use x="310.9375" xlink:href="#DejaVuSans-121"/>
     <use x="370.007812" xlink:href="#DejaVuSans-58"/>
     <use x="403.699219" xlink:href="#DejaVuSans-32"/>
     <use x="435.486328" xlink:href="#DejaVuSans-79"/>
     <use x="514.197266" xlink:href="#DejaVuSans-112"/>
     <use x="577.673828" xlink:href="#DejaVuSans-101"/>
     <use x="639.197266" xlink:href="#DejaVuSans-110"/>
     <use x="702.576172" xlink:href="#DejaVuSans-32"/>
     <use x="734.363281" xlink:href="#DejaVuSans-67"/>
     <use x="804.1875" xlink:href="#DejaVuSans-105"/>
     <use x="831.970703" xlink:href="#DejaVuSans-114"/>
     <use x="873.052734" xlink:href="#DejaVuSans-99"/>
     <use x="928.033203" xlink:href="#DejaVuSans-117"/>
     <use x="991.412109" xlink:href="#DejaVuSans-105"/>
     <use x="1019.195312" xlink:href="#DejaVuSans-116"/>
     <use x="1058.404297" xlink:href="#DejaVuSans-32"/>
     <use x="1090.191406" xlink:href="#DejaVuSans-86"/>
     <use x="1158.490234" xlink:href="#DejaVuSans-111"/>
     <use x="1219.671875" xlink:href="#DejaVuSans-108"/>
     <use x="1247.455078" xlink:href="#DejaVuSans-116"/>
     <use x="1286.664062" xlink:href="#DejaVuSans-97"/>
     <use x="1347.943359" xlink:href="#DejaVuSans-103"/>
     <use x="1411.419922" xlink:href="#DejaVuSans-101"/>
     <use x="1472.943359" xlink:href="#DejaVuSans-32"/>
     <use x="1504.730469" xlink:href="#DejaVuSans-80"/>
     <use x="1565.017578" xlink:href="#DejaVuSans-114"/>
     <use x="1606.099609" xlink:href="#DejaVuSans-111"/>
     <use x="1667.28125" xlink:href="#DejaVuSans-102"/>
     <use x="1702.486328" xlink:href="#DejaVuSans-105"/>
     <use x="1730.269531" xlink:href="#DejaVuSans-108"/>
     <use x="1758.052734" xlink:href="#DejaVuSans-101"/>
    </g>
   </g>
  </g>
  <g id="axes_2">
   <g id="patch_7">
    <path d="M 57.6 307.584 
L 414.72 307.584 
L 414.72 186.624 
L 57.6 186.624 
z
" style="fill:#ffffff;"/>
   </g>
   <g id="matplotlib.axis_3">
    <g id="xtick_8">
     <g id="line2d_14">
      <g>
       <use style="stroke:#000000;stroke-width:0.8;" x="73.832727" xlink:href="#m135a324553" y="307.584"/>
      </g>
     </g>
     <g id="text_15">
      <!-- 0 -->
      <g transform="translate(70.651477 322.182437)scale(0.1 -0.1)">
       <use xlink:href="#DejaVuSans-48"/>
      </g>
     </g>
    </g>
    <g id="xtick_9">
     <g id="line2d_15">
      <g>
       <use style="stroke:#000000;stroke-width:0.8;" x="127.941818" xlink:href="#m135a324553" y="307.584"/>
      </g>
     </g>
     <g id="text_16">
      <!-- 20 -->
      <g transform="translate(121.579318 322.182437)scale(0.1 -0.1)">
       <use xlink:href="#DejaVuSans-50"/>
       <use x="63.623047" xlink:href="#DejaVuSans-48"/>
      </g>
     </g>
    </g>
    <g id="xtick_10">
     <g id="line2d_16">
      <g>
       <use style="stroke:#000000;stroke-width:0.8;" x="182.050909" xlink:href="#m135a324553" y="307.584"/>
      </g>
     </g>
     <g id="text_17">
      <!-- 40 -->
      <g transform="translate(175.688409 322.182437)scale(0.1 -0.1)">
       <use xlink:href="#DejaVuSans-52"/>
       <use x="63.623047" xlink:href="#DejaVuSans-48"/>
      </g>
     </g>
    </g>
    <g id="xtick_11">
     <g id="line2d_17">
      <g>
       <use style="stroke:#000000;stroke-width:0.8;" x="236.16" xlink:href="#m135a324553" y="307.584"/>
      </g>
     </g>
     <g id="text_18">
      <!-- 60 -->
      <g transform="translate(229.7975 322.182437)scale(0.1 -0.1)">
       <use xlink:href="#DejaVuSans-54"/>
       <use x="63.623047" xlink:href="#DejaVuSans-48"/>
      </g>
     </g>
    </g>
    <g id="xtick_12">
     <g id="line2d_18">
      <g>
       <use style="stroke:#000000;stroke-width:0.8;" x="290.269091" xlink:href="#m135a324553" y="307.584"/>
      </g>
     </g>
     <g id="text_19">
      <!-- 80 -->
      <g transform="translate(283.906591 322.182437)scale(0.1 -0.1)">
       <use xlink:href="#DejaVuSans-56"/>
       <use x="63.623047" xlink:href="#DejaVuSans-48"/>
      </g>
     </g>
    </g>
    <g id="xtick_13">
     <g id="line2d_19">
      <g>
       <use style="stroke:#000000;stroke-width:0.8;" x="344.378182" xlink:href="#m135a324553" y="307.584"/>
      </g>
     </g>
     <g id="text_20">
      <!-- 100 -->
      <g transform="translate(334.834432 322.182437)scale(0.1 -0.1)">
       <use xlink:href="#DejaVuSans-49"/>
       <use x="63.623047" xlink:href="#DejaVuSans-48"/>
       <use x="127.246094" xlink:href="#DejaVuSans-48"/>
      </g>
     </g>
    </g>
    <g id="xtick_14">
     <g id="line2d_20">
      <g>
       <use style="stroke:#000000;stroke-width:0.8;" x="398.487273" xlink:href="#m135a324553" y="307.584"/>
      </g>
     </g>
     <g id="text_21">
      <!-- 120 -->
      <g transform="translate(388.943523 322.182437)scale(0.1 -0.1)">
       <use xlink:href="#DejaVuSans-49"/>
       <use x="63.623047" xlink:href="#DejaVuSans-50"/>
       <use x="127.246094" xlink:href="#DejaVuSans-48"/>
      </g>
     </g>
    </g>
    <g id="text_22">
     <!-- state_of_charge -->
     <defs>
      <path d="M 54.890625 33.015625 
L 54.890625 0 
L 45.90625 0 
L 45.90625 32.71875 
Q 45.90625 40.484375 42.875 44.328125 
Q 39.84375 48.1875 33.796875 48.1875 
Q 26.515625 48.1875 22.3125 43.546875 
Q 18.109375 38.921875 18.109375 30.90625 
L 18.109375 0 
L 9.078125 0 
L 9.078125 75.984375 
L 18.109375 75.984375 
L 18.109375 46.1875 
Q 21.34375 51.125 25.703125 53.5625 
Q 30.078125 56 35.796875 56 
Q 45.21875 56 50.046875 50.171875 
Q 54.890625 44.34375 54.890625 33.015625 
z
" id="DejaVuSans-104"/>
     </defs>
     <g transform="translate(196.387344 335.860562)scale(0.1 -0.1)">
      <use xlink:href="#DejaVuSans-115"/>
      <use x="52.099609" xlink:href="#DejaVuSans-116"/>
      <use x="91.308594" xlink:href="#DejaVuSans-97"/>
      <use x="152.587891" xlink:href="#DejaVuSans-116"/>
      <use x="191.796875" xlink:href="#DejaVuSans-101"/>
      <use x="253.320312" xlink:href="#DejaVuSans-95"/>
      <use x="303.320312" xlink:href="#DejaVuSans-111"/>
      <use x="364.501953" xlink:href="#DejaVuSans-102"/>
      <use x="399.707031" xlink:href="#DejaVuSans-95"/>
      <use x="449.707031" xlink:href="#DejaVuSans-99"/>
      <use x="504.6875" xlink:href="#DejaVuSans-104"/>
      <use x="568.066406" xlink:href="#DejaVuSans-97"/>
      <use x="629.345703" xlink:href="#DejaVuSans-114"/>
      <use x="670.443359" xlink:href="#DejaVuSans-103"/>
      <use x="733.919922" xlink:href="#DejaVuSans-101"/>
     </g>
    </g>
   </g>
   <g id="matplotlib.axis_4">
    <g id="ytick_6">
     <g id="line2d_21">
      <g>
       <use style="stroke:#000000;stroke-width:0.8;" x="57.6" xlink:href="#m22a0ce8b15" y="302.085818"/>
      </g>
     </g>
     <g id="text_23">
      <!-- 0 -->
      <g transform="translate(44.2375 305.885037)scale(0.1 -0.1)">
       <use xlink:href="#DejaVuSans-48"/>
      </g>
     </g>
    </g>
    <g id="ytick_7">
     <g id="line2d_22">
      <g>
       <use style="stroke:#000000;stroke-width:0.8;" x="57.6" xlink:href="#m22a0ce8b15" y="275.652252"/>
      </g>
     </g>
     <g id="text_24">
      <!-- 5 -->
      <g transform="translate(44.2375 279.45147)scale(0.1 -0.1)">
       <use xlink:href="#DejaVuSans-53"/>
      </g>
     </g>
    </g>
    <g id="ytick_8">
     <g id="line2d_23">
      <g>
       <use style="stroke:#000000;stroke-width:0.8;" x="57.6" xlink:href="#m22a0ce8b15" y="249.218685"/>
      </g>
     </g>
     <g id="text_25">
      <!-- 10 -->
      <g transform="translate(37.875 253.017904)scale(0.1 -0.1)">
       <use xlink:href="#DejaVuSans-49"/>
       <use x="63.623047" xlink:href="#DejaVuSans-48"/>
      </g>
     </g>
    </g>
    <g id="ytick_9">
     <g id="line2d_24">
      <g>
       <use style="stroke:#000000;stroke-width:0.8;" x="57.6" xlink:href="#m22a0ce8b15" y="222.785119"/>
      </g>
     </g>
     <g id="text_26">
      <!-- 15 -->
      <g transform="translate(37.875 226.584338)scale(0.1 -0.1)">
       <use xlink:href="#DejaVuSans-49"/>
       <use x="63.623047" xlink:href="#DejaVuSans-53"/>
      </g>
     </g>
    </g>
    <g id="ytick_10">
     <g id="line2d_25">
      <g>
       <use style="stroke:#000000;stroke-width:0.8;" x="57.6" xlink:href="#m22a0ce8b15" y="196.351552"/>
      </g>
     </g>
     <g id="text_27">
      <!-- 20 -->
      <g transform="translate(37.875 200.150771)scale(0.1 -0.1)">
       <use xlink:href="#DejaVuSans-50"/>
       <use x="63.623047" xlink:href="#DejaVuSans-48"/>
      </g>
     </g>
    </g>
    <g id="text_28">
     <!-- fn_soc_to_ocv -->
     <g transform="translate(31.517187 281.733687)rotate(-90)scale(0.1 -0.1)">
      <use xlink:href="#DejaVuSans-102"/>
      <use x="35.205078" xlink:href="#DejaVuSans-110"/>
      <use x="98.583984" xlink:href="#DejaVuSans-95"/>
      <use x="148.583984" xlink:href="#DejaVuSans-115"/>
      <use x="200.683594" xlink:href="#DejaVuSans-111"/>
      <use x="261.865234" xlink:href="#DejaVuSans-99"/>
      <use x="316.845703" xlink:href="#DejaVuSans-95"/>
      <use x="366.845703" xlink:href="#DejaVuSans-116"/>
      <use x="406.054688" xlink:href="#DejaVuSans-111"/>
      <use x="467.236328" xlink:href="#DejaVuSans-95"/>
      <use x="517.236328" xlink:href="#DejaVuSans-111"/>
      <use x="578.417969" xlink:href="#DejaVuSans-99"/>
      <use x="633.398438" xlink:href="#DejaVuSans-118"/>
     </g>
    </g>
   </g>
   <g id="line2d_26">
    <path clip-path="url(#p70b919dee2)" d="M 73.832727 302.085818 
L 73.832727 302.085818 
L 73.832727 302.085818 
L 73.832727 302.085818 
L 73.832727 302.085818 
L 73.832727 302.085818 
L 73.832727 302.085818 
L 73.832727 302.085818 
L 73.832727 302.085818 
L 73.832727 302.085818 
L 73.832727 302.085818 
L 73.832727 302.085818 
L 73.832727 302.085818 
L 73.832727 302.085818 
L 73.832727 302.085818 
L 73.832727 302.085818 
L 73.832727 302.085818 
L 73.832727 302.085818 
L 73.832727 302.085818 
L 73.832727 302.085818 
L 73.832727 302.085818 
L 73.832727 302.085818 
L 73.832727 302.085818 
L 73.832727 302.085818 
L 73.832727 302.085818 
L 73.832727 302.085818 
L 73.832727 302.085818 
L 73.832727 302.085818 
L 73.832727 302.085818 
L 73.832727 302.085818 
L 73.832727 302.085818 
L 73.832727 302.085818 
L 73.832727 302.085818 
L 73.832727 302.085818 
L 73.832727 302.085818 
L 73.832727 302.085818 
L 73.832727 302.085818 
L 73.832727 302.085818 
L 73.832727 302.085818 
L 73.832727 302.085818 
L 73.832727 302.085818 
L 73.832727 302.085818 
L 73.832727 302.085818 
L 73.832727 302.085818 
L 73.832727 302.085818 
L 73.832727 302.085818 
L 73.832727 302.085818 
L 73.832727 302.085818 
L 73.832727 302.085818 
L 73.832727 302.085818 
" style="fill:none;stroke:#1f77b4;stroke-linecap:square;stroke-width:1.5;"/>
   </g>
   <g id="line2d_27">
    <path clip-path="url(#p70b919dee2)" d="M 73.832727 302.085818 
L 73.998367 301.737327 
L 74.164007 301.388835 
L 74.329647 301.040344 
L 74.495288 300.691852 
L 74.660928 300.343361 
L 74.826568 299.994869 
L 74.992208 299.646378 
L 75.157848 299.297886 
L 75.323488 298.949395 
L 75.489128 298.600903 
L 75.654768 298.252412 
L 75.820408 297.90392 
L 75.986048 297.555429 
L 76.151688 297.206937 
L 76.317328 296.858446 
L 76.482968 296.509954 
L 76.648609 296.161463 
L 76.814249 295.812971 
L 76.979889 295.46448 
L 77.145529 295.115988 
L 77.311169 294.767497 
L 77.476809 294.419005 
L 77.642449 294.070513 
L 77.808089 293.722022 
L 77.973729 293.37353 
L 78.139369 293.025039 
L 78.305009 292.676547 
L 78.470649 292.328056 
L 78.636289 291.979564 
L 78.801929 291.631073 
L 78.96757 291.282581 
L 79.13321 290.93409 
L 79.29885 290.585598 
L 79.46449 290.237107 
L 79.63013 289.888615 
L 79.79577 289.540124 
L 79.96141 289.191632 
L 80.12705 288.843141 
L 80.29269 288.494649 
L 80.45833 288.146158 
L 80.62397 287.797666 
L 80.78961 287.449175 
L 80.95525 287.100683 
L 81.120891 286.752192 
L 81.286531 286.4037 
L 81.452171 286.055209 
L 81.617811 285.706717 
L 81.783451 285.358226 
L 81.949091 285.009734 
" style="fill:none;stroke:#1f77b4;stroke-linecap:square;stroke-width:1.5;"/>
   </g>
   <g id="line2d_28">
    <path clip-path="url(#p70b919dee2)" d="M 73.832727 302.085818 
L 74.164007 301.388835 
L 74.495288 300.691852 
L 74.826568 299.994869 
L 75.157848 299.297886 
L 75.489128 298.600903 
L 75.820408 297.90392 
L 76.151688 297.206937 
L 76.482968 296.509954 
L 76.814249 295.812971 
L 77.145529 295.115988 
L 77.476809 294.419005 
L 77.808089 293.722022 
L 78.139369 293.025039 
L 78.470649 292.328056 
L 78.801929 291.631073 
L 79.13321 290.93409 
L 79.46449 290.237107 
L 79.79577 289.540124 
L 80.12705 288.843141 
L 80.45833 288.146158 
L 80.78961 287.449175 
L 81.120891 286.752192 
L 81.452171 286.055209 
L 81.783451 285.358226 
L 82.114731 284.546877 
L 82.446011 283.621163 
L 82.777291 282.695449 
L 83.108571 281.769734 
L 83.439852 280.84402 
L 83.771132 279.918306 
L 84.102412 278.992591 
L 84.433692 278.066877 
L 84.764972 277.141163 
L 85.096252 276.215449 
L 85.427532 275.289734 
L 85.758813 274.36402 
L 86.090093 273.438306 
L 86.421373 272.512591 
L 86.752653 271.586877 
L 87.083933 270.661163 
L 87.415213 269.735449 
L 87.746494 268.809734 
L 88.077774 267.88402 
L 88.409054 266.958306 
L 88.740334 266.032591 
L 89.071614 265.106877 
L 89.402894 264.181163 
L 89.734174 263.255449 
L 90.065455 262.329734 
" style="fill:none;stroke:#1f77b4;stroke-linecap:square;stroke-width:1.5;"/>
   </g>
   <g id="line2d_29">
    <path clip-path="url(#p70b919dee2)" d="M 73.832727 302.085818 
L 74.329647 301.040344 
L 74.826568 299.994869 
L 75.323488 298.949395 
L 75.820408 297.90392 
L 76.317328 296.858446 
L 76.814249 295.812971 
L 77.311169 294.767497 
L 77.808089 293.722022 
L 78.305009 292.676547 
L 78.801929 291.631073 
L 79.29885 290.585598 
L 79.79577 289.540124 
L 80.29269 288.494649 
L 80.78961 287.449175 
L 81.286531 286.4037 
L 81.783451 285.358226 
L 82.280371 284.08402 
L 82.777291 282.695449 
L 83.274212 281.306877 
L 83.771132 279.918306 
L 84.268052 278.529734 
L 84.764972 277.141163 
L 85.261892 275.752591 
L 85.758813 274.36402 
L 86.255733 272.975449 
L 86.752653 271.586877 
L 87.249573 270.198306 
L 87.746494 268.809734 
L 88.243414 267.421163 
L 88.740334 266.032591 
L 89.237254 264.64402 
L 89.734174 263.255449 
L 90.231095 262.07403 
L 90.728015 261.306917 
L 91.224935 260.539804 
L 91.721855 259.772691 
L 92.218776 259.005578 
L 92.715696 258.238466 
L 93.212616 257.471353 
L 93.709536 256.70424 
L 94.206456 255.937127 
L 94.703377 255.170014 
L 95.200297 254.402901 
L 95.697217 253.635788 
L 96.194137 252.868675 
L 96.691058 252.101562 
L 97.187978 251.33445 
L 97.684898 250.567337 
L 98.181818 249.800224 
" style="fill:none;stroke:#1f77b4;stroke-linecap:square;stroke-width:1.5;"/>
   </g>
   <g id="line2d_30">
    <path clip-path="url(#p70b919dee2)" d="M 73.832727 302.085818 
L 74.495288 300.691852 
L 75.157848 299.297886 
L 75.820408 297.90392 
L 76.482968 296.509954 
L 77.145529 295.115988 
L 77.808089 293.722022 
L 78.470649 292.328056 
L 79.13321 290.93409 
L 79.79577 289.540124 
L 80.45833 288.146158 
L 81.120891 286.752192 
L 81.783451 285.358226 
L 82.446011 283.621163 
L 83.108571 281.769734 
L 83.771132 279.918306 
L 84.433692 278.066877 
L 85.096252 276.215449 
L 85.758813 274.36402 
L 86.421373 272.512591 
L 87.083933 270.661163 
L 87.746494 268.809734 
L 88.409054 266.958306 
L 89.071614 265.106877 
L 89.734174 263.255449 
L 90.396735 261.818326 
L 91.059295 260.795508 
L 91.721855 259.772691 
L 92.384416 258.749874 
L 93.046976 257.727057 
L 93.709536 256.70424 
L 94.372096 255.681423 
L 95.034657 254.658605 
L 95.697217 253.635788 
L 96.359777 252.612971 
L 97.022338 251.590154 
L 97.684898 250.567337 
L 98.347458 249.707437 
L 99.010019 249.336288 
L 99.672579 248.965139 
L 100.335139 248.59399 
L 100.997699 248.222841 
L 101.66026 247.851692 
L 102.32282 247.480543 
L 102.98538 247.109395 
L 103.647941 246.738246 
L 104.310501 246.367097 
L 104.973061 245.995948 
L 105.635622 245.624799 
L 106.298182 245.25365 
" style="fill:none;stroke:#1f77b4;stroke-linecap:square;stroke-width:1.5;"/>
   </g>
   <g id="line2d_31">
    <path clip-path="url(#p70b919dee2)" d="M 73.832727 302.085818 
L 74.660928 300.343361 
L 75.489128 298.600903 
L 76.317328 296.858446 
L 77.145529 295.115988 
L 77.973729 293.37353 
L 78.801929 291.631073 
L 79.63013 289.888615 
L 80.45833 288.146158 
L 81.286531 286.4037 
L 82.114731 284.546877 
L 82.942931 282.232591 
L 83.771132 279.918306 
L 84.599332 277.60402 
L 85.427532 275.289734 
L 86.255733 272.975449 
L 87.083933 270.661163 
L 87.912134 268.346877 
L 88.740334 266.032591 
L 89.568534 263.718306 
L 90.396735 261.818326 
L 91.224935 260.539804 
L 92.053135 259.261283 
L 92.881336 257.982761 
L 93.709536 256.70424 
L 94.537737 255.425718 
L 95.365937 254.147197 
L 96.194137 252.868675 
L 97.022338 251.590154 
L 97.850538 250.311632 
L 98.678738 249.521862 
L 99.506939 249.057926 
L 100.335139 248.59399 
L 101.16334 248.130054 
L 101.99154 247.666118 
L 102.81974 247.202182 
L 103.647941 246.738246 
L 104.476141 246.27431 
L 105.304341 245.810374 
L 106.132542 245.346438 
L 106.960742 244.882501 
L 107.788942 244.418565 
L 108.617143 243.954629 
L 109.445343 243.490693 
L 110.273544 243.026757 
L 111.101744 242.562821 
L 111.929944 242.098885 
L 112.758145 241.634949 
L 113.586345 241.171013 
L 114.414545 240.707077 
" style="fill:none;stroke:#1f77b4;stroke-linecap:square;stroke-width:1.5;"/>
   </g>
   <g id="line2d_32">
    <path clip-path="url(#p70b919dee2)" d="M 73.832727 302.085818 
L 74.826568 299.994869 
L 75.820408 297.90392 
L 76.814249 295.812971 
L 77.808089 293.722022 
L 78.801929 291.631073 
L 79.79577 289.540124 
L 80.78961 287.449175 
L 81.783451 285.358226 
L 82.777291 282.695449 
L 83.771132 279.918306 
L 84.764972 277.141163 
L 85.758813 274.36402 
L 86.752653 271.586877 
L 87.746494 268.809734 
L 88.740334 266.032591 
L 89.734174 263.255449 
L 90.728015 261.306917 
L 91.721855 259.772691 
L 92.715696 258.238466 
L 93.709536 256.70424 
L 94.703377 255.170014 
L 95.697217 253.635788 
L 96.691058 252.101562 
L 97.684898 250.567337 
L 98.678738 249.521862 
L 99.672579 248.965139 
L 100.666419 248.408416 
L 101.66026 247.851692 
L 102.6541 247.294969 
L 103.647941 246.738246 
L 104.641781 246.181522 
L 105.635622 245.624799 
L 106.629462 245.068076 
L 107.623302 244.511353 
L 108.617143 243.954629 
L 109.610983 243.397906 
L 110.604824 242.841183 
L 111.598664 242.28446 
L 112.592505 241.727736 
L 113.586345 241.171013 
L 114.580186 240.660683 
L 115.574026 240.382322 
L 116.567866 240.10396 
L 117.561707 239.825598 
L 118.555547 239.547237 
L 119.549388 239.268875 
L 120.543228 238.990513 
L 121.537069 238.712152 
L 122.530909 238.43379 
" style="fill:none;stroke:#1f77b4;stroke-linecap:square;stroke-width:1.5;"/>
   </g>
   <g id="line2d_33">
    <path clip-path="url(#p70b919dee2)" d="M 73.832727 302.085818 
L 74.881781 299.878705 
L 75.930835 297.671592 
L 76.979889 295.46448 
L 78.028942 293.257367 
L 79.077996 291.050254 
L 80.12705 288.843141 
L 81.176104 286.636028 
L 82.225158 284.238306 
L 83.274212 281.306877 
L 84.323265 278.375449 
L 85.372319 275.44402 
L 86.421373 272.512591 
L 87.470427 269.581163 
L 88.519481 266.649734 
L 89.568534 263.718306 
L 90.617588 261.477387 
L 91.666642 259.857926 
L 92.715696 258.238466 
L 93.76475 256.619005 
L 94.813803 254.999544 
L 95.862857 253.380084 
L 96.911911 251.760623 
L 97.960965 250.141163 
L 99.010019 249.336288 
L 100.059072 248.748635 
L 101.108126 248.160983 
L 102.15718 247.573331 
L 103.206234 246.985678 
L 104.255288 246.398026 
L 105.304341 245.810374 
L 106.353395 245.222721 
L 107.402449 244.635069 
L 108.451503 244.047417 
L 109.500557 243.459764 
L 110.54961 242.872112 
L 111.598664 242.28446 
L 112.647718 241.696807 
L 113.696772 241.109155 
L 114.745826 240.61429 
L 115.794879 240.320464 
L 116.843933 240.026637 
L 117.892987 239.732811 
L 118.942041 239.438985 
L 119.991095 239.145159 
L 121.040148 238.851333 
L 122.089202 238.557506 
L 123.138256 238.362581 
L 124.18731 238.239584 
L 125.236364 238.116587 
" style="fill:none;stroke:#1f77b4;stroke-linecap:square;stroke-width:1.5;"/>
   </g>
   <g id="line2d_34">
    <path clip-path="url(#p70b919dee2)" d="M 73.832727 302.085818 
L 74.936994 299.762541 
L 76.041262 297.439265 
L 77.145529 295.115988 
L 78.249796 292.792711 
L 79.354063 290.469435 
L 80.45833 288.146158 
L 81.562597 285.822881 
L 82.666865 283.00402 
L 83.771132 279.918306 
L 84.875399 276.832591 
L 85.979666 273.746877 
L 87.083933 270.661163 
L 88.1882 267.575449 
L 89.292468 264.489734 
L 90.396735 261.818326 
L 91.501002 260.11363 
L 92.605269 258.408935 
L 93.709536 256.70424 
L 94.813803 254.999544 
L 95.918071 253.294849 
L 97.022338 251.590154 
L 98.126605 249.885459 
L 99.230872 249.212571 
L 100.335139 248.59399 
L 101.439406 247.975409 
L 102.543673 247.356827 
L 103.647941 246.738246 
L 104.752208 246.119664 
L 105.856475 245.501083 
L 106.960742 244.882501 
L 108.065009 244.26392 
L 109.169276 243.645339 
L 110.273544 243.026757 
L 111.377811 242.408176 
L 112.482078 241.789594 
L 113.586345 241.171013 
L 114.690612 240.629754 
L 115.794879 240.320464 
L 116.899147 240.011173 
L 118.003414 239.701882 
L 119.107681 239.392591 
L 120.211948 239.083301 
L 121.316215 238.77401 
L 122.420482 238.464719 
L 123.52475 238.317267 
L 124.629017 238.187796 
L 125.733284 238.068036 
L 126.837551 237.960144 
L 127.941818 237.852252 
" style="fill:none;stroke:#1f77b4;stroke-linecap:square;stroke-width:1.5;"/>
   </g>
   <g id="line2d_35">
    <path clip-path="url(#p70b919dee2)" d="M 73.832727 302.085818 
L 75.489128 298.600903 
L 77.145529 295.115988 
L 78.801929 291.631073 
L 80.45833 288.146158 
L 82.114731 284.546877 
L 83.771132 279.918306 
L 85.427532 275.289734 
L 87.083933 270.661163 
L 88.740334 266.032591 
L 90.396735 261.818326 
L 92.053135 259.261283 
L 93.709536 256.70424 
L 95.365937 254.147197 
L 97.022338 251.590154 
L 98.678738 249.521862 
L 100.335139 248.59399 
L 101.99154 247.666118 
L 103.647941 246.738246 
L 105.304341 245.810374 
L 106.960742 244.882501 
L 108.617143 243.954629 
L 110.273544 243.026757 
L 111.929944 242.098885 
L 113.586345 241.171013 
L 115.242746 240.475109 
L 116.899147 240.011173 
L 118.555547 239.547237 
L 120.211948 239.083301 
L 121.868349 238.619365 
L 123.52475 238.317267 
L 125.18115 238.123061 
L 126.837551 237.960144 
L 128.493952 237.840384 
L 130.150353 237.804779 
L 131.806753 237.769175 
L 133.463154 237.73357 
L 135.119555 237.697966 
L 136.775955 237.662362 
L 138.432356 237.626757 
L 140.088757 237.591153 
L 141.745158 237.555548 
L 143.401558 237.519944 
L 145.057959 237.48434 
L 146.71436 237.448735 
L 148.370761 237.413131 
L 150.027161 237.377526 
L 151.683562 237.341922 
L 153.339963 237.306318 
L 154.996364 237.270713 
" style="fill:none;stroke:#1f77b4;stroke-linecap:square;stroke-width:1.5;"/>
   </g>
   <g id="line2d_36">
    <path clip-path="url(#p70b919dee2)" d="M 73.832727 302.085818 
L 76.041262 297.439265 
L 78.249796 292.792711 
L 80.45833 288.146158 
L 82.666865 283.00402 
L 84.875399 276.832591 
L 87.083933 270.661163 
L 89.292468 264.489734 
L 91.501002 260.11363 
L 93.709536 256.70424 
L 95.918071 253.294849 
L 98.126605 249.885459 
L 100.335139 248.59399 
L 102.543673 247.356827 
L 104.752208 246.119664 
L 106.960742 244.882501 
L 109.169276 243.645339 
L 111.377811 242.408176 
L 113.586345 241.171013 
L 115.794879 240.320464 
L 118.003414 239.701882 
L 120.211948 239.083301 
L 122.420482 238.464719 
L 124.629017 238.187796 
L 126.837551 237.960144 
L 129.046085 237.828515 
L 131.25462 237.781043 
L 133.463154 237.73357 
L 135.671688 237.686098 
L 137.880223 237.638625 
L 140.088757 237.591153 
L 142.297291 237.54368 
L 144.505826 237.496208 
L 146.71436 237.448735 
L 148.922894 237.401263 
L 151.131429 237.35379 
L 153.339963 237.306318 
L 155.548497 237.259924 
L 157.757032 237.216767 
L 159.965566 237.17361 
L 162.1741 237.130454 
L 164.382635 237.087297 
L 166.591169 237.04414 
L 168.799703 237.000983 
L 171.008237 236.957826 
L 173.216772 236.914669 
L 175.425306 236.871512 
L 177.63384 236.828356 
L 179.842375 236.785199 
L 182.050909 236.742042 
" style="fill:none;stroke:#1f77b4;stroke-linecap:square;stroke-width:1.5;"/>
   </g>
   <g id="line2d_37">
    <path clip-path="url(#p70b919dee2)" d="M 73.832727 302.085818 
L 76.593395 296.277626 
L 79.354063 290.469435 
L 82.114731 284.546877 
L 84.875399 276.832591 
L 87.636067 269.118306 
L 90.396735 261.818326 
L 93.157403 257.556587 
L 95.918071 253.294849 
L 98.678738 249.521862 
L 101.439406 247.975409 
L 104.200074 246.428955 
L 106.960742 244.882501 
L 109.72141 243.336048 
L 112.482078 241.789594 
L 115.242746 240.475109 
L 118.003414 239.701882 
L 120.764082 238.928655 
L 123.52475 238.317267 
L 126.285417 238.01409 
L 129.046085 237.828515 
L 131.806753 237.769175 
L 134.567421 237.709834 
L 137.328089 237.650494 
L 140.088757 237.591153 
L 142.849425 237.531812 
L 145.610093 237.472472 
L 148.370761 237.413131 
L 151.131429 237.35379 
L 153.892096 237.29445 
L 156.652764 237.238346 
L 159.413432 237.1844 
L 162.1741 237.130454 
L 164.934768 237.076507 
L 167.695436 237.022561 
L 170.456104 236.968615 
L 173.216772 236.914669 
L 175.97744 236.860723 
L 178.738108 236.806777 
L 181.498776 236.752831 
L 184.259443 236.694569 
L 187.020111 236.635229 
L 189.780779 236.575888 
L 192.541447 236.516547 
L 195.302115 236.457207 
L 198.062783 236.397866 
L 200.823451 236.338525 
L 203.584119 236.279185 
L 206.344787 236.219844 
L 209.105455 236.160503 
" style="fill:none;stroke:#1f77b4;stroke-linecap:square;stroke-width:1.5;"/>
   </g>
   <g id="line2d_38">
    <path clip-path="url(#p70b919dee2)" d="M 73.832727 302.085818 
L 77.145529 295.115988 
L 80.45833 288.146158 
L 83.771132 279.918306 
L 87.083933 270.661163 
L 90.396735 261.818326 
L 93.709536 256.70424 
L 97.022338 251.590154 
L 100.335139 248.59399 
L 103.647941 246.738246 
L 106.960742 244.882501 
L 110.273544 243.026757 
L 113.586345 241.171013 
L 116.899147 240.011173 
L 120.211948 239.083301 
L 123.52475 238.317267 
L 126.837551 237.960144 
L 130.150353 237.804779 
L 133.463154 237.73357 
L 136.775955 237.662362 
L 140.088757 237.591153 
L 143.401558 237.519944 
L 146.71436 237.448735 
L 150.027161 237.377526 
L 153.339963 237.306318 
L 156.652764 237.238346 
L 159.965566 237.17361 
L 163.278367 237.108875 
L 166.591169 237.04414 
L 169.90397 236.979405 
L 173.216772 236.914669 
L 176.529573 236.849934 
L 179.842375 236.785199 
L 183.155176 236.718306 
L 186.467978 236.647097 
L 189.780779 236.575888 
L 193.093581 236.504679 
L 196.406382 236.433471 
L 199.719184 236.362262 
L 203.031985 236.291053 
L 206.344787 236.219844 
L 209.657588 236.147556 
L 212.97039 236.069874 
L 216.283191 235.992192 
L 219.595993 235.914509 
L 222.908794 235.836827 
L 226.221596 235.759145 
L 229.534397 235.681463 
L 232.847199 235.60378 
L 236.16 235.526098 
" style="fill:none;stroke:#1f77b4;stroke-linecap:square;stroke-width:1.5;"/>
   </g>
   <g id="line2d_39">
    <path clip-path="url(#p70b919dee2)" d="M 73.832727 302.085818 
L 77.697662 293.95435 
L 81.562597 285.822881 
L 85.427532 275.289734 
L 89.292468 264.489734 
L 93.157403 257.556587 
L 97.022338 251.590154 
L 100.887273 248.284699 
L 104.752208 246.119664 
L 108.617143 243.954629 
L 112.482078 241.789594 
L 116.347013 240.165818 
L 120.211948 239.083301 
L 124.076883 238.252531 
L 127.941818 237.852252 
L 131.806753 237.769175 
L 135.671688 237.686098 
L 139.536623 237.603021 
L 143.401558 237.519944 
L 147.266494 237.436867 
L 151.131429 237.35379 
L 154.996364 237.270713 
L 158.861299 237.195189 
L 162.726234 237.119664 
L 166.591169 237.04414 
L 170.456104 236.968615 
L 174.321039 236.893091 
L 178.185974 236.817566 
L 182.050909 236.742042 
L 185.915844 236.658965 
L 189.780779 236.575888 
L 193.645714 236.492811 
L 197.510649 236.409734 
L 201.375584 236.326657 
L 205.240519 236.24358 
L 209.105455 236.160503 
L 212.97039 236.069874 
L 216.835325 235.979245 
L 220.70026 235.888615 
L 224.565195 235.797986 
L 228.43013 235.707357 
L 232.295065 235.616727 
L 236.16 235.526098 
L 240.024935 235.450573 
L 243.88987 235.375049 
L 247.754805 235.299524 
L 251.61974 235.224 
L 255.484675 235.148476 
L 259.34961 235.072951 
L 263.214545 234.997427 
" style="fill:none;stroke:#1f77b4;stroke-linecap:square;stroke-width:1.5;"/>
   </g>
   <g id="line2d_40">
    <path clip-path="url(#p70b919dee2)" d="M 73.832727 302.085818 
L 78.249796 292.792711 
L 82.666865 283.00402 
L 87.083933 270.661163 
L 91.501002 260.11363 
L 95.918071 253.294849 
L 100.335139 248.59399 
L 104.752208 246.119664 
L 109.169276 243.645339 
L 113.586345 241.171013 
L 118.003414 239.701882 
L 122.420482 238.464719 
L 126.837551 237.960144 
L 131.25462 237.781043 
L 135.671688 237.686098 
L 140.088757 237.591153 
L 144.505826 237.496208 
L 148.922894 237.401263 
L 153.339963 237.306318 
L 157.757032 237.216767 
L 162.1741 237.130454 
L 166.591169 237.04414 
L 171.008237 236.957826 
L 175.425306 236.871512 
L 179.842375 236.785199 
L 184.259443 236.694569 
L 188.676512 236.599624 
L 193.093581 236.504679 
L 197.510649 236.409734 
L 201.927718 236.314789 
L 206.344787 236.219844 
L 210.761855 236.121662 
L 215.178924 236.018086 
L 219.595993 235.914509 
L 224.013061 235.810933 
L 228.43013 235.707357 
L 232.847199 235.60378 
L 237.264267 235.504519 
L 241.681336 235.418206 
L 246.098404 235.331892 
L 250.515473 235.245578 
L 254.932542 235.159265 
L 259.34961 235.072951 
L 263.766679 234.986637 
L 268.183748 234.900324 
L 272.600816 234.81401 
L 277.017885 234.727696 
L 281.434954 234.641383 
L 285.852022 234.555069 
L 290.269091 234.468755 
" style="fill:none;stroke:#1f77b4;stroke-linecap:square;stroke-width:1.5;"/>
   </g>
   <g id="line2d_41">
    <path clip-path="url(#p70b919dee2)" d="M 73.832727 302.085818 
L 78.801929 291.631073 
L 83.771132 279.918306 
L 88.740334 266.032591 
L 93.709536 256.70424 
L 98.678738 249.521862 
L 103.647941 246.738246 
L 108.617143 243.954629 
L 113.586345 241.171013 
L 118.555547 239.547237 
L 123.52475 238.317267 
L 128.493952 237.840384 
L 133.463154 237.73357 
L 138.432356 237.626757 
L 143.401558 237.519944 
L 148.370761 237.413131 
L 153.339963 237.306318 
L 158.309165 237.205978 
L 163.278367 237.108875 
L 168.24757 237.011772 
L 173.216772 236.914669 
L 178.185974 236.817566 
L 183.155176 236.718306 
L 188.124378 236.611493 
L 193.093581 236.504679 
L 198.062783 236.397866 
L 203.031985 236.291053 
L 208.001187 236.18424 
L 212.97039 236.069874 
L 217.939592 235.953351 
L 222.908794 235.836827 
L 227.877996 235.720304 
L 232.847199 235.60378 
L 237.816401 235.49373 
L 242.785603 235.396627 
L 247.754805 235.299524 
L 252.724007 235.202422 
L 257.69321 235.105319 
L 262.662412 235.008216 
L 267.631614 234.911113 
L 272.600816 234.81401 
L 277.570019 234.716907 
L 282.539221 234.619804 
L 287.508423 234.522701 
L 292.477625 234.421283 
L 297.446827 234.31447 
L 302.41603 234.207656 
L 307.385232 234.100843 
L 312.354434 233.99403 
L 317.323636 233.887217 
" style="fill:none;stroke:#1f77b4;stroke-linecap:square;stroke-width:1.5;"/>
   </g>
   <g id="line2d_42">
    <path clip-path="url(#p70b919dee2)" d="M 73.832727 302.085818 
L 79.409276 290.353271 
L 84.985826 276.52402 
L 90.562375 261.562621 
L 96.138924 252.95391 
L 101.715473 247.820763 
L 107.292022 244.696927 
L 112.868571 241.573091 
L 118.445121 239.578166 
L 124.02167 238.259005 
L 129.598219 237.816647 
L 135.174768 237.696779 
L 140.751317 237.576911 
L 146.327866 237.457043 
L 151.904416 237.337175 
L 157.480965 237.222162 
L 163.057514 237.113191 
L 168.634063 237.00422 
L 174.210612 236.895249 
L 179.787161 236.786278 
L 185.363711 236.670833 
L 190.94026 236.550965 
L 196.516809 236.431097 
L 202.093358 236.311229 
L 207.669907 236.191361 
L 213.246456 236.063401 
L 218.823006 235.932635 
L 224.399555 235.80187 
L 229.976104 235.671105 
L 235.552653 235.54034 
L 241.129202 235.428995 
L 246.705751 235.320024 
L 252.282301 235.211053 
L 257.85885 235.102082 
L 263.435399 234.993111 
L 269.011948 234.88414 
L 274.588497 234.775169 
L 280.165046 234.666198 
L 285.741596 234.557227 
L 291.318145 234.446206 
L 296.894694 234.326338 
L 302.471243 234.20647 
L 308.047792 234.086601 
L 313.624341 233.966733 
L 319.200891 233.850533 
L 324.77744 233.741562 
L 330.353989 233.632591 
L 335.930538 233.52362 
L 341.507087 233.414649 
L 347.083636 233.305678 
" style="fill:none;stroke:#1f77b4;stroke-linecap:square;stroke-width:1.5;"/>
   </g>
   <g id="line2d_43">
    <path clip-path="url(#p70b919dee2)" d="M 73.832727 302.085818 
L 79.519703 290.120943 
L 85.206679 275.906877 
L 90.893655 261.051213 
L 96.580631 252.272032 
L 102.267607 247.511473 
L 107.954583 244.325778 
L 113.641558 241.140084 
L 119.328534 239.330733 
L 125.01551 238.142482 
L 130.702486 237.792911 
L 136.389462 237.670669 
L 142.076438 237.548428 
L 147.763414 237.426186 
L 153.45039 237.303944 
L 159.137365 237.189794 
L 164.824341 237.078665 
L 170.511317 236.967536 
L 176.198293 236.856408 
L 181.885269 236.745279 
L 187.572245 236.623361 
L 193.259221 236.501119 
L 198.946197 236.378877 
L 204.633173 236.256635 
L 210.320148 236.13202 
L 216.007124 235.998665 
L 221.6941 235.865311 
L 227.381076 235.731956 
L 233.068052 235.598601 
L 238.755028 235.475389 
L 244.442004 235.36426 
L 250.12898 235.253131 
L 255.815955 235.142002 
L 261.502931 235.030873 
L 267.189907 234.919744 
L 272.876883 234.808615 
L 278.563859 234.697487 
L 284.250835 234.586358 
L 289.937811 234.475229 
L 295.624787 234.353634 
L 301.311763 234.231393 
L 306.998738 234.109151 
L 312.685714 233.986909 
L 318.37269 233.866717 
L 324.059666 233.755588 
L 329.746642 233.64446 
L 335.433618 233.533331 
L 341.120594 233.422202 
L 346.80757 233.311073 
L 352.494545 231.61393 
" style="fill:none;stroke:#1f77b4;stroke-linecap:square;stroke-width:1.5;"/>
   </g>
   <g id="line2d_44">
    <path clip-path="url(#p70b919dee2)" d="M 73.832727 302.085818 
L 79.63013 289.888615 
L 85.427532 275.289734 
L 91.224935 260.539804 
L 97.022338 251.590154 
L 102.81974 247.202182 
L 108.617143 243.954629 
L 114.414545 240.707077 
L 120.211948 239.083301 
L 126.009351 238.041063 
L 131.806753 237.769175 
L 137.604156 237.644559 
L 143.401558 237.519944 
L 149.198961 237.395329 
L 154.996364 237.270713 
L 160.793766 237.157427 
L 166.591169 237.04414 
L 172.388571 236.930853 
L 178.185974 236.817566 
L 183.983377 236.700503 
L 189.780779 236.575888 
L 195.578182 236.451273 
L 201.375584 236.326657 
L 207.172987 236.202042 
L 212.97039 236.069874 
L 218.767792 235.93393 
L 224.565195 235.797986 
L 230.362597 235.662042 
L 236.16 235.526098 
L 241.957403 235.412811 
L 247.754805 235.299524 
L 253.552208 235.186238 
L 259.34961 235.072951 
L 265.147013 234.959664 
L 270.944416 234.846378 
L 276.741818 234.733091 
L 282.539221 234.619804 
L 288.336623 234.506517 
L 294.134026 234.385678 
L 299.931429 234.261063 
L 305.728831 234.136448 
L 311.526234 234.011832 
L 317.323636 233.887217 
L 323.121039 233.77393 
L 328.918442 233.660643 
L 334.715844 233.547357 
L 340.513247 233.43407 
L 346.310649 233.320783 
L 352.108052 231.734769 
L 357.905455 229.922182 
" style="fill:none;stroke:#1f77b4;stroke-linecap:square;stroke-width:1.5;"/>
   </g>
   <g id="line2d_45">
    <path clip-path="url(#p70b919dee2)" d="M 73.832727 302.085818 
L 79.740557 289.656288 
L 85.648386 274.672591 
L 91.556215 260.028396 
L 97.464045 250.908276 
L 103.371874 246.892891 
L 109.279703 243.583481 
L 115.187532 240.490573 
L 121.095362 238.835868 
L 127.003191 237.94396 
L 132.91102 237.745439 
L 138.81885 237.61845 
L 144.726679 237.491461 
L 150.634508 237.364472 
L 156.542338 237.240503 
L 162.450167 237.125059 
L 168.357996 237.009614 
L 174.265826 236.89417 
L 180.173655 236.778725 
L 186.081484 236.655405 
L 191.989314 236.528416 
L 197.897143 236.401427 
L 203.804972 236.274438 
L 209.712801 236.146262 
L 215.620631 236.007728 
L 221.52846 235.869195 
L 227.436289 235.730661 
L 233.344119 235.592128 
L 239.251948 235.465678 
L 245.159777 235.350234 
L 251.067607 235.234789 
L 256.975436 235.119345 
L 262.883265 235.0039 
L 268.791095 234.888456 
L 274.698924 234.773011 
L 280.606753 234.657566 
L 286.514583 234.542122 
L 292.422412 234.42247 
L 298.330241 234.295481 
L 304.238071 234.168492 
L 310.1459 234.041502 
L 316.053729 233.914513 
L 321.961558 233.796587 
L 327.869388 233.681143 
L 333.777217 233.565698 
L 339.685046 233.450254 
L 345.592876 233.334809 
L 351.500705 231.924659 
L 357.408534 230.077546 
L 363.316364 224.79407 
" style="fill:none;stroke:#1f77b4;stroke-linecap:square;stroke-width:1.5;"/>
   </g>
   <g id="line2d_46">
    <path clip-path="url(#p70b919dee2)" d="M 73.832727 302.085818 
L 79.906197 289.307796 
L 85.979666 273.746877 
L 92.053135 259.261283 
L 98.126605 249.885459 
L 104.200074 246.428955 
L 110.273544 243.026757 
L 116.347013 240.165818 
L 122.420482 238.464719 
L 128.493952 237.840384 
L 134.567421 237.709834 
L 140.640891 237.579285 
L 146.71436 237.448735 
L 152.787829 237.318186 
L 158.861299 237.195189 
L 164.934768 237.076507 
L 171.008237 236.957826 
L 177.081707 236.839145 
L 183.155176 236.718306 
L 189.228646 236.587756 
L 195.302115 236.457207 
L 201.375584 236.326657 
L 207.449054 236.196108 
L 213.522523 236.056927 
L 219.595993 235.914509 
L 225.669462 235.772092 
L 231.742931 235.629674 
L 237.816401 235.49373 
L 243.88987 235.375049 
L 249.96334 235.256368 
L 256.036809 235.137686 
L 262.110278 235.019005 
L 268.183748 234.900324 
L 274.257217 234.781642 
L 280.330686 234.662961 
L 286.404156 234.54428 
L 292.477625 234.421283 
L 298.551095 234.290733 
L 304.624564 234.160184 
L 310.698033 234.029634 
L 316.771503 233.899085 
L 322.844972 233.779325 
L 328.918442 233.660643 
L 334.991911 233.541962 
L 341.06538 233.423281 
L 347.13885 233.288416 
L 353.212319 231.389514 
L 359.285788 228.61399 
L 365.359258 223.22388 
L 371.432727 218.555748 
" style="fill:none;stroke:#1f77b4;stroke-linecap:square;stroke-width:1.5;"/>
   </g>
   <g id="line2d_47">
    <path clip-path="url(#p70b919dee2)" d="M 73.832727 302.085818 
L 80.45833 288.146158 
L 87.083933 270.661163 
L 93.709536 256.70424 
L 100.335139 248.59399 
L 106.960742 244.882501 
L 113.586345 241.171013 
L 120.211948 239.083301 
L 126.837551 237.960144 
L 133.463154 237.73357 
L 140.088757 237.591153 
L 146.71436 237.448735 
L 153.339963 237.306318 
L 159.965566 237.17361 
L 166.591169 237.04414 
L 173.216772 236.914669 
L 179.842375 236.785199 
L 186.467978 236.647097 
L 193.093581 236.504679 
L 199.719184 236.362262 
L 206.344787 236.219844 
L 212.97039 236.069874 
L 219.595993 235.914509 
L 226.221596 235.759145 
L 232.847199 235.60378 
L 239.472801 235.461363 
L 246.098404 235.331892 
L 252.724007 235.202422 
L 259.34961 235.072951 
L 265.975213 234.943481 
L 272.600816 234.81401 
L 279.226419 234.684539 
L 285.852022 234.555069 
L 292.477625 234.421283 
L 299.103228 234.278865 
L 305.728831 234.136448 
L 312.354434 233.99403 
L 318.980037 233.854849 
L 325.60564 233.725379 
L 332.231243 233.595908 
L 338.856846 233.466438 
L 345.482449 233.336967 
L 352.108052 231.734769 
L 358.733655 229.137267 
L 365.359258 223.22388 
L 371.984861 218.016288 
L 378.610464 211.542761 
L 385.236067 205.069235 
L 391.86167 198.595708 
L 398.487273 192.122182 
" style="fill:none;stroke:#1f77b4;stroke-linecap:square;stroke-width:1.5;"/>
   </g>
   <g id="patch_8">
    <path d="M 57.6 307.584 
L 57.6 186.624 
" style="fill:none;stroke:#000000;stroke-linecap:square;stroke-linejoin:miter;stroke-width:0.8;"/>
   </g>
   <g id="patch_9">
    <path d="M 414.72 307.584 
L 414.72 186.624 
" style="fill:none;stroke:#000000;stroke-linecap:square;stroke-linejoin:miter;stroke-width:0.8;"/>
   </g>
   <g id="patch_10">
    <path d="M 57.6 307.584 
L 414.72 307.584 
" style="fill:none;stroke:#000000;stroke-linecap:square;stroke-linejoin:miter;stroke-width:0.8;"/>
   </g>
   <g id="patch_11">
    <path d="M 57.6 186.624 
L 414.72 186.624 
" style="fill:none;stroke:#000000;stroke-linecap:square;stroke-linejoin:miter;stroke-width:0.8;"/>
   </g>
  </g>
 </g>
 <defs>
  <clipPath id="pa0ade80a72">
   <rect height="120.96" width="357.12" x="57.6" y="41.472"/>
  </clipPath>
  <clipPath id="p70b919dee2">
   <rect height="120.96" width="357.12" x="57.6" y="186.624"/>
  </clipPath>
 </defs>
</svg>
