<?xml version="1.0" encoding="utf-8"?>
<!-- Generator: Adobe Illustrator 15.1.0, SVG Export Plug-In . SVG Version: 6.00 Build 0)  -->
<!DOCTYPE svg PUBLIC "-//W3C//DTD SVG 1.1//EN" "http://www.w3.org/Graphics/SVG/1.1/DTD/svg11.dtd">
<svg version="1.1" id="Layer_1" xmlns="http://www.w3.org/2000/svg" xmlns:xlink="http://www.w3.org/1999/xlink" x="0px" y="0px"
	 width="260px" height="64.494px" viewBox="0 0 260 64.494" enable-background="new 0 0 260 64.494" xml:space="preserve">
<g>
	<path d="M69.171,33.318c0-6.812-17.524-10.485-34.012-10.485c-16.487,0-34.01,3.673-34.01,10.485c0,0.043,0.009,0.084,0.01,0.128
		l-0.005,0.001c0.004,0.03,0.009,0.061,0.012,0.092c0.011,0.204,0.037,0.403,0.079,0.603c0.79,6.689,3.026,12.283,6.852,17.062
		c3.725,4.656,12.067,12.28,26.749,12.28c0.533,0,1.075-0.009,1.625-0.031c11.173-0.419,20.625-5.361,26.614-13.913
		c3.063-4.37,5.007-9.246,5.778-14.494l-0.085-0.013C69.031,34.485,69.171,33.915,69.171,33.318z M35.159,24.804
		c18.882,0,32.042,4.485,32.042,8.515c0,1.572-1.997,3.2-5.52,4.612c0.436-1.739,0.774-3.495,0.745-4.663
		c0.043-0.178,0.071-0.36,0.071-0.546c0-5.065-16.348-6.904-27.336-6.904c-10.898,0-27.059,1.81-27.328,6.778
		c-0.25,1.049,0.127,3.175,0.65,5.276c-3.385-1.378-5.303-2.962-5.353-4.493c-0.001-0.025-0.006-0.047-0.008-0.072
		C3.147,29.28,16.295,24.804,35.159,24.804z M35.16,37.671c-7.572,0-13.483-0.665-17.7-1.552l-0.285-1.596
		c4.292,1.474,13.416,1.672,17.995,1.672c6.112,0,20.328-0.352,20.328-3.627c0-3.255-14.216-3.607-20.328-3.607
		c-6.113,0-20.329,0.352-20.329,3.607c0,0.042,0.012,0.082,0.017,0.122l-0.01,0.002l0.523,2.934
		c-3.679-0.975-5.581-2.102-5.581-2.904c0-1.729,8.713-4.934,25.37-4.934c16.654,0,25.366,3.205,25.366,4.934
		C60.526,34.454,51.814,37.671,35.16,37.671z M17.338,32.568c2.074-0.775,8.493-1.641,17.832-1.641
		c9.339,0,15.759,0.866,17.831,1.641c-2.074,0.776-8.493,1.648-17.831,1.648C25.832,34.217,19.412,33.345,17.338,32.568z
		 M10.729,38.68c-0.347-1.262-0.582-2.263-0.735-3.035c4.811,2.881,16.611,3.996,25.166,3.996c8.466,0,20.103-1.093,25.006-3.909
		c-0.156,0.771-0.389,1.758-0.731,2.996c-5.688,1.817-14.145,3.115-24.277,3.115C24.936,41.843,16.416,40.522,10.729,38.68z
		 M61.471,48.407c-5.628,8.038-14.533,12.683-25.075,13.078C21.573,62.041,13.263,54.51,9.635,49.972
		c-2.869-3.583-4.783-7.665-5.822-12.374c5.512,4.061,18.727,6.216,31.346,6.216c12.477,0,25.541-2.105,31.162-6.08
		C65.385,41.548,63.768,45.134,61.471,48.407z"/>
	<g>
		<g>
			<path d="M133.541,26.589c-1.02-1.543-2.416-2.8-4.149-3.737c-1.735-0.935-3.884-1.409-6.389-1.409
				c-3.321,0-6.333,1.009-8.948,2.998c-2.23,1.695-3.921,4.036-5.042,6.967c-0.252-1.011-0.575-1.973-0.965-2.876
				c-0.604-1.399-1.411-2.637-2.397-3.678c-0.996-1.051-2.242-1.891-3.704-2.5c-1.457-0.605-3.191-0.912-5.15-0.912
				c-1.53,0-3.038,0.25-4.487,0.741c-1.444,0.491-2.802,1.226-4.033,2.181c-1.222,0.952-2.336,2.12-3.31,3.474
				c-0.554,0.77-1.042,1.605-1.458,2.5c-0.002-0.011-0.002-0.021-0.002-0.032L83.35,25.04c-0.03-0.805-0.069-1.475-0.123-2.013
				c-0.025-0.27-0.253-0.476-0.524-0.476h-1.742c-0.148,0-0.289,0.062-0.389,0.173c-0.102,0.11-0.151,0.257-0.136,0.406
				c0.05,0.524,0.103,1.179,0.157,1.964c0.051,0.785,0.091,1.611,0.117,2.475l0.08,2.574c0.026,0.832,0.04,1.539,0.04,2.118v27.26
				c0,0.293,0.236,0.528,0.528,0.528H83.1c0.29,0,0.526-0.235,0.526-0.528V41.31c0-2.73,0.352-5.192,1.044-7.331
				c0.688-2.131,1.644-3.944,2.837-5.421c1.185-1.462,2.59-2.6,4.176-3.382c1.583-0.779,3.303-1.173,5.113-1.173
				c2.047,0,3.748,0.437,5.054,1.298c1.323,0.875,2.374,1.975,3.118,3.268c0.756,1.311,1.283,2.792,1.56,4.42
				c0.285,1.675,0.429,3.248,0.429,4.679v21.854c0,0.293,0.237,0.528,0.528,0.528h1.74c0.291,0,0.528-0.235,0.528-0.528V41.31
				c0-2.727,0.365-5.188,1.082-7.324c0.716-2.136,1.686-3.953,2.878-5.428c1.186-1.463,2.59-2.6,4.18-3.382
				c1.583-0.779,3.303-1.173,5.11-1.173c2.051,0,3.766,0.438,5.098,1.3c1.352,0.877,2.444,1.98,3.244,3.277
				c0.806,1.315,1.383,2.796,1.715,4.424c0.332,1.659,0.503,3.229,0.503,4.662v21.854c0,0.293,0.236,0.528,0.528,0.528h1.742
				c0.291,0,0.525-0.235,0.525-0.528V37.509c0-1.93-0.215-3.872-0.647-5.763C135.277,29.853,134.547,28.114,133.541,26.589z"/>
		</g>
		<g>
			<path d="M151.825,22.551h-1.741c-0.292,0-0.528,0.236-0.528,0.528v36.441c0,0.293,0.236,0.528,0.528,0.528h1.741
				c0.292,0,0.528-0.235,0.528-0.528V23.079C152.354,22.787,152.117,22.551,151.825,22.551z"/>
		</g>
		<g>
			<path d="M149.313,5.524c-0.471,0.472-0.709,1.077-0.709,1.798c0,0.776,0.238,1.408,0.709,1.877
				c0.471,0.47,1.021,0.709,1.642,0.709c0.557,0,1.094-0.234,1.587-0.696c0.506-0.471,0.761-1.107,0.761-1.891
				c0-0.721-0.238-1.326-0.707-1.799C151.648,4.584,150.257,4.585,149.313,5.524z"/>
		</g>
		<g>
			<path d="M182.725,21.532c-0.303-0.059-0.572-0.089-0.812-0.089h-0.713c-2.794,0-5.428,0.873-7.829,2.593
				c-1.873,1.34-3.361,3.359-4.438,6.021l-0.151-5.017c-0.027-0.805-0.068-1.475-0.12-2.013c-0.027-0.27-0.255-0.476-0.524-0.476
				h-1.743c-0.148,0-0.29,0.062-0.392,0.173c-0.097,0.11-0.146,0.257-0.132,0.406c0.047,0.524,0.104,1.179,0.155,1.964
				s0.091,1.611,0.118,2.475l0.08,2.574c0.025,0.832,0.038,1.539,0.038,2.118v27.26c0,0.293,0.235,0.528,0.528,0.528h1.74
				c0.292,0,0.528-0.235,0.528-0.528V40.676c0-1.96,0.247-3.956,0.738-5.937c0.484-1.983,1.249-3.801,2.269-5.399
				c1.007-1.588,2.311-2.892,3.873-3.874c1.544-0.971,3.444-1.463,5.657-1.463h0.438c0.137,0,0.292,0.021,0.466,0.064
				c0.153,0.039,0.323,0.003,0.45-0.097c0.13-0.101,0.205-0.254,0.205-0.416V22.05C183.153,21.797,182.973,21.58,182.725,21.532z"/>
		</g>
		<g>
			<path d="M218.785,26.981c-1.732-1.732-3.829-3.104-6.233-4.075c-2.401-0.971-5.062-1.463-7.916-1.463
				c-2.855,0-5.504,0.493-7.88,1.465c-2.375,0.971-4.458,2.341-6.192,4.074c-1.73,1.734-3.092,3.828-4.037,6.241
				c-0.942,2.413-1.421,5.105-1.421,8.007c0,2.903,0.479,5.605,1.421,8.031c0.945,2.434,2.303,4.558,4.035,6.316
				c1.734,1.76,3.814,3.144,6.194,4.115c2.376,0.973,5.026,1.466,7.88,1.466s5.515-0.493,7.916-1.463
				c2.406-0.975,4.501-2.358,6.235-4.118c1.732-1.759,3.09-3.883,4.037-6.316c0.942-2.426,1.422-5.128,1.422-8.031
				c0-2.901-0.479-5.594-1.424-8.007C221.877,30.81,220.516,28.715,218.785,26.981z M204.636,58.599
				c-2.604,0-4.956-0.466-6.987-1.38c-2.039-0.916-3.807-2.168-5.255-3.72c-1.451-1.552-2.572-3.396-3.337-5.481
				c-0.767-2.097-1.151-4.381-1.151-6.788c0-2.354,0.385-4.611,1.151-6.715c0.765-2.1,1.886-3.944,3.337-5.494
				c1.448-1.55,3.212-2.787,5.249-3.677c2.032-0.89,4.387-1.341,6.993-1.341c2.605,0,4.974,0.451,7.035,1.342
				c2.062,0.891,3.838,2.128,5.287,3.676c1.448,1.55,2.571,3.394,3.334,5.494c0.769,2.105,1.156,4.363,1.156,6.715
				c0,2.405-0.388,4.689-1.156,6.788c-0.763,2.085-1.884,3.93-3.334,5.481c-1.449,1.552-3.229,2.802-5.293,3.72
				C209.605,58.133,207.241,58.599,204.636,58.599z"/>
		</g>
		<g>
			<path d="M255.34,45.647c-0.646-1.171-1.525-2.164-2.611-2.945c-1.061-0.762-2.302-1.411-3.687-1.927
				c-1.359-0.506-2.774-0.95-4.217-1.326c-1.503-0.36-2.903-0.744-4.165-1.138c-1.219-0.381-2.266-0.852-3.117-1.405
				c-0.816-0.527-1.463-1.232-1.919-2.104c-0.458-0.873-0.689-2.076-0.689-3.572c0-1.315,0.281-2.449,0.837-3.364
				c0.56-0.93,1.276-1.686,2.133-2.247c0.868-0.57,1.838-0.985,2.882-1.235c1.062-0.252,2.085-0.381,3.044-0.381
				c2.07,0,3.853,0.367,5.303,1.092c1.455,0.727,2.779,1.861,3.936,3.372c0.162,0.212,0.456,0.267,0.684,0.136l1.505-0.871
				c0.128-0.074,0.22-0.199,0.253-0.344c0.028-0.144,0-0.295-0.085-0.417c-2.576-3.668-6.474-5.529-11.595-5.529
				c-1.417,0-2.841,0.208-4.227,0.615c-1.397,0.411-2.665,1.024-3.764,1.821c-1.115,0.808-2.019,1.839-2.688,3.065
				c-0.674,1.236-1.016,2.707-1.016,4.365c0,1.666,0.27,3.082,0.804,4.207c0.531,1.121,1.272,2.075,2.201,2.837
				c0.912,0.746,1.987,1.359,3.193,1.824c1.173,0.456,2.438,0.874,3.777,1.247c1.21,0.315,2.512,0.672,3.908,1.065
				c1.357,0.386,2.611,0.889,3.732,1.5c1.086,0.593,2,1.395,2.715,2.379c0.696,0.964,1.046,2.242,1.046,3.809
				c0,1.331-0.283,2.524-0.843,3.548c-0.568,1.036-1.318,1.913-2.232,2.605c-0.924,0.698-1.96,1.23-3.085,1.578
				c-1.13,0.351-2.261,0.529-3.365,0.529c-4.761,0-8.451-1.789-10.971-5.32c-0.166-0.231-0.489-0.288-0.724-0.132l-1.426,0.951
				c-0.118,0.076-0.2,0.2-0.228,0.342c-0.025,0.141,0.008,0.286,0.091,0.401c1.472,2.07,3.365,3.662,5.631,4.726
				c2.25,1.057,4.789,1.595,7.545,1.595c1.685,0,3.286-0.25,4.762-0.739c1.481-0.495,2.804-1.221,3.931-2.155
				c1.134-0.942,2.046-2.105,2.709-3.459c0.665-1.359,1.003-2.915,1.003-4.627C256.312,48.302,255.986,46.833,255.34,45.647z"/>
		</g>
	</g>
	<g>
		<defs>
			<path id="SVGID_1_" d="M54.023,31.599c1.975-1.715,1.666-4.975-0.872-6.249c0.95-1.888,0.211-4.39-2.167-5.293
				c0.557-1.517,0.094-3.319-1.347-4.385c0.874-1.349,0.775-3.13-0.233-4.409c1.115-1.183,1.3-2.917,0.607-4.308
				c1.195-2.332-0.166-5.685-4.103-5.704c-7.631-0.036-15.24-0.458-22.875-0.493c-3.47-0.017-4.94,2.571-4.432,4.792
				c-1.691,1.181-2.09,3.374-1.143,5.017c-1.772,1.548-1.721,4.378,0.176,5.855c-1.306,1.141-1.443,2.889-0.685,4.324
				c-1.525,1.28-1.788,3.462-0.736,5.028c-1.954,1.435-1.6,4.177,0.275,5.725c-0.418,0.169-0.663,0.346-0.663,0.529
				c0,1.148,8.662,2.081,19.343,2.081c10.686,0,19.343-0.933,19.343-2.081C54.512,31.88,54.307,31.739,54.023,31.599z"/>
		</defs>
		<clipPath id="SVGID_2_">
			<use xlink:href="#SVGID_1_"  overflow="visible"/>
		</clipPath>
		<path clip-path="url(#SVGID_2_)" fill-rule="evenodd" clip-rule="evenodd" fill="#FFFFFF" d="M46.721,31.312
			c-0.913-2.829-3.233-5.056-3.706-8.921c-0.322-2.637,0.549-5.627,0-8.072c-1.627-7.229-13.757-7.495-15.447,0
			c-0.588,2.609,0.371,5.739,0,8.422c-0.511,3.732-3.683,7.021-4.21,10.18C21.04,51.427,48.991,50.921,47.386,34.15
			C47.315,33.465,46.946,31.984,46.721,31.312z"/>
		<g clip-path="url(#SVGID_2_)">
			<path d="M35.261,21.414c2.157,0,4.637-1.307,4.983-4.177c0.247-2.046-0.474-3.345-1.122-4.076
				c-1.143-1.289-3.01-1.833-4.931-1.437c-3.035,0.628-4.375,2.624-3.875,5.772C30.686,19.802,32.72,21.414,35.261,21.414z
				 M34.591,13.653c0.284-0.06,0.568-0.088,0.843-0.088c0.911,0,1.697,0.321,2.214,0.903c0.544,0.613,0.765,1.49,0.64,2.533
				c-0.219,1.804-1.768,2.443-3.028,2.443c-1.313,0-2.75-0.698-3-2.258C31.928,15.088,32.603,14.065,34.591,13.653z"/>
			<path d="M48.366,34.048c-0.083-0.802-0.483-2.369-0.708-3.038c-0.383-1.184-0.993-2.271-1.582-3.323
				c-0.893-1.592-1.818-3.239-2.083-5.416c-0.136-1.109-0.035-2.358,0.062-3.564c0.124-1.541,0.251-3.134-0.078-4.605
				c-0.979-4.345-5.102-6.29-8.754-6.29c-4.372,0-7.754,2.469-8.614,6.29c-0.35,1.552-0.211,3.209-0.076,4.812
				c0.111,1.318,0.217,2.562,0.06,3.694c-0.246,1.798-1.215,3.562-2.153,5.268c-0.915,1.663-1.778,3.227-2.059,4.924
				c-0.538,4.297,0.44,7.992,2.828,10.696c2.388,2.706,6.066,4.259,10.094,4.259c0,0,0,0,0,0c4.034,0,7.741-1.533,10.172-4.211
				C47.724,41.069,48.724,37.793,48.366,34.048z M28.529,14.536c0.791-3.508,4.1-4.752,6.693-4.752c2.868,0,6.093,1.469,6.831,4.751
				c0.264,1.178,0.155,2.556,0.038,4.015c-0.076,0.938-0.149,1.897-0.127,2.849c-3.656,1.797-5.804,3.566-6.825,4.553
				c-1.237-1.156-3.841-3.321-6.516-3.999c0.049-1.062-0.038-2.146-0.127-3.205C28.367,17.228,28.246,15.791,28.529,14.536z
				 M44.019,42.22c-2.059,2.267-5.236,3.566-8.716,3.566c-3.462,0-6.603-1.31-8.617-3.591c-2.002-2.271-2.815-5.429-2.356-9.11
				c0.22-1.327,1.005-2.75,1.835-4.26c0.858-1.56,1.712-3.173,2.15-4.922c3.002,0.85,6.103,4.097,6.135,4.132l0.786,0.831
				l0.705-0.898c0.019-0.023,1.74-2.163,6.289-4.504c0.431,2.079,1.313,3.732,2.129,5.188c0.566,1.012,1.102,1.962,1.43,2.975
				c0.22,0.659,0.56,2.052,0.618,2.621C46.708,37.412,45.883,40.167,44.019,42.22z"/>
		</g>
	</g>
	<g>
		<rect x="53.206" y="32.688" transform="matrix(0.9843 0.1765 -0.1765 0.9843 6.9836 -9.0207)" width="1.969" height="4.103"/>
	</g>
</g>
</svg>
