<?xml version="1.0" encoding="UTF-8" standalone="no"?>
<!DOCTYPE svg PUBLIC "-//W3C//DTD SVG 1.1//EN" "http://www.w3.org/Graphics/SVG/1.1/DTD/svg11.dtd">
<svg width="100%" height="100%" viewBox="0 0 182 40" version="1.1" xmlns="http://www.w3.org/2000/svg" xmlns:xlink="http://www.w3.org/1999/xlink" xml:space="preserve" xmlns:serif="http://www.serif.com/" style="fill-rule:evenodd;clip-rule:evenodd;stroke-linejoin:round;stroke-miterlimit:2;">
    <g transform="matrix(1,0,0,1,-1,0)">
        <path d="M49.7,18.4C49.7,13.6 37.2,11 25.5,11C13.8,11 1.3,13.6 1.3,18.4L1.3,18.6C1.3,18.7 1.3,18.9 1.4,19C2,23.7 3.6,27.7 6.3,31.1C8.9,34.4 14.9,39.8 25.3,39.8L26.5,39.8C34.4,39.5 41.2,36 45.4,29.9C47.6,26.8 49,23.3 49.5,19.6L49.4,19.6C49.6,19.3 49.7,18.9 49.7,18.4ZM25.5,12.4C38.9,12.4 48.3,15.6 48.3,18.4C48.3,19.5 46.9,20.7 44.4,21.7C44.7,20.5 44.9,19.2 44.9,18.4C44.9,18.3 45,18.1 45,18C45,14.4 33.4,13.1 25.6,13.1C17.9,13.1 6.4,14.4 6.2,17.9C6,18.6 6.3,20.1 6.7,21.6C4.3,20.6 2.9,19.5 2.9,18.4L2.9,18.3C2.8,15.6 12.1,12.4 25.5,12.4ZM25.5,21.5C20.1,21.5 15.9,21 12.9,20.4L12.7,19.3C15.8,20.3 22.2,20.5 25.5,20.5C29.8,20.5 39.9,20.3 39.9,17.9C39.9,15.6 29.8,15.3 25.5,15.3C21.2,15.3 11.1,15.5 11.1,17.9L11.1,18L11.5,20.1C8.9,19.4 7.5,18.6 7.5,18C7.5,16.8 13.7,14.5 25.5,14.5C37.3,14.5 43.5,16.8 43.5,18C43.5,19.2 37.4,21.5 25.5,21.5ZM12.9,17.9C14.4,17.4 18.9,16.7 25.6,16.7C32.3,16.7 36.8,17.3 38.3,17.9C36.8,18.4 32.3,19.1 25.6,19.1C18.9,19.1 14.3,18.5 12.9,17.9ZM8.2,22.2C8,21.3 7.8,20.6 7.7,20C11.1,22 19.5,22.8 25.6,22.8C31.6,22.8 39.9,22 43.4,20C43.3,20.5 43.1,21.2 42.9,22.1C38.9,23.4 32.8,24.3 25.6,24.3C18.3,24.5 12.2,23.6 8.2,22.2ZM44.2,29.2C40.2,34.9 33.9,38.2 26.4,38.5C15.9,38.9 10,33.5 7.4,30.3C5.4,27.8 4,24.9 3.3,21.5C7.2,24.4 16.6,25.9 25.6,25.9C34.5,25.9 43.8,24.4 47.7,21.6C47,24.3 45.9,26.8 44.2,29.2Z" style="fill-rule:nonzero;"/>
        <g>
            <path d="M95.4,13.7C94.7,12.6 93.7,11.7 92.5,11C91.3,10.3 89.7,10 88,10C85.6,10 83.5,10.7 81.6,12.1C80,13.3 78.8,15 78,17.1C77.8,16.4 77.6,15.7 77.3,15.1C76.9,14.1 76.3,13.2 75.6,12.5C74.9,11.8 74,11.2 73,10.7C72,10.3 70.7,10.1 69.3,10.1C68.2,10.1 67.1,10.3 66.1,10.6C65.1,10.9 64.1,11.5 63.2,12.1C62.3,12.8 61.5,13.6 60.8,14.6C60.4,15.1 60.1,15.7 59.8,16.4L59.7,12.7C59.7,12.1 59.7,11.7 59.6,11.3C59.6,11.1 59.4,11 59.2,11L58,11C57.9,11 57.8,11 57.7,11.1C57.6,11.2 57.6,11.3 57.6,11.4C57.6,11.8 57.7,12.2 57.7,12.8C57.7,13.4 57.8,13.9 57.8,14.6L57.9,16.4L57.9,37.3C57.9,37.5 58.1,37.7 58.3,37.7L59.5,37.7C59.7,37.7 59.9,37.5 59.9,37.3L59.9,24.1C59.9,22.2 60.1,20.4 60.6,18.9C61.1,17.4 61.8,16.1 62.6,15.1C63.4,14.1 64.4,13.3 65.6,12.7C66.7,12.1 67.9,11.9 69.2,11.9C70.7,11.9 71.9,12.2 72.8,12.8C73.7,13.4 74.5,14.2 75,15.1C75.5,16 75.9,17.1 76.1,18.2C76.3,19.4 76.4,20.5 76.4,21.5L76.4,37C76.4,37.2 76.6,37.4 76.8,37.4L78,37.4C78.2,37.4 78.4,37.2 78.4,37L78.4,24.1C78.4,22.2 78.7,20.4 79.2,18.9C79.7,17.4 80.4,16.1 81.2,15C82,14 83,13.2 84.2,12.6C85.3,12 86.5,11.8 87.8,11.8C89.3,11.8 90.5,12.1 91.4,12.7C92.4,13.3 93.1,14.1 93.7,15C94.3,15.9 94.7,17 94.9,18.1C95.1,19.3 95.3,20.4 95.3,21.4L95.3,36.9C95.3,37.1 95.5,37.3 95.7,37.3L96.9,37.3C97.1,37.3 97.3,37.1 97.3,36.9L97.3,21.4C97.3,20 97.1,18.7 96.8,17.3C96.7,16 96.2,14.7 95.4,13.7Z" style="fill-rule:nonzero;"/>
            <path d="M108.4,10.8L107.2,10.8C107,10.8 106.8,11 106.8,11.2L106.8,37.1C106.8,37.3 107,37.5 107.2,37.5L108.4,37.5C108.6,37.5 108.8,37.3 108.8,37.1L108.8,11.2C108.8,11 108.6,10.8 108.4,10.8Z" style="fill-rule:nonzero;"/>
            <path d="M106.6,0.7C106.3,1 106.1,1.5 106.1,2C106.1,2.6 106.3,3 106.6,3.3C106.9,3.6 107.3,3.8 107.8,3.8C108.2,3.8 108.6,3.6 108.9,3.3C109.3,3 109.4,2.5 109.4,2C109.4,1.5 109.2,1.1 108.9,0.7C108.3,0 107.3,0 106.6,0.7Z" style="fill-rule:nonzero;"/>
            <path d="M130.4,10.1C130.2,10.1 130,10 129.8,10L129.3,10C127.3,10 125.4,10.6 123.7,11.8C122.4,12.8 121.3,14.2 120.5,16.1L120.4,12.5C120.4,11.9 120.4,11.5 120.3,11.1C120.3,10.9 120.1,10.8 119.9,10.8L118.7,10.8C118.6,10.8 118.5,10.8 118.4,10.9C118.3,11 118.3,11.1 118.3,11.2C118.3,11.6 118.4,12 118.4,12.6C118.4,13.2 118.5,13.7 118.5,14.4L118.6,16.2L118.6,37.1C118.6,37.3 118.8,37.5 119,37.5L120.2,37.5C120.4,37.5 120.6,37.3 120.6,37.1L120.6,23.7C120.6,22.3 120.8,20.9 121.1,19.5C121.4,18.1 122,16.8 122.7,15.7C123.4,14.6 124.3,13.6 125.5,12.9C126.6,12.2 127.9,11.9 129.5,11.9L130.1,11.9C130.2,11.9 130.3,11.9 130.4,11.8C130.5,11.7 130.5,11.6 130.5,11.5L130.5,10.4C130.7,10.3 130.5,10.1 130.4,10.1Z" style="fill-rule:nonzero;"/>
            <path d="M156,13.9C154.8,12.7 153.3,11.7 151.6,11C149.9,10.3 148,10 146,10C144,10 142.1,10.4 140.4,11C138.7,11.7 137.2,12.7 136,13.9C134.8,15.1 133.8,16.6 133.1,18.3C132.4,20 132.1,21.9 132.1,24C132.1,26.1 132.4,28 133.1,29.7C133.8,31.4 134.7,32.9 136,34.2C137.2,35.5 138.7,36.4 140.4,37.1C142.1,37.8 144,38.1 146,38.1C148,38.1 149.9,37.7 151.6,37.1C153.3,36.4 154.8,35.4 156,34.2C157.2,33 158.2,31.4 158.9,29.7C159.6,28 159.9,26.1 159.9,24C159.9,21.9 159.6,20 158.9,18.3C158.2,16.7 157.2,15.2 156,13.9ZM145.9,36.4C144,36.4 142.4,36.1 140.9,35.4C139.5,34.7 138.2,33.9 137.2,32.8C136.2,31.7 135.4,30.4 134.8,28.9C134.3,27.4 134,25.8 134,24.1C134,22.4 134.3,20.8 134.8,19.3C135.3,17.8 136.1,16.5 137.2,15.4C138.2,14.3 139.5,13.4 140.9,12.8C142.3,12.2 144,11.8 145.9,11.8C147.8,11.8 149.4,12.1 150.9,12.8C152.4,13.4 153.6,14.3 154.7,15.4C155.7,16.5 156.5,17.8 157.1,19.3C157.6,20.8 157.9,22.4 157.9,24.1C157.9,25.8 157.6,27.4 157.1,28.9C156.6,30.4 155.8,31.7 154.7,32.8C153.7,33.9 152.4,34.8 150.9,35.4C149.5,36.1 147.8,36.4 145.9,36.4Z" style="fill-rule:nonzero;"/>
            <path d="M182,27.2C181.5,26.4 180.9,25.7 180.1,25.1C179.3,24.6 178.5,24.1 177.5,23.7C176.5,23.3 175.5,23 174.5,22.8C173.4,22.5 172.4,22.3 171.5,22C170.6,21.7 169.9,21.4 169.3,21C168.7,20.6 168.3,20.1 167.9,19.5C167.6,18.9 167.4,18 167.4,17C167.4,16.1 167.6,15.3 168,14.6C168.4,13.9 168.9,13.4 169.5,13C170.1,12.6 170.8,12.3 171.5,12.1C172.3,11.9 173,11.8 173.7,11.8C175.2,11.8 176.4,12.1 177.5,12.6C178.5,13.1 179.5,13.9 180.3,15C180.4,15.1 180.6,15.2 180.8,15.1L181.9,14.5C182,14.4 182.1,14.4 182.1,14.3C182.1,14.2 182.1,14.1 182,14C180.2,11.4 177.4,10.1 173.8,10.1C172.8,10.1 171.8,10.2 170.8,10.5C169.8,10.8 168.9,11.2 168.1,11.8C167.3,12.4 166.7,13.1 166.2,14C165.7,14.9 165.5,15.9 165.5,17.1C165.5,18.3 165.7,19.3 166.1,20.1C166.5,20.9 167,21.6 167.7,22.1C168.3,22.6 169.1,23.1 170,23.4C170.8,23.7 171.7,24 172.7,24.3C173.6,24.5 174.5,24.8 175.5,25.1C176.5,25.4 177.4,25.7 178.2,26.2C179,26.6 179.6,27.2 180.1,27.9C180.6,28.6 180.8,29.5 180.8,30.6C180.8,31.5 180.6,32.4 180.2,33.1C179.8,33.8 179.3,34.5 178.6,35C177.9,35.5 177.2,35.9 176.4,36.1C175.6,36.3 174.8,36.5 174,36.5C170.6,36.5 168,35.2 166.2,32.7C166.1,32.5 165.9,32.5 165.7,32.6L164.7,33.3C164.6,33.4 164.6,33.4 164.5,33.5C164.5,33.6 164.5,33.7 164.6,33.8C165.6,35.3 167,36.4 168.6,37.2C170.2,38 172,38.3 174,38.3C175.2,38.3 176.3,38.1 177.4,37.8C178.5,37.4 179.4,36.9 180.2,36.3C181,35.6 181.7,34.8 182.1,33.8C182.6,32.8 182.8,31.7 182.8,30.5C182.7,29.1 182.4,28 182,27.2Z" style="fill-rule:nonzero;"/>
        </g>
        <g>
            <clipPath id="_clip1">
                <path d="M38.9,17.2C40.3,16 40.1,13.7 38.3,12.8C39,11.5 38.5,9.7 36.8,9C37.2,7.9 36.9,6.6 35.8,5.9C36.4,4.9 36.4,3.7 35.6,2.8C36.4,2 36.5,0.7 36,-0.3C36.8,-2 35.9,-4.3 33.1,-4.4C27.7,-4.4 22.3,-4.7 16.8,-4.7C14.3,-4.7 13.3,-2.9 13.7,-1.3C12.5,-0.5 12.2,1.1 12.9,2.3C11.6,3.4 11.7,5.4 13,6.5C12.1,7.3 12,8.6 12.5,9.6C11.4,10.5 11.2,12.1 12,13.2C10.6,14.2 10.9,16.2 12.2,17.3C11.9,17.4 11.7,17.5 11.7,17.7C11.7,18.5 17.9,19.2 25.4,19.2C33,19.2 39.1,18.5 39.1,17.7C39.3,17.4 39.2,17.3 38.9,17.2Z"/>
            </clipPath>
            <g clip-path="url(#_clip1)">
                <path d="M33.8,17C33.2,15 31.5,13.4 31.2,10.7C31,8.8 31.6,6.7 31.2,5C30,-0.1 21.4,-0.3 20.2,5C19.8,6.9 20.5,9.1 20.2,11C19.8,13.7 17.6,16 17.2,18.2C15.5,31.3 35.4,30.9 34.2,19C34.2,18.5 33.9,17.5 33.8,17Z" style="fill:white;"/>
            </g>
            <g>
                <clipPath id="_clip2">
                    <path d="M38.9,17.2C40.3,16 40.1,13.7 38.3,12.8C39,11.5 38.5,9.7 36.8,9C37.2,7.9 36.9,6.6 35.8,5.9C36.4,4.9 36.4,3.7 35.6,2.8C36.4,2 36.5,0.7 36,-0.3C36.8,-2 35.9,-4.3 33.1,-4.4C27.7,-4.4 22.3,-4.7 16.8,-4.7C14.3,-4.7 13.3,-2.9 13.7,-1.3C12.5,-0.5 12.2,1.1 12.9,2.3C11.6,3.4 11.7,5.4 13,6.5C12.1,7.3 12,8.6 12.5,9.6C11.4,10.5 11.2,12.1 12,13.2C10.6,14.2 10.9,16.2 12.2,17.3C11.9,17.4 11.7,17.5 11.7,17.7C11.7,18.5 17.9,19.2 25.4,19.2C33,19.2 39.1,18.5 39.1,17.7C39.3,17.4 39.2,17.3 38.9,17.2Z"/>
                </clipPath>
                <g clip-path="url(#_clip2)">
                    <path d="M25.6,10C27.1,10 28.9,9.1 29.1,7C29.3,5.5 28.8,4.6 28.3,4.1C27.5,3.2 26.2,2.8 24.8,3.1C22.6,3.5 21.7,5 22,7.2C22.4,8.8 23.8,10 25.6,10ZM25.1,4.5C25.3,4.5 25.5,4.4 25.7,4.4C26.3,4.4 26.9,4.6 27.3,5C27.7,5.4 27.8,6.1 27.8,6.8C27.6,8.1 26.5,8.5 25.6,8.5C24.7,8.5 23.6,8 23.5,6.9C23.2,5.5 23.7,4.8 25.1,4.5Z" style="fill-rule:nonzero;"/>
                    <path d="M34.9,19C34.8,18.4 34.6,17.3 34.4,16.9C34.1,16.1 33.7,15.3 33.3,14.5C32.7,13.4 32,12.2 31.8,10.7C31.7,9.9 31.8,9 31.8,8.2C32,7 32,5.8 31.8,4.8C31.1,1.7 28.2,0.3 25.6,0.3C22.5,0.3 20.1,2.1 19.5,4.8C19.3,5.9 19.4,7.1 19.4,8.2C19.5,9.1 19.6,10 19.4,10.8C19.2,12.1 18.5,13.3 17.9,14.5C17.3,15.7 16.6,16.8 16.4,18C16,21 16.7,23.7 18.4,25.6C20.1,27.5 22.7,28.6 25.6,28.6C28.5,28.6 31.1,27.5 32.8,25.6C34.5,23.9 35.2,21.6 34.9,19ZM20.8,5.1C21.4,2.6 23.7,1.7 25.6,1.7C27.6,1.7 29.9,2.7 30.5,5.1C30.7,5.9 30.6,6.9 30.5,8C30.4,8.7 30.4,9.3 30.4,10C27.8,11.3 26.3,12.5 25.5,13.2C24.6,12.4 22.8,10.8 20.9,10.4C20.9,9.6 20.9,8.9 20.8,8.1C20.7,7 20.6,6 20.8,5.1ZM31.8,24.8C30.3,26.4 28.1,27.3 25.6,27.3C23.1,27.3 20.9,26.4 19.5,24.7C18.1,23.1 17.5,20.8 17.8,18.2C18,17.3 18.5,16.2 19.1,15.2C19.7,14.1 20.3,12.9 20.6,11.7C22.7,12.3 24.9,14.6 25,14.6L25.6,15.2L26.1,14.6C26.1,14.6 27.3,13.1 30.6,11.4C30.9,12.9 31.5,14.1 32.1,15.1C32.5,15.8 32.9,16.5 33.1,17.2C33.3,17.7 33.5,18.7 33.5,19.1C33.7,21.3 33.2,23.3 31.8,24.8Z" style="fill-rule:nonzero;"/>
                </g>
            </g>
        </g>
        <g transform="matrix(0.1765,-0.9843,0.9843,0.1765,13.0261,54.4726)">
            <rect x="37.6" y="18.8" width="2.9" height="1.4"/>
        </g>
    </g>
</svg>
