<?xml version="1.0" encoding="UTF-8" standalone="no"?>
<!DOCTYPE svg PUBLIC "-//W3C//DTD SVG 1.1//EN" "http://www.w3.org/Graphics/SVG/1.1/DTD/svg11.dtd">
<svg width="100%" height="100%" viewBox="0 0 256 57" version="1.1" xmlns="http://www.w3.org/2000/svg" xmlns:xlink="http://www.w3.org/1999/xlink" xml:space="preserve" xmlns:serif="http://www.serif.com/" style="fill-rule:evenodd;clip-rule:evenodd;stroke-linejoin:round;stroke-miterlimit:2;">
    <g transform="matrix(1,0,0,1,-1,0)">
        <path d="M69.2,26C69.2,19.2 51.7,15.5 35.2,15.5C18.7,15.5 1.2,19.2 1.2,26L1.2,26.2C1.2,26.4 1.2,26.6 1.3,26.8C2.1,33.5 4.3,39.1 8.2,43.9C11.9,48.6 20.3,56.2 34.9,56.2L36.5,56.2C47.7,55.8 57.1,50.8 63.1,42.3C66.2,37.9 68.1,33.1 68.9,27.8L68.8,27.8C69,27.1 69.2,26.6 69.2,26ZM35.2,17.4C54.1,17.4 67.2,21.9 67.2,25.9C67.2,27.5 65.2,29.1 61.7,30.5C62.1,28.8 62.5,27 62.4,25.8C62.4,25.6 62.5,25.4 62.5,25.3C62.5,20.2 46.2,18.4 35.2,18.4C24.3,18.4 8.1,20.2 7.9,25.2C7.7,26.2 8,28.4 8.5,30.5C5.1,29.1 3.2,27.5 3.1,26L3.1,25.9C3.1,21.9 16.3,17.4 35.2,17.4ZM35.2,30.3C27.6,30.3 21.7,29.6 17.5,28.7L17.2,27.1C21.5,28.6 30.6,28.8 35.2,28.8C41.3,28.8 55.5,28.4 55.5,25.2C55.5,21.9 41.3,21.6 35.2,21.6C29.1,21.6 14.9,22 14.9,25.2L14.9,25.3L15.4,28.2C11.7,27.2 9.8,26.1 9.8,25.3C9.8,23.6 18.5,20.4 35.2,20.4C51.9,20.4 60.6,23.6 60.6,25.3C60.5,27.1 51.8,30.3 35.2,30.3ZM17.3,25.2C19.4,24.4 25.8,23.6 35.1,23.6C44.4,23.6 50.9,24.5 52.9,25.2C50.8,26 44.4,26.8 35.1,26.8C25.8,26.9 19.4,26 17.3,25.2ZM10.7,31.3C10.4,30 10.1,29 10,28.3C14.8,31.2 26.6,32.3 35.2,32.3C43.7,32.3 55.3,31.2 60.2,28.4C60,29.2 59.8,30.2 59.5,31.4C53.8,33.2 45.4,34.5 35.2,34.5C24.9,34.5 16.4,33.2 10.7,31.3ZM61.5,41C55.9,49 47,53.7 36.4,54.1C21.6,54.7 13.3,47.1 9.6,42.6C6.8,39 4.9,34.9 3.8,30.2C9.3,34.3 22.5,36.4 35.1,36.4C47.6,36.4 60.6,34.3 66.3,30.3C65.4,34.2 63.8,37.8 61.5,41Z" style="fill-rule:nonzero;"/>
        <g>
            <path d="M133.5,19.2C132.5,17.7 131.1,16.4 129.4,15.5C127.7,14.6 125.5,14.1 123,14.1C119.7,14.1 116.7,15.1 114.1,17.1C111.9,18.8 110.2,21.1 109.1,24.1C108.8,23.1 108.5,22.1 108.1,21.2C107.5,19.8 106.7,18.6 105.7,17.5C104.7,16.4 103.5,15.6 102,15C100.5,14.4 98.8,14.1 96.8,14.1C95.3,14.1 93.8,14.3 92.3,14.8C90.9,15.3 89.5,16 88.3,17C87.1,18 86,19.1 85,20.5C84.4,21.3 84,22.1 83.5,23L83.3,17.7C83.3,16.9 83.2,16.2 83.2,15.7C83.2,15.4 82.9,15.2 82.7,15.2L81,15.2C80.9,15.2 80.7,15.3 80.6,15.4C80.5,15.5 80.4,15.7 80.5,15.8C80.6,16.3 80.6,17 80.7,17.8C80.8,18.6 80.8,19.4 80.8,20.3L80.9,22.9L80.9,52.3C80.9,52.6 81.1,52.8 81.4,52.8L83.1,52.8C83.4,52.8 83.6,52.6 83.6,52.3L83.6,33.9C83.6,31.2 84,28.7 84.6,26.6C85.3,24.5 86.2,22.7 87.4,21.2C88.6,19.7 90,18.6 91.6,17.8C93.2,17 94.9,16.6 96.7,16.6C98.7,16.6 100.4,17 101.8,17.9C103.1,18.8 104.2,19.9 104.9,21.2C105.7,22.5 106.2,24 106.5,25.6C106.8,27.3 106.9,28.8 106.9,30.3L106.9,52.2C106.9,52.5 107.1,52.7 107.4,52.7L109.1,52.7C109.4,52.7 109.6,52.5 109.6,52.2L109.6,33.9C109.6,31.2 110,28.7 110.7,26.6C111.4,24.5 112.4,22.6 113.6,21.2C114.8,19.7 116.2,18.6 117.8,17.8C119.4,17 121.1,16.6 122.9,16.6C125,16.6 126.7,17 128,17.9C129.4,18.8 130.4,19.9 131.2,21.2C132,22.5 132.6,24 132.9,25.6C133.2,27.3 133.4,28.8 133.4,30.3L133.4,52.2C133.4,52.5 133.6,52.7 133.9,52.7L135.6,52.7C135.9,52.7 136.1,52.5 136.1,52.2L136.1,30.2C136.1,28.3 135.9,26.3 135.5,24.4C135.3,22.5 134.5,20.8 133.5,19.2Z" style="fill-rule:nonzero;"/>
            <path d="M151.8,15.2L150.1,15.2C149.8,15.2 149.6,15.4 149.6,15.7L149.6,52.1C149.6,52.4 149.8,52.6 150.1,52.6L151.8,52.6C152.1,52.6 152.3,52.4 152.3,52.1L152.3,15.7C152.4,15.4 152.1,15.2 151.8,15.2Z" style="fill-rule:nonzero;"/>
            <path d="M149.3,0.9C148.8,1.4 148.6,2 148.6,2.7C148.6,3.5 148.8,4.1 149.3,4.6C149.8,5.1 150.3,5.3 150.9,5.3C151.5,5.3 152,5.1 152.5,4.6C153,4.1 153.3,3.5 153.3,2.7C153.3,2 153.1,1.4 152.6,0.9C151.6,-0.1 150.3,-0.1 149.3,0.9Z" style="fill-rule:nonzero;"/>
            <path d="M182.7,14.2C182.4,14.1 182.1,14.1 181.9,14.1L181.2,14.1C178.4,14.1 175.8,15 173.4,16.7C171.5,18 170,20.1 169,22.7L168.8,17.7C168.8,16.9 168.7,16.2 168.7,15.7C168.7,15.4 168.4,15.2 168.2,15.2L166.5,15.2C166.4,15.2 166.2,15.3 166.1,15.4C166,15.5 166,15.7 166,15.8C166,16.3 166.1,17 166.2,17.8C166.3,18.6 166.3,19.4 166.3,20.3L166.4,22.9L166.4,52.3C166.4,52.6 166.6,52.8 166.9,52.8L168.6,52.8C168.9,52.8 169.1,52.6 169.1,52.3L169.1,33.3C169.1,31.3 169.3,29.3 169.8,27.4C170.3,25.4 171,23.6 172.1,22C173.1,20.4 174.4,19.1 176,18.1C177.5,17.1 179.4,16.6 181.7,16.6L182.1,16.6C182.2,16.6 182.4,16.6 182.6,16.7C182.8,16.7 182.9,16.7 183,16.6C183.1,16.5 183.2,16.3 183.2,16.2L183.2,14.7C183.2,14.4 183,14.2 182.7,14.2Z" style="fill-rule:nonzero;"/>
            <path d="M218.8,19.6C217.1,17.9 215,16.5 212.6,15.5C210.2,14.5 207.5,14 204.7,14C201.8,14 199.2,14.5 196.8,15.5C194.4,16.5 192.3,17.8 190.6,19.6C188.9,21.3 187.5,23.4 186.6,25.8C185.7,28.2 185.2,30.9 185.2,33.8C185.2,36.7 185.7,39.4 186.6,41.8C187.5,44.2 188.9,46.4 190.6,48.1C192.3,49.9 194.4,51.2 196.8,52.2C199.2,53.2 201.8,53.7 204.7,53.7C207.6,53.7 210.2,53.2 212.6,52.2C215,51.2 217.1,49.8 218.8,48.1C220.5,46.3 221.9,44.2 222.8,41.8C223.7,39.4 224.2,36.7 224.2,33.8C224.2,30.9 223.7,28.2 222.8,25.8C221.9,23.4 220.5,21.4 218.8,19.6ZM204.6,51.2C202,51.2 199.6,50.7 197.6,49.8C195.6,48.9 193.8,47.6 192.3,46.1C190.8,44.5 189.7,42.7 189,40.6C188.2,38.5 187.8,36.2 187.8,33.8C187.8,31.4 188.2,29.2 189,27.1C189.8,25 190.9,23.2 192.3,21.6C193.7,20.1 195.5,18.8 197.5,17.9C199.5,17 201.9,16.6 204.5,16.6C207.1,16.6 209.5,17.1 211.5,17.9C213.6,18.8 215.3,20 216.8,21.6C218.2,23.1 219.4,25 220.1,27.1C220.9,29.2 221.3,31.5 221.3,33.8C221.3,36.2 220.9,38.5 220.1,40.6C219.3,42.7 218.2,44.5 216.8,46.1C215.4,47.7 213.6,48.9 211.5,49.8C209.6,50.8 207.2,51.2 204.6,51.2Z" style="fill-rule:nonzero;"/>
            <path d="M255.3,38.3C254.7,37.1 253.8,36.1 252.7,35.4C251.6,34.6 250.4,34 249,33.5C247.6,33 246.2,32.5 244.8,32.2C243.3,31.8 241.9,31.5 240.6,31.1C239.4,30.7 238.3,30.2 237.5,29.7C236.7,29.2 236,28.5 235.6,27.6C235.1,26.7 234.9,25.5 234.9,24C234.9,22.7 235.2,21.6 235.7,20.6C236.3,19.7 237,18.9 237.8,18.4C238.7,17.8 239.6,17.4 240.7,17.2C241.8,16.9 242.8,16.8 243.7,16.8C245.8,16.8 247.6,17.2 249,17.9C250.5,18.6 251.8,19.8 252.9,21.3C253.1,21.5 253.4,21.6 253.6,21.4L255.1,20.5C255.2,20.4 255.3,20.3 255.4,20.2C255.4,20.1 255.4,19.9 255.3,19.8C252.7,16.1 248.8,14.3 243.7,14.3C242.3,14.3 240.9,14.5 239.5,14.9C238.1,15.3 236.8,15.9 235.7,16.7C234.6,17.5 233.7,18.5 233,19.8C232.3,21 232,22.5 232,24.2C232,25.9 232.3,27.3 232.8,28.4C233.3,29.5 234.1,30.5 235,31.2C235.9,31.9 237,32.6 238.2,33C239.4,33.5 240.6,33.9 242,34.2C243.2,34.5 244.5,34.9 245.9,35.3C247.3,35.7 248.5,36.2 249.6,36.8C250.7,37.4 251.6,38.2 252.3,39.2C253,40.2 253.3,41.4 253.3,43C253.3,44.3 253,45.5 252.5,46.5C251.9,47.5 251.2,48.4 250.3,49.1C249.4,49.8 248.3,50.3 247.2,50.7C246.1,51.1 244.9,51.2 243.8,51.2C239,51.2 235.3,49.4 232.8,45.9C232.6,45.7 232.3,45.6 232.1,45.8L230.7,46.8C230.6,46.9 230.5,47 230.5,47.1C230.5,47.2 230.5,47.4 230.6,47.5C232.1,49.6 234,51.2 236.2,52.2C238.4,53.3 241,53.8 243.7,53.8C245.4,53.8 247,53.6 248.5,53.1C250,52.6 251.3,51.9 252.4,50.9C253.5,50 254.4,48.8 255.1,47.4C255.8,46 256.1,44.5 256.1,42.8C256.3,40.9 256,39.5 255.3,38.3Z" style="fill-rule:nonzero;"/>
        </g>
        <g>
            <clipPath id="_clip1">
                <path d="M54,24.2C56,22.5 55.7,19.2 53.1,18C54.1,16.1 53.3,13.6 50.9,12.7C51.5,11.2 51,9.4 49.6,8.3C50.5,7 50.4,5.2 49.4,3.9C50.5,2.7 50.7,1 50,-0.4C51.2,-2.7 49.8,-6.1 45.9,-6.1C38.3,-6.1 30.7,-6.6 23,-6.6C19.5,-6.6 18.1,-4 18.6,-1.8C16.9,-0.6 16.5,1.6 17.5,3.2C15.7,4.7 15.8,7.6 17.7,9.1C16.4,10.2 16.3,12 17,13.4C15.5,14.7 15.2,16.9 16.3,18.4C14.3,19.8 14.7,22.6 16.6,24.1C16.2,24.3 15.9,24.4 15.9,24.6C15.9,25.7 24.6,26.7 35.2,26.7C45.9,26.7 54.5,25.8 54.5,24.6C54.5,24.5 54.3,24.4 54,24.2Z"/>
            </clipPath>
            <g clip-path="url(#_clip1)">
                <path d="M46.7,23.9C45.8,21.1 43.5,18.8 43,15C42.7,12.4 43.5,9.4 43,6.9C41.4,-0.3 29.2,-0.6 27.6,6.9C27,9.5 28,12.6 27.6,15.3C27.1,19 23.9,22.3 23.4,25.5C21.1,44 49,43.5 47.4,26.7C47.3,26.1 46.9,24.6 46.7,23.9Z" style="fill:white;"/>
            </g>
            <g>
                <clipPath id="_clip2">
                    <path d="M54,24.2C56,22.5 55.7,19.2 53.1,18C54.1,16.1 53.3,13.6 50.9,12.7C51.5,11.2 51,9.4 49.6,8.3C50.5,7 50.4,5.2 49.4,3.9C50.5,2.7 50.7,1 50,-0.4C51.2,-2.7 49.8,-6.1 45.9,-6.1C38.3,-6.1 30.7,-6.6 23,-6.6C19.5,-6.6 18.1,-4 18.6,-1.8C16.9,-0.6 16.5,1.6 17.5,3.2C15.7,4.7 15.8,7.6 17.7,9.1C16.4,10.2 16.3,12 17,13.4C15.5,14.7 15.2,16.9 16.3,18.4C14.3,19.8 14.7,22.6 16.6,24.1C16.2,24.3 15.9,24.4 15.9,24.6C15.9,25.7 24.6,26.7 35.2,26.7C45.9,26.7 54.5,25.8 54.5,24.6C54.5,24.5 54.3,24.4 54,24.2Z"/>
                </clipPath>
                <g clip-path="url(#_clip2)">
                    <path d="M35.3,14.1C37.5,14.1 39.9,12.8 40.3,9.9C40.5,7.9 39.8,6.6 39.2,5.8C38.1,4.5 36.2,4 34.3,4.4C31.3,5 29.9,7 30.4,10.2C30.7,12.4 32.7,14.1 35.3,14.1ZM34.6,6.3C34.9,6.2 35.2,6.2 35.4,6.2C36.3,6.2 37.1,6.5 37.6,7.1C38.1,7.7 38.4,8.6 38.2,9.6C38,11.4 36.4,12 35.2,12C33.9,12 32.4,11.3 32.2,9.7C31.9,7.7 32.6,6.7 34.6,6.3Z" style="fill-rule:nonzero;"/>
                    <path d="M48.4,26.7C48.3,25.9 47.9,24.3 47.7,23.7C47.3,22.5 46.7,21.4 46.1,20.4C45.2,18.8 44.3,17.2 44,15C43.9,13.9 44,12.6 44.1,11.4C44.2,9.9 44.4,8.3 44,6.8C43,2.5 38.9,0.5 35.2,0.5C30.8,0.5 27.4,3 26.6,6.8C26.2,8.4 26.4,10 26.5,11.6C26.6,12.9 26.7,14.2 26.6,15.3C26.4,17.1 25.4,18.9 24.4,20.6C23.5,22.3 22.6,23.8 22.3,25.5C21.8,29.8 22.7,33.5 25.1,36.2C27.5,38.9 31.2,40.5 35.2,40.5C39.2,40.5 42.9,39 45.4,36.3C47.7,33.7 48.7,30.4 48.4,26.7ZM28.5,7.2C29.3,3.7 32.6,2.4 35.2,2.4C38.1,2.4 41.3,3.9 42,7.2C42.3,8.4 42.2,9.8 42,11.2C42,12.1 41.9,13.1 42,14C38.3,15.8 36.2,17.6 35.2,18.6C34,17.4 31.4,15.3 28.7,14.6C28.7,13.5 28.7,12.5 28.6,11.4C28.4,9.9 28.2,8.4 28.5,7.2ZM44,34.9C41.9,37.2 38.8,38.5 35.3,38.5C31.8,38.5 28.7,37.2 26.7,34.9C24.7,32.6 23.9,29.5 24.3,25.8C24.5,24.5 25.3,23 26.1,21.5C27,19.9 27.8,18.3 28.2,16.6C31.2,17.5 34.3,20.7 34.3,20.7L35.1,21.5L35.8,20.6C35.8,20.6 37.5,18.4 42.1,16.1C42.5,18.2 43.4,19.8 44.2,21.3C44.8,22.3 45.3,23.3 45.6,24.3C45.8,25 46.2,26.4 46.2,26.9C46.7,30 45.9,32.8 44,34.9Z" style="fill-rule:nonzero;"/>
                </g>
            </g>
        </g>
        <g transform="matrix(0.1765,-0.9843,0.9843,0.1765,17.6822,75.8839)">
            <rect x="52.1" y="26.4" width="4.1" height="2"/>
        </g>
    </g>
</svg>
