<?xml version="1.0" encoding="utf-8"?>
<!-- Generator: Adobe Illustrator 15.1.0, SVG Export Plug-In . SVG Version: 6.00 Build 0)  -->
<!DOCTYPE svg PUBLIC "-//W3C//DTD SVG 1.1//EN" "http://www.w3.org/Graphics/SVG/1.1/DTD/svg11.dtd">
<svg version="1.1" id="Layer_1" xmlns="http://www.w3.org/2000/svg" xmlns:xlink="http://www.w3.org/1999/xlink" x="0px" y="0px"
	 width="260px" height="64.494px" viewBox="-30 -17.241 260 64.494" enable-background="new -30 -17.241 260 64.494"
	 xml:space="preserve">
<g>
	<g>
		<path d="M104.293,8.333c-1.01-1.528-2.392-2.772-4.108-3.7C98.467,3.708,96.339,3.24,93.86,3.24c-3.29,0-6.271,0.999-8.86,2.968
			c-2.208,1.679-3.882,3.995-4.991,6.902c-0.249-1.004-0.569-1.959-0.956-2.853c-0.599-1.385-1.396-2.611-2.373-3.642
			c-0.986-1.041-2.219-1.872-3.668-2.474c-1.443-0.599-3.16-0.902-5.1-0.902c-1.514,0-3.007,0.246-4.442,0.732
			c-1.43,0.486-2.774,1.213-3.992,2.159c-1.21,0.942-2.312,2.1-3.278,3.44c-0.549,0.762-1.032,1.589-1.444,2.477
			c-0.001-0.011-0.001-0.021-0.001-0.032L54.598,6.8c-0.029-0.796-0.069-1.461-0.122-1.993c-0.025-0.268-0.25-0.471-0.519-0.471
			h-1.725c-0.146,0-0.287,0.062-0.384,0.171c-0.101,0.109-0.149,0.255-0.134,0.401c0.049,0.52,0.102,1.167,0.155,1.944
			c0.051,0.778,0.089,1.595,0.116,2.451l0.079,2.549c0.026,0.831,0.039,1.53,0.039,2.101v26.966c0,0.289,0.234,0.522,0.522,0.522
			h1.725c0.288,0,0.522-0.233,0.522-0.522v-18.03c0-2.702,0.349-5.139,1.034-7.248c0.681-2.096,1.627-3.898,2.81-5.359
			c1.173-1.447,2.564-2.574,4.134-3.349c1.567-0.771,3.271-1.16,5.062-1.16c2.027,0,3.711,0.433,5.004,1.286
			c1.31,0.866,2.35,1.955,3.087,3.235c0.75,1.297,1.271,2.768,1.544,4.374c0.283,1.647,0.425,3.199,0.425,4.614v21.638
			c0,0.289,0.234,0.522,0.522,0.522h1.723c0.289,0,0.522-0.233,0.522-0.522v-18.03c0-2.699,0.363-5.137,1.071-7.241
			c0.709-2.1,1.669-3.905,2.849-5.366c1.173-1.449,2.564-2.574,4.138-3.349c1.567-0.771,3.271-1.16,5.06-1.16
			c2.031,0,3.729,0.433,5.047,1.287c1.338,0.869,2.42,1.96,3.212,3.246c0.797,1.301,1.368,2.773,1.698,4.377
			c0.329,1.634,0.497,3.181,0.497,4.599v21.638c0,0.289,0.234,0.522,0.522,0.522h1.725c0.288,0,0.522-0.233,0.522-0.522V19.126
			c0-1.91-0.215-3.82-0.643-5.682C106.012,11.562,105.289,9.843,104.293,8.333z"/>
		<path d="M122.396,4.336h-1.725c-0.288,0-0.522,0.234-0.522,0.522v36.061c0,0.289,0.234,0.522,0.522,0.522h1.725
			c0.289,0,0.522-0.233,0.522-0.522V4.858C122.919,4.57,122.686,4.336,122.396,4.336z"/>
		<path d="M119.91-12.522c-0.465,0.467-0.702,1.065-0.702,1.78c0,0.767,0.237,1.393,0.702,1.858s1.012,0.702,1.624,0.702
			c0.553,0,1.083-0.232,1.573-0.689c0.5-0.467,0.753-1.096,0.753-1.872c0-0.713-0.236-1.312-0.702-1.782
			C122.223-13.454,120.844-13.452,119.91-12.522z"/>
		<path d="M152.988,3.327c-0.299-0.058-0.565-0.087-0.802-0.087h-0.708c-2.764,0-5.373,0.864-7.751,2.567
			c-1.853,1.328-3.328,3.327-4.395,5.961l-0.147-4.966c-0.029-0.797-0.068-1.461-0.12-1.993c-0.028-0.268-0.255-0.471-0.52-0.471
			h-1.724c-0.147,0-0.286,0.061-0.387,0.171c-0.098,0.108-0.146,0.255-0.133,0.401c0.049,0.52,0.104,1.167,0.153,1.944
			c0.052,0.777,0.089,1.595,0.117,2.451l0.08,2.549c0.024,0.831,0.037,1.53,0.037,2.101v26.968c0,0.288,0.233,0.522,0.522,0.522
			h1.725c0.288,0,0.522-0.234,0.522-0.522v-18.66c0-1.941,0.245-3.917,0.728-5.871c0.483-1.95,1.239-3.745,2.247-5.333
			c0.999-1.572,2.288-2.864,3.837-3.836c1.526-0.961,3.409-1.449,5.599-1.449h0.435c0.137,0,0.291,0.021,0.462,0.062
			c0.152,0.037,0.32,0.002,0.446-0.096c0.128-0.099,0.203-0.251,0.203-0.411v-1.49C153.413,3.589,153.236,3.375,152.988,3.327z"/>
		<path d="M188.692,8.723c-1.717-1.715-3.792-3.073-6.17-4.034c-2.378-0.962-5.015-1.449-7.839-1.449
			c-2.826,0-5.449,0.487-7.803,1.45c-2.353,0.961-4.413,2.319-6.13,4.034c-1.714,1.716-3.061,3.794-3.997,6.175
			c-0.933,2.375-1.406,5.038-1.406,7.911c0,2.875,0.474,5.548,1.406,7.953c0.937,2.408,2.28,4.514,3.994,6.252
			c1.716,1.741,3.779,3.114,6.133,4.076c2.352,0.963,4.978,1.45,7.803,1.45c2.824,0,5.461-0.487,7.839-1.45
			c2.38-0.962,4.456-2.335,6.173-4.076c1.714-1.738,3.059-3.843,3.997-6.252c0.933-2.402,1.406-5.078,1.406-7.953
			c0-2.873-0.474-5.536-1.409-7.911C191.754,12.517,190.407,10.44,188.692,8.723z M174.684,40.005c-2.579,0-4.908-0.46-6.919-1.365
			c-2.019-0.909-3.768-2.147-5.202-3.683c-1.437-1.536-2.546-3.363-3.303-5.427c-0.759-2.076-1.143-4.337-1.143-6.72
			c0-2.332,0.384-4.565,1.143-6.641c0.757-2.066,1.866-3.891,3.303-5.427c1.435-1.535,3.181-2.76,5.197-3.64
			c2.012-0.882,4.342-1.329,6.924-1.329c2.579,0,4.925,0.447,6.965,1.329c2.041,0.881,3.801,2.105,5.235,3.64
			c1.434,1.536,2.546,3.363,3.3,5.427c0.762,2.078,1.146,4.312,1.146,6.641c0,2.38-0.384,4.641-1.146,6.72
			c-0.754,2.064-1.863,3.891-3.3,5.427c-1.435,1.535-3.197,2.773-5.24,3.683C179.603,39.545,177.263,40.005,174.684,40.005z"/>
		<path d="M224.884,27.184c-0.64-1.16-1.51-2.143-2.585-2.915c-1.05-0.757-2.279-1.396-3.65-1.91
			c-1.345-0.5-2.746-0.938-4.174-1.312c-1.488-0.356-2.875-0.737-4.125-1.126c-1.205-0.378-2.242-0.845-3.085-1.39
			c-0.809-0.522-1.447-1.222-1.899-2.079c-0.454-0.86-0.683-2.044-0.683-3.519c0-1.308,0.277-2.431,0.828-3.336
			c0.554-0.921,1.264-1.669,2.111-2.225c0.86-0.564,1.821-0.976,2.855-1.222c1.051-0.251,2.063-0.377,3.015-0.377
			c2.049,0,3.813,0.364,5.251,1.081c1.439,0.719,2.751,1.843,3.896,3.339c0.16,0.209,0.451,0.264,0.677,0.136l1.487-0.863
			c0.129-0.073,0.218-0.196,0.252-0.34c0.028-0.143,0-0.292-0.086-0.412c-2.55-3.633-6.411-5.474-11.478-5.474
			c-1.405,0-2.814,0.205-4.186,0.608c-1.384,0.407-2.64,1.014-3.728,1.803c-1.102,0.799-1.998,1.821-2.661,3.034
			c-0.668,1.224-1.004,2.679-1.004,4.327c0,1.641,0.266,3.036,0.793,4.143c0.525,1.109,1.26,2.055,2.18,2.808
			c0.903,0.739,1.967,1.347,3.161,1.807c1.162,0.452,2.416,0.865,3.742,1.234c1.196,0.314,2.487,0.665,3.868,1.056
			c1.345,0.379,2.584,0.88,3.694,1.484c1.075,0.587,1.98,1.382,2.688,2.355c0.688,0.952,1.036,2.221,1.036,3.771
			c0,1.315-0.28,2.496-0.835,3.512c-0.563,1.026-1.306,1.895-2.209,2.578c-0.917,0.694-1.943,1.219-3.056,1.564
			c-1.118,0.349-2.238,0.525-3.333,0.525c-4.712,0-8.366-1.772-10.861-5.269c-0.163-0.231-0.484-0.286-0.715-0.131l-1.414,0.941
			c-0.117,0.079-0.2,0.201-0.225,0.34c-0.025,0.139,0.009,0.283,0.089,0.397c1.458,2.052,3.333,3.624,5.574,4.677
			c2.229,1.048,4.741,1.578,7.47,1.578c1.668,0,3.255-0.245,4.717-0.73c1.467-0.491,2.773-1.207,3.891-2.132
			c1.124-0.933,2.027-2.087,2.683-3.425c0.66-1.347,0.993-2.887,0.993-4.582C225.847,29.812,225.523,28.357,224.884,27.184z"/>
	</g>
	<g>
		<g>
			<path fill="none" stroke="#000000" stroke-width="1.4" stroke-miterlimit="10" d="M39.292,16.547
				c-0.813,5.53-2.877,10.11-5.555,13.93c-5.39,7.697-14.173,12.935-25.588,13.362c-12.608,0.472-21.78-4.869-27.293-11.765
				c-3.494-4.363-5.935-9.876-6.666-17.054"/>
		</g>
	</g>
	<ellipse fill="none" stroke="#000000" stroke-width="1.4" stroke-miterlimit="10" cx="6.888" cy="14.992" rx="32.698" ry="9.4"/>
	<path fill="none" stroke="#000000" stroke-width="1.4" stroke-miterlimit="10" d="M32.978,14.404c0,3.237-11.675,5.857-26.09,5.857
		c-14.414,0-26.094-2.62-26.094-5.857c0-3.236,11.68-5.859,26.094-5.859C21.303,8.545,32.978,11.168,32.978,14.404z"/>
	<ellipse fill="none" stroke="#000000" stroke-width="1.4" stroke-miterlimit="10" cx="6.898" cy="14.255" rx="19.151" ry="2.595"/>
	<g>
		<g>
			<defs>
				<path id="SVGID_1_" d="M25.564,13.299c1.957-1.706,1.649-4.931-0.864-6.191c0.941-1.869,0.209-4.347-2.146-5.241
					c0.552-1.501,0.092-3.286-1.333-4.342c0.866-1.336,0.767-3.1-0.23-4.366c1.104-1.171,1.287-2.887,0.601-4.265
					c1.185-2.308-0.164-5.629-4.062-5.647c-7.557-0.035-15.09-0.453-22.648-0.488c-3.435-0.017-4.891,2.547-4.388,4.745
					c-1.675,1.168-2.069,3.34-1.131,4.966c-1.755,1.534-1.704,4.335,0.174,5.797c-1.293,1.129-1.429,2.861-0.678,4.281
					c-1.51,1.268-1.771,3.427-0.729,4.979c-1.935,1.42-1.583,4.133,0.272,5.672c-0.414,0.167-0.656,0.343-0.656,0.523
					c0,1.13,8.576,2.045,19.151,2.045c10.58,0,19.151-0.915,19.151-2.045C26.049,13.579,25.846,13.438,25.564,13.299z"/>
			</defs>
			<clipPath id="SVGID_2_">
				<use xlink:href="#SVGID_1_"  overflow="visible"/>
			</clipPath>
			<g clip-path="url(#SVGID_2_)">
				<g>
					<g>
						<path fill="#FFFFFF" d="M6.508,7.622c1.763-0.164,3.068,0.803,3.996,1.66c1.011,0.931,1.782,2.047,2.452,3.183
							c1.249,2.127,2.504,5.347,3.075,8.188c0.33,1.65,0.515,3.51,0.271,5.172c-0.233,1.598-0.832,2.923-1.61,4.027
							c-1.555,2.224-4.094,3.738-7.397,3.863c-3.638,0.136-6.296-1.409-7.889-3.401c-1.241-1.548-2.105-3.595-2.042-6.421
							c0.021-0.919,0.142-1.776,0.273-2.53c0.552-3.213,1.687-6.148,2.913-8.379c0.957-1.75,2.127-3.515,3.863-4.599
							C5.026,8,5.65,7.7,6.508,7.622z"/>
						<path d="M6.849,34.7c-3.346,0-6.259-1.341-8.206-3.776c-1.558-1.945-2.318-4.317-2.257-7.053
							c0.025-1.062,0.176-2.037,0.287-2.678c0.514-2.989,1.586-6.073,3.02-8.681c0.901-1.648,2.193-3.702,4.203-4.957
							c0.621-0.39,1.41-0.803,2.523-0.907c2.188-0.203,3.776,1.017,4.75,1.916c0.942,0.868,1.752,1.917,2.63,3.404
							c1.375,2.344,2.627,5.676,3.191,8.493c0.417,2.08,0.51,3.931,0.281,5.504c-0.235,1.612-0.834,3.108-1.779,4.449
							c-1.836,2.627-4.735,4.146-8.159,4.277C7.168,34.698,7.008,34.7,6.849,34.7z M6.898,8.582c-0.097,0-0.198,0.004-0.299,0.014
							c-0.663,0.062-1.146,0.29-1.665,0.618c-1.616,1.008-2.688,2.708-3.525,4.239c-1.333,2.425-2.329,5.292-2.809,8.075
							c-0.11,0.628-0.237,1.466-0.259,2.386c-0.052,2.295,0.548,4.187,1.828,5.787c0.942,1.178,3.186,3.191,7.088,3.036
							c2.797-0.106,5.153-1.33,6.632-3.447c0.769-1.088,1.253-2.302,1.445-3.607c0.194-1.332,0.103-3.004-0.264-4.838
							c-0.517-2.582-1.705-5.75-2.958-7.885C11.336,11.645,10.635,10.732,9.84,10C9.125,9.339,8.145,8.582,6.898,8.582z"/>
					</g>
				</g>
			</g>
		</g>
		<g>
			<defs>
				<path id="SVGID_3_" d="M25.564,13.299c1.957-1.706,1.649-4.931-0.864-6.191c0.941-1.869,0.209-4.347-2.146-5.241
					c0.552-1.501,0.092-3.286-1.333-4.342c0.866-1.336,0.767-3.1-0.23-4.366c1.104-1.171,1.287-2.887,0.601-4.265
					c1.185-2.308-0.164-5.629-4.062-5.647c-7.557-0.035-15.09-0.453-22.648-0.488c-3.435-0.017-4.891,2.547-4.388,4.745
					c-1.675,1.168-2.069,3.34-1.131,4.966c-1.755,1.534-1.704,4.335,0.174,5.797c-1.293,1.129-1.429,2.861-0.678,4.281
					c-1.51,1.268-1.771,3.427-0.729,4.979c-1.935,1.42-1.583,4.133,0.272,5.672c-0.414,0.167-0.656,0.343-0.656,0.523
					c0,1.13,8.576,2.045,19.151,2.045c10.58,0,19.151-0.915,19.151-2.045C26.049,13.579,25.846,13.438,25.564,13.299z"/>
			</defs>
			<clipPath id="SVGID_4_">
				<use xlink:href="#SVGID_3_"  overflow="visible"/>
			</clipPath>
			<g clip-path="url(#SVGID_4_)">
				<path fill="#FFFFFF" d="M18.334,13.015c-0.904-2.805-3.201-5.01-3.669-8.837c-0.319-2.61,0.543-5.572,0-7.991
					c-1.611-7.158-13.622-7.42-15.294,0c-0.582,2.583,0.366,5.681,0,8.338c-0.506,3.696-3.647,6.95-4.169,10.079
					c-2.294,18.303,25.381,17.803,23.792,1.208C18.922,15.136,18.558,13.68,18.334,13.015z M10.955-1.043
					c-0.525,4.34-7.241,4.326-7.898,0.219C2.592-3.75,3.995-4.988,6.129-5.429C8.872-5.998,11.344-4.294,10.955-1.043z"/>
				<path d="M7.03,29.271C7.029,29.271,7.029,29.271,7.03,29.271c-3.988,0-7.631-1.536-9.994-4.213
					c-2.364-2.68-3.333-6.337-2.8-10.576c0.278-1.673,1.133-3.228,2.038-4.875c0.929-1.688,1.887-3.435,2.132-5.215
					c0.155-1.122,0.05-2.354-0.06-3.657C-1.786-0.85-1.924-2.492-1.577-4.028c0.852-3.782,4.2-6.226,8.529-6.226
					c3.616,0,7.698,1.926,8.667,6.228c0.326,1.457,0.2,3.034,0.078,4.56c-0.096,1.194-0.194,2.431-0.061,3.528
					c0.263,2.155,1.179,3.785,2.063,5.362c0.583,1.041,1.187,2.116,1.567,3.294c0.223,0.663,0.619,2.205,0.701,2.994
					c0.354,3.698-0.635,6.942-2.861,9.392C14.695,27.751,11.022,29.271,7.03,29.271z M6.95-8.306c-2.568,0-5.844,1.232-6.627,4.706
					c-0.28,1.244-0.16,2.666-0.034,4.172c0.114,1.353,0.233,2.751,0.049,4.087c-0.292,2.138-1.341,4.045-2.355,5.89
					c-0.823,1.496-1.599,2.91-1.818,4.215c-0.454,3.628,0.351,6.754,2.333,9.001c1.993,2.259,5.102,3.556,8.531,3.556
					c3.444,0,6.59-1.287,8.629-3.532c1.845-2.03,2.664-4.759,2.364-7.885c-0.059-0.557-0.394-1.929-0.612-2.579
					c-0.323-1.004-0.854-1.949-1.415-2.95c-0.933-1.661-1.988-3.542-2.298-6.08c-0.158-1.295-0.051-2.629,0.053-3.921
					c0.116-1.445,0.226-2.809-0.036-3.976C12.983-6.852,9.79-8.306,6.95-8.306z M6.987,3.21c-2.516,0-4.528-1.595-4.896-3.878
					C1.596-3.785,2.923-5.761,5.929-6.384c1.901-0.392,3.75,0.146,4.881,1.422c0.641,0.723,1.355,2.01,1.11,4.036
					C11.578,1.916,9.123,3.21,6.987,3.21z M7.16-4.562c-0.273,0-0.553,0.029-0.836,0.088C4.355-4.067,3.687-3.053,4.017-0.976
					c0.248,1.544,1.67,2.236,2.97,2.236c1.248,0,2.782-0.634,2.998-2.419c0.125-1.034-0.094-1.899-0.633-2.507
					C8.841-4.244,8.062-4.562,7.16-4.562z"/>
			</g>
		</g>
		<g>
			<defs>
				<path id="SVGID_5_" d="M25.564,13.299c1.957-1.706,1.649-4.931-0.864-6.191c0.941-1.869,0.209-4.347-2.146-5.241
					c0.552-1.501,0.092-3.286-1.333-4.342c0.866-1.336,0.767-3.1-0.23-4.366c1.104-1.171,1.287-2.887,0.601-4.265
					c1.185-2.308-0.164-5.629-4.062-5.647c-7.557-0.035-15.09-0.453-22.648-0.488c-3.435-0.017-4.891,2.547-4.388,4.745
					c-1.675,1.168-2.069,3.34-1.131,4.966c-1.755,1.534-1.704,4.335,0.174,5.797c-1.293,1.129-1.429,2.861-0.678,4.281
					c-1.51,1.268-1.771,3.427-0.729,4.979c-1.935,1.42-1.583,4.133,0.272,5.672c-0.414,0.167-0.656,0.343-0.656,0.523
					c0,1.13,8.576,2.045,19.151,2.045c10.58,0,19.151-0.915,19.151-2.045C26.049,13.579,25.846,13.438,25.564,13.299z"/>
			</defs>
			<clipPath id="SVGID_6_">
				<use xlink:href="#SVGID_5_"  overflow="visible"/>
			</clipPath>
			<g clip-path="url(#SVGID_6_)">
				<path fill="#FFFFFF" d="M-0.052,4.623c3.422,0.734,6.945,4.474,6.945,4.474s2.09-2.66,7.75-5.319"/>
				<path d="M6.962,10.587L6.185,9.766C6.151,9.73,2.824,6.237-0.257,5.577l0.41-1.907c2.74,0.588,5.447,2.852,6.714,4.035
					c1.067-1.032,3.359-2.928,7.362-4.809l0.829,1.766C9.668,7.193,7.679,9.675,7.66,9.7L6.962,10.587z"/>
			</g>
		</g>
	</g>
	<path fill="none" stroke="#000000" stroke-width="1.4" stroke-miterlimit="10" d="M-19.206,14.404c0,0-0.531,0.878,1.106,6.651"/>
	<line fill="none" stroke="#000000" stroke-width="1.4" stroke-miterlimit="10" x1="-12.263" y1="14.206" x2="-11.55" y2="18.185"/>
	<line fill="none" stroke="#000000" stroke-width="1.4" stroke-miterlimit="10" x1="26.088" y1="14.404" x2="25.374" y2="18.384"/>
	<path fill="none" stroke="#000000" stroke-width="1.4" stroke-miterlimit="10" d="M32.843,14.404c0,0,0.53,0.878-1.107,6.651"/>
</g>
</svg>
