<?xml version="1.0" encoding="utf-8"?>
<!-- Generator: Adobe Illustrator 15.1.0, SVG Export Plug-In . SVG Version: 6.00 Build 0)  -->
<!DOCTYPE svg PUBLIC "-//W3C//DTD SVG 1.1//EN" "http://www.w3.org/Graphics/SVG/1.1/DTD/svg11.dtd">
<svg version="1.1" id="Layer_1" xmlns="http://www.w3.org/2000/svg" xmlns:xlink="http://www.w3.org/1999/xlink" x="0px" y="0px"
	 width="200px" height="47.253px" viewBox="0 0 200 47.253" enable-background="new 0 0 200 47.253" xml:space="preserve">
<g>
	<path d="M49.714,24.448c0-4.838-12.455-7.449-24.174-7.449c-11.718,0-24.172,2.611-24.172,7.449c0,0.03,0.006,0.06,0.007,0.09
		l-0.003,0.001c0.002,0.021,0.006,0.043,0.009,0.064c0.008,0.145,0.026,0.285,0.056,0.426c0.562,4.748,2.15,8.723,4.87,12.119
		c2.647,3.311,8.577,8.729,19.011,8.729c0.379,0,0.764-0.007,1.155-0.021c7.941-0.298,14.659-3.811,18.916-9.89
		c2.177-3.106,3.559-6.571,4.107-10.299l-0.061-0.009C49.615,25.271,49.714,24.869,49.714,24.448z M25.54,18.399
		c13.421,0,22.774,3.188,22.774,6.049c0,1.109-1.419,2.265-3.923,3.268c0.31-1.235,0.55-2.479,0.529-3.304
		c0.031-0.126,0.051-0.254,0.051-0.386c0-3.6-11.619-4.906-19.429-4.906c-7.746,0-19.232,1.286-19.423,4.818
		c-0.178,0.741,0.09,2.243,0.462,3.736c-2.406-0.979-3.77-2.103-3.804-3.184c-0.001-0.018-0.005-0.033-0.006-0.051
		C2.789,21.58,12.133,18.399,25.54,18.399z M25.542,27.531c-5.382,0-9.583-0.473-12.581-1.103l-0.203-1.13
		c3.05,1.043,9.536,1.184,12.79,1.184c4.344,0,14.448-0.25,14.448-2.563c0-2.314-10.104-2.564-14.448-2.564S11.1,21.604,11.1,23.918
		c0,0.029,0.009,0.057,0.012,0.086l-0.007,0.001l0.372,2.072c-2.615-0.689-3.966-1.484-3.966-2.052
		c0-1.224,6.193-3.506,18.032-3.506c11.837,0,18.029,2.282,18.029,3.506S37.378,27.531,25.542,27.531z M12.874,23.918
		c1.474-0.548,6.036-1.164,12.674-1.164c6.638,0,11.201,0.616,12.674,1.164c-1.474,0.548-6.036,1.164-12.674,1.164
		C18.911,25.082,14.349,24.466,12.874,23.918z M8.177,28.248c-0.247-0.896-0.414-1.607-0.522-2.157
		c3.419,2.048,11.806,2.841,17.887,2.841c6.017,0,14.289-0.777,17.773-2.778c-0.11,0.548-0.276,1.249-0.52,2.129
		c-4.042,1.292-10.053,2.214-17.255,2.214C18.274,30.496,12.219,29.558,8.177,28.248z M44.242,35.162
		c-4,5.713-10.33,9.014-17.822,9.294C15.885,44.851,9.979,39.5,7.399,36.273c-2.039-2.546-3.4-5.447-4.138-8.794
		c3.917,2.886,13.31,4.417,22.279,4.417c8.868,0,18.153-1.496,22.148-4.32C47.023,30.287,45.874,32.833,44.242,35.162z"/>
	<g>
		<g>
			<path d="M95.449,19.667c-0.72-1.097-1.705-1.99-2.932-2.656c-1.233-0.665-2.761-1.001-4.541-1.001
				c-2.361,0-4.501,0.717-6.36,2.131c-1.585,1.205-2.787,2.868-3.583,4.955c-0.179-0.721-0.409-1.406-0.686-2.048
				c-0.43-0.994-1.002-1.874-1.704-2.614c-0.708-0.747-1.593-1.344-2.633-1.776c-1.036-0.43-2.268-0.648-3.661-0.648
				c-1.087,0-2.159,0.177-3.189,0.526c-1.027,0.349-1.992,0.871-2.866,1.55c-0.869,0.676-1.66,1.507-2.353,2.469
				c-0.394,0.547-0.741,1.141-1.037,1.778c-0.001-0.008-0.001-0.015-0.001-0.023l-0.112-3.744c-0.021-0.572-0.049-1.049-0.087-1.431
				c-0.018-0.192-0.18-0.338-0.373-0.338h-1.238c-0.105,0-0.206,0.044-0.276,0.123c-0.072,0.078-0.107,0.183-0.096,0.288
				c0.035,0.373,0.073,0.838,0.111,1.396c0.037,0.558,0.064,1.145,0.083,1.759l0.057,1.83c0.019,0.596,0.028,1.098,0.028,1.508
				V43.06c0,0.207,0.168,0.375,0.375,0.375h1.238c0.207,0,0.375-0.168,0.375-0.375V30.117c0-1.94,0.25-3.69,0.742-5.203
				c0.489-1.504,1.168-2.798,2.017-3.847c0.842-1.039,1.841-1.848,2.968-2.404c1.125-0.553,2.348-0.833,3.634-0.833
				c1.455,0,2.664,0.311,3.592,0.923c0.94,0.622,1.687,1.403,2.216,2.322c0.538,0.931,0.912,1.987,1.109,3.14
				c0.203,1.183,0.305,2.297,0.305,3.313V43.06c0,0.207,0.168,0.375,0.375,0.375h1.237c0.207,0,0.375-0.168,0.375-0.375V30.117
				c0-1.938,0.26-3.688,0.769-5.198c0.509-1.508,1.198-2.804,2.045-3.852c0.842-1.04,1.841-1.848,2.971-2.404
				c1.125-0.553,2.348-0.833,3.632-0.833c1.458,0,2.677,0.311,3.623,0.924c0.961,0.624,1.735,1.407,2.299,2.33
				c0.569,0.934,0.976,1.991,1.211,3.143c0.234,1.172,0.355,2.283,0.355,3.302V43.06c0,0.207,0.167,0.375,0.372,0.375h1.23
				c0.206,0,0.373-0.168,0.373-0.375V27.416c0-1.371-0.153-2.743-0.458-4.079C96.675,21.986,96.159,20.751,95.449,19.667z"/>
		</g>
		<g>
			<path d="M108.41,16.798h-1.238c-0.207,0-0.375,0.168-0.375,0.375V43.06c0,0.207,0.168,0.375,0.375,0.375h1.238
				c0.207,0,0.375-0.168,0.375-0.375V17.173C108.785,16.966,108.617,16.798,108.41,16.798z"/>
		</g>
		<g>
			<path d="M106.625,4.696c-0.334,0.335-0.504,0.765-0.504,1.278c0,0.551,0.17,1,0.504,1.334c0.334,0.334,0.727,0.504,1.166,0.504
				c0.396,0,0.777-0.167,1.129-0.495c0.359-0.335,0.541-0.787,0.541-1.344c0-0.512-0.17-0.942-0.504-1.279
				C108.285,4.028,107.295,4.028,106.625,4.696z"/>
		</g>
		<g>
			<path d="M130.371,16.073c-0.215-0.042-0.406-0.063-0.576-0.063h-0.508c-1.984,0-3.857,0.62-5.564,1.843
				c-1.33,0.953-2.389,2.388-3.154,4.279l-0.107-3.565c-0.02-0.572-0.049-1.049-0.086-1.431c-0.02-0.192-0.182-0.338-0.373-0.338
				h-1.238c-0.105,0-0.205,0.044-0.277,0.123c-0.07,0.078-0.105,0.183-0.096,0.288c0.035,0.373,0.074,0.838,0.111,1.396
				s0.064,1.145,0.084,1.759l0.057,1.83c0.018,0.596,0.027,1.098,0.027,1.508V43.06c0,0.207,0.168,0.375,0.375,0.375h1.238
				c0.207,0,0.375-0.168,0.375-0.375V29.667c0-1.394,0.176-2.812,0.523-4.216c0.346-1.4,0.889-2.688,1.613-3.828
				c0.717-1.129,1.643-2.056,2.754-2.754c1.096-0.69,2.447-1.04,4.02-1.04h0.311c0.098,0,0.209,0.015,0.332,0.045
				c0.109,0.027,0.23,0.002,0.32-0.069c0.092-0.071,0.145-0.18,0.145-0.295v-1.069C130.676,16.262,130.549,16.107,130.371,16.073z"
				/>
		</g>
		<g>
			<path d="M156.002,19.947c-1.232-1.231-2.723-2.206-4.43-2.896c-1.707-0.69-3.6-1.04-5.627-1.04c-2.029,0-3.912,0.35-5.602,1.041
				c-1.688,0.69-3.168,1.665-4.4,2.896c-1.23,1.232-2.197,2.724-2.869,4.434c-0.67,1.705-1.01,3.617-1.01,5.68
				s0.34,3.983,1.01,5.707c0.672,1.73,1.637,3.24,2.867,4.489c1.232,1.251,2.713,2.235,4.402,2.926s3.574,1.041,5.602,1.041
				s3.92-0.351,5.627-1.04c1.709-0.691,3.199-1.676,4.432-2.927c1.23-1.249,2.195-2.759,2.869-4.489
				c0.67-1.724,1.01-3.645,1.01-5.707s-0.34-3.975-1.012-5.68C158.199,22.67,157.232,21.179,156.002,19.947z M145.945,42.404
				c-1.852,0-3.523-0.33-4.967-0.98c-1.449-0.651-2.705-1.541-3.734-2.643c-1.031-1.104-1.828-2.414-2.371-3.896
				c-0.545-1.49-0.82-3.113-0.82-4.824c0-1.673,0.275-3.277,0.82-4.768c0.543-1.482,1.34-2.793,2.371-3.896
				c1.029-1.102,2.283-1.981,3.73-2.613c1.445-0.633,3.117-0.954,4.971-0.954c1.852,0,3.535,0.321,5,0.954
				c1.465,0.633,2.729,1.512,3.758,2.613c1.029,1.103,1.828,2.414,2.369,3.896c0.547,1.492,0.822,3.097,0.822,4.768
				c0,1.709-0.275,3.332-0.822,4.824c-0.541,1.482-1.338,2.793-2.369,3.896c-1.029,1.102-2.295,1.99-3.762,2.643
				C149.477,42.074,147.797,42.404,145.945,42.404z"/>
		</g>
		<g>
			<path d="M181.982,33.2c-0.459-0.833-1.084-1.538-1.855-2.093c-0.754-0.542-1.637-1.003-2.621-1.37
				c-0.965-0.358-1.971-0.675-2.996-0.942c-1.068-0.256-2.064-0.528-2.961-0.809c-0.865-0.271-1.609-0.605-2.215-0.998
				c-0.58-0.375-1.039-0.877-1.363-1.492c-0.326-0.617-0.49-1.467-0.49-2.526c0-0.939,0.199-1.745,0.594-2.395
				c0.398-0.661,0.908-1.198,1.516-1.597c0.617-0.405,1.307-0.7,2.049-0.877c0.754-0.18,1.482-0.271,2.164-0.271
				c1.471,0,2.738,0.261,3.77,0.776c1.033,0.516,1.975,1.323,2.797,2.397c0.115,0.15,0.324,0.189,0.486,0.097l1.068-0.619
				c0.092-0.053,0.156-0.141,0.18-0.244c0.021-0.103,0-0.21-0.061-0.296c-1.83-2.608-4.602-3.93-8.24-3.93
				c-1.008,0-2.02,0.147-3.004,0.437c-0.994,0.292-1.895,0.728-2.676,1.294c-0.791,0.574-1.434,1.307-1.91,2.178
				c-0.479,0.878-0.721,1.923-0.721,3.106c0,1.179,0.191,2.179,0.57,2.974c0.377,0.797,0.904,1.475,1.564,2.016
				c0.648,0.53,1.412,0.967,2.27,1.297c0.834,0.324,1.734,0.621,2.686,0.886c0.859,0.225,1.785,0.478,2.777,0.758
				c0.965,0.273,1.855,0.632,2.652,1.065c0.771,0.422,1.422,0.991,1.93,1.691c0.494,0.684,0.744,1.594,0.744,2.707
				c0,0.944-0.201,1.793-0.6,2.521c-0.404,0.736-0.938,1.359-1.586,1.851c-0.658,0.497-1.395,0.875-2.193,1.122
				c-0.803,0.25-1.607,0.377-2.393,0.377c-3.383,0-6.006-1.271-7.797-3.781c-0.117-0.166-0.348-0.205-0.514-0.095l-1.014,0.676
				c-0.084,0.056-0.143,0.144-0.162,0.244c-0.018,0.1,0.006,0.202,0.064,0.285c1.047,1.472,2.393,2.603,4.002,3.358
				c1.6,0.751,3.404,1.133,5.363,1.133c1.197,0,2.336-0.178,3.385-0.525c1.053-0.352,1.992-0.867,2.793-1.531
				c0.807-0.67,1.455-1.496,1.926-2.459c0.473-0.966,0.713-2.072,0.713-3.288C182.674,35.086,182.441,34.042,181.982,33.2z"/>
		</g>
	</g>
	<g>
		<defs>
			<path id="SVGID_1_" d="M38.948,23.232c1.404-1.225,1.184-3.54-0.62-4.445c0.675-1.342,0.15-3.12-1.541-3.762
				c0.396-1.078,0.066-2.359-0.957-3.117c0.621-0.958,0.551-2.224-0.166-3.133c0.792-0.841,0.924-2.073,0.432-3.062
				c0.85-1.657-0.118-4.041-2.916-4.054c-5.424-0.025-10.832-0.325-16.258-0.35c-2.466-0.012-3.511,1.828-3.15,3.406
				C12.57,5.554,12.287,7.112,12.96,8.28c-1.26,1.101-1.223,3.112,0.125,4.162c-0.928,0.811-1.026,2.054-0.486,3.073
				c-1.084,0.91-1.271,2.46-0.523,3.574c-1.389,1.02-1.137,2.967,0.195,4.072c-0.297,0.12-0.471,0.246-0.471,0.376
				c0,0.81,6.156,1.468,13.748,1.468c7.595,0,13.748-0.658,13.748-1.468C39.296,23.432,39.15,23.332,38.948,23.232z"/>
		</defs>
		<clipPath id="SVGID_2_">
			<use xlink:href="#SVGID_1_"  overflow="visible"/>
		</clipPath>
		<path clip-path="url(#SVGID_2_)" fill-rule="evenodd" clip-rule="evenodd" fill="#FFFFFF" d="M33.758,23.028
			c-0.649-2.014-2.298-3.597-2.634-6.344c-0.229-1.874,0.39-4,0-5.737c-1.156-5.138-9.778-5.326-10.979,0
			c-0.418,1.854,0.263,4.079,0,5.986c-0.363,2.653-2.618,4.989-2.993,7.234c-1.648,13.14,18.219,12.781,17.078,0.867
			C34.181,24.55,33.918,23.506,33.758,23.028z"/>
		<g clip-path="url(#SVGID_2_)">
			<path d="M25.613,15.989c1.533,0,3.295-0.929,3.542-2.969c0.175-1.454-0.337-2.378-0.797-2.897
				c-0.812-0.916-2.139-1.303-3.504-1.021c-2.157,0.447-3.11,1.865-2.755,4.103C22.361,14.844,23.807,15.989,25.613,15.989z
				 M25.137,10.474c0.202-0.042,0.404-0.063,0.6-0.063c0.647,0,1.206,0.228,1.573,0.642c0.387,0.436,0.544,1.059,0.455,1.8
				c-0.155,1.282-1.256,1.736-2.152,1.736c-0.933,0-1.954-0.497-2.132-1.605C23.244,11.494,23.724,10.766,25.137,10.474z"/>
			<path d="M34.927,24.962c-0.059-0.566-0.343-1.673-0.503-2.149c-0.272-0.846-0.706-1.618-1.125-2.365
				c-0.635-1.132-1.292-2.302-1.481-3.849c-0.096-0.789-0.025-1.676,0.044-2.533c0.088-1.095,0.179-2.228-0.056-3.273
				c-0.695-3.088-3.626-4.471-6.222-4.471c-3.107,0-5.511,1.755-6.123,4.47c-0.249,1.103-0.15,2.281-0.054,3.42
				c0.079,0.936,0.154,1.82,0.043,2.625c-0.175,1.278-0.864,2.532-1.531,3.744c-0.65,1.182-1.263,2.298-1.463,3.499
				c-0.382,3.042,0.313,5.667,2.01,7.59s4.312,3.025,7.174,3.025c0,0,0,0,0,0c2.867,0,5.502-1.09,7.23-2.992
				C34.471,29.947,35.182,27.618,34.927,24.962z M20.828,11.101c0.562-2.493,2.914-3.378,4.757-3.378
				c2.039,0,4.331,1.044,4.855,3.377c0.188,0.837,0.109,1.817,0.026,2.854c-0.054,0.667-0.106,1.349-0.09,2.025
				c-2.598,1.277-4.125,2.535-4.851,3.236c-0.88-0.822-2.73-2.36-4.631-2.842c0.035-0.755-0.027-1.526-0.091-2.278
				C20.713,13.014,20.627,11.993,20.828,11.101z M31.837,30.763c-1.463,1.611-3.722,2.534-6.195,2.534
				c-2.461,0-4.693-0.931-6.124-2.552c-1.423-1.613-2.001-3.857-1.675-6.463c0.157-0.937,0.714-1.952,1.305-3.026
				c0.609-1.109,1.217-2.255,1.528-3.498c2.134,0.604,4.337,2.912,4.36,2.937l0.558,0.59l0.501-0.638
				c0.013-0.017,1.237-1.538,4.47-3.201c0.306,1.478,0.933,2.652,1.513,3.687c0.403,0.718,0.784,1.397,1.016,2.118
				c0.156,0.466,0.398,1.451,0.439,1.851C33.749,27.347,33.163,29.305,31.837,30.763z"/>
		</g>
	</g>
	<g>
		<rect x="38.368" y="24.003" transform="matrix(0.9843 0.1765 -0.1765 0.9843 5.1057 -6.4955)" width="1.4" height="2.903"/>
	</g>
</g>
</svg>
