<?xml version="1.0" encoding="utf-8"?>
<!-- Generator: Adobe Illustrator 15.1.0, SVG Export Plug-In . SVG Version: 6.00 Build 0)  -->
<!DOCTYPE svg PUBLIC "-//W3C//DTD SVG 1.1//EN" "http://www.w3.org/Graphics/SVG/1.1/DTD/svg11.dtd">
<svg version="1.1" id="Layer_1" xmlns="http://www.w3.org/2000/svg" xmlns:xlink="http://www.w3.org/1999/xlink" x="0px" y="0px"
	 width="260px" height="81.5px" viewBox="-30 -23.5 260 81.5" enable-background="new -30 -23.5 260 81.5" xml:space="preserve">
<g>
	<path d="M31.261,2.244c-5.85,0-11.408,2.341-15.016,6.337c-2.143,2.34-3.12,4.581-3.703,6.043c0,0-2.049-4.484-3.511-6.043
		C5.521,4.389,0.062,2.244-6.175,2.244c-3.316,0-12.383,0.976-17.356,10.919V3.512h-2.729v51.67h2.729V25.738
		c0-7.505,1.951-12.088,4.775-15.305c2.537-3.315,7.509-5.85,12.579-5.656C-0.133,4.974,4.449,7.02,7.47,10.919
		c2.633,3.509,3.901,7.215,3.705,15.307v28.955h2.73V26.228c0-8.092,0.682-11.212,3.996-15.5c3.219-4.191,8.774-5.948,13.359-5.948
		c5.361,0,9.358,1.561,12.087,4.387c3.899,3.9,5.264,9.944,5.264,17.062v28.955h2.733V26.228c0-7.897-1.659-14.624-5.949-18.816
		C42.175,4.195,37.498,2.244,31.261,2.244z"/>
	<rect x="66.253" y="-16.961" width="2.732" height="8.873"/>
	<rect x="66.253" y="3.512" width="2.732" height="51.67"/>
	<path d="M141.552,2.244c-15.503,0-27.201,11.699-27.201,27.005v0.098c0,15.5,11.698,27.103,27.201,27.103
		c15.488,0,27.188-11.603,27.188-27.103C168.739,13.943,157.04,2.244,141.552,2.244z M141.552,53.916
		c-13.942,0-24.47-10.529-24.47-24.471v-0.098c0-14.04,10.527-24.569,24.47-24.569c13.928,0,24.455,10.529,24.455,24.569
		C166.007,43.387,155.479,53.916,141.552,53.916z"/>
	<path d="M206.506,40.949c-0.582-11.018-8.284-12.87-15.11-14.722c-7.311-2.047-11.016-4.387-11.308-10.627
		c-0.293-6.142,4.385-10.822,11.308-10.822c5.559-0.097,10.919,3.121,10.919,10.919h2.731c0-8.873-6.144-13.355-13.65-13.455
		c-7.701,0-14.039,4.778-14.039,13.356c0.295,8.873,6.143,11.114,13.942,13.355c8.384,1.853,12.285,5.264,12.479,12.381
		c0.141,4.884-2.396,9.29-6.736,11.347c0.004,0.003,0.004,0.003,0.004,0.005c-6.893,2.48-10.524-0.378-15.481-4.32
		c-1.598-1.271-3.363-2.647-5.36-3.944l7.452-1.206l-0.398-2.466l-12.074,1.955l1.794,11.083l2.465-0.399l-1.177-7.26
		c2.124,1.318,3.957,2.773,5.743,4.193c3.852,3.062,7.32,5.817,12.22,5.817c1.729,0,3.647-0.363,5.811-1.157
		c0.003,0.003,0.003,0.005,0.003,0.011c0.023-0.011,0.048-0.025,0.072-0.037c0.131-0.049,0.252-0.082,0.385-0.134l-0.019-0.053
		C203.566,52.205,206.851,46.954,206.506,40.949z"/>
	<path d="M141.636,7.454c-12.063,0-21.882,9.816-21.882,21.883c0,12.067,9.818,21.882,21.882,21.882
		c12.056,0,21.873-9.814,21.873-21.882C163.509,17.27,153.691,7.454,141.636,7.454z M141.636,48.722
		c-10.688,0-19.383-8.697-19.383-19.385c0-10.689,8.695-19.386,19.383-19.386c10.679,0,19.374,8.697,19.374,19.386
		C161.01,40.024,152.314,48.722,141.636,48.722z"/>
	<path d="M141.636,12.703c-9.173,0-16.636,7.461-16.636,16.634s7.463,16.634,16.636,16.634c9.161,0,16.624-7.461,16.624-16.634
		S150.797,12.703,141.636,12.703z M141.636,43.475c-7.796,0-14.137-6.344-14.137-14.138c0-7.795,6.341-14.137,14.137-14.137
		c7.786,0,14.126,6.342,14.126,14.137C155.762,37.131,149.422,43.475,141.636,43.475z"/>
	<path d="M141.636,17.626c-6.457,0-11.712,5.253-11.712,11.71c0,6.458,5.255,11.71,11.712,11.71s11.697-5.252,11.697-11.71
		C153.333,22.879,148.093,17.626,141.636,17.626z M141.636,38.549c-5.081,0-9.213-4.134-9.213-9.212c0-5.08,4.132-9.213,9.213-9.213
		s9.199,4.134,9.199,9.213C150.835,34.415,146.717,38.549,141.636,38.549z"/>
	<path d="M141.636,22.776c-3.614,0-6.558,2.943-6.558,6.561c0,3.618,2.943,6.56,6.558,6.56c3.618,0,6.559-2.941,6.559-6.56
		C148.194,25.719,145.254,22.776,141.636,22.776z M141.636,33.397c-2.238,0-4.059-1.822-4.059-4.062c0-2.241,1.82-4.063,4.059-4.063
		c2.241,0,4.062,1.822,4.062,4.063C145.698,31.575,143.877,33.397,141.636,33.397z"/>
	<path d="M113.383-1.121l-2.399,0.69l1.962,6.832c-5.232-3.154-10.136-4.247-14.62-3.189c-6.344,1.488-9.388,6.673-9.512,6.893
		l0.026,0.014c-0.686,0.958-1.333,2.015-1.915,3.238V3.509h-2.73v51.67h2.73V26.91c0-7.78,1.984-13.693,5.618-17.429
		c-0.017-0.021-0.025-0.043-0.041-0.063c1.303-1.373,3.444-3.092,6.428-3.783c3.796-0.88,8.04,0.09,12.641,2.848l-7.494,2.163
		l0.684,2.4l11.724-3.376L113.383-1.121z"/>
</g>
</svg>
