<?xml version="1.0" encoding="utf-8"?>
<!-- Generator: Adobe Illustrator 15.1.0, SVG Export Plug-In . SVG Version: 6.00 Build 0)  -->
<!DOCTYPE svg PUBLIC "-//W3C//DTD SVG 1.1//EN" "http://www.w3.org/Graphics/SVG/1.1/DTD/svg11.dtd">
<svg version="1.1" id="Layer_1" xmlns="http://www.w3.org/2000/svg" xmlns:xlink="http://www.w3.org/1999/xlink" x="0px" y="0px"
	 width="200px" height="58px" viewBox="0 0 200 58" enable-background="new 0 0 200 58" xml:space="preserve">
<g>
	<path d="M44.451,17.381c-4.216,0-8.222,1.687-10.822,4.567c-1.545,1.687-2.249,3.302-2.669,4.356c0,0-1.477-3.232-2.531-4.356
		c-2.53-3.021-6.464-4.567-10.96-4.567c-2.39,0-8.925,0.703-12.509,7.87v-6.956H2.993v37.241H4.96V34.315
		c0-5.41,1.406-8.713,3.442-11.032c1.828-2.389,5.412-4.216,9.066-4.076c4.356,0.141,7.659,1.616,9.836,4.427
		c1.898,2.529,2.812,5.2,2.67,11.032v20.869h1.968V34.667c0-5.832,0.491-8.081,2.88-11.172c2.32-3.021,6.324-4.287,9.628-4.287
		c3.864,0,6.745,1.125,8.712,3.162c2.81,2.811,3.794,7.167,3.794,12.297v20.869h1.97V34.667c0-5.692-1.196-10.54-4.288-13.562
		C52.318,18.787,48.947,17.381,44.451,17.381z"/>
	<rect x="69.672" y="3.539" width="1.969" height="6.395"/>
	<rect x="69.672" y="18.295" width="1.969" height="37.241"/>
	<path d="M123.943,17.381c-11.174,0-19.605,8.432-19.605,19.464v0.07c0,11.172,8.432,19.534,19.605,19.534
		c11.172,0,19.604-8.362,19.604-19.534C143.547,25.813,135.115,17.381,123.943,17.381z M123.943,54.623
		c-10.049,0-17.637-7.589-17.637-17.637v-0.07c0-10.119,7.588-17.708,17.637-17.708c10.047,0,17.635,7.589,17.635,17.708
		C141.578,47.034,133.99,54.623,123.943,54.623z"/>
	<path d="M170.768,45.277c-0.42-7.94-5.971-9.275-10.891-10.61c-5.27-1.476-7.939-3.162-8.15-7.659c-0.211-4.427,3.16-7.8,8.15-7.8
		c4.006-0.07,7.869,2.249,7.869,7.87h1.969c0-6.395-4.428-9.626-9.838-9.697c-5.551,0-10.119,3.443-10.119,9.626
		c0.213,6.395,4.428,8.01,10.049,9.626c6.043,1.335,8.854,3.794,8.994,8.924c0.102,3.519-1.727,6.695-4.855,8.178
		c0.002,0.001,0.002,0.002,0.002,0.003c-4.967,1.787-7.584-0.272-11.158-3.114c-1.152-0.916-2.424-1.908-3.863-2.843l5.371-0.869
		l-0.287-1.777l-8.703,1.409l1.293,7.988l1.777-0.288l-0.848-5.232c1.531,0.95,2.852,1.999,4.139,3.022
		c2.777,2.206,5.277,4.193,8.807,4.193c1.246,0,2.629-0.262,4.188-0.835c0.002,0.002,0.002,0.005,0.002,0.008
		c0.018-0.008,0.035-0.018,0.053-0.026c0.094-0.035,0.182-0.059,0.277-0.097l-0.014-0.038
		C168.648,53.391,171.016,49.606,170.768,45.277z"/>
	<path d="M124.004,21.136c-8.695,0-15.771,7.075-15.771,15.772s7.076,15.772,15.771,15.772c8.697,0,15.773-7.075,15.773-15.772
		S132.701,21.136,124.004,21.136z M124.004,50.88c-7.703,0-13.971-6.268-13.971-13.972s6.268-13.972,13.971-13.972
		c7.705,0,13.973,6.268,13.973,13.972S131.709,50.88,124.004,50.88z"/>
	<path d="M124.004,24.919c-6.611,0-11.99,5.378-11.99,11.989s5.379,11.989,11.99,11.989s11.99-5.378,11.99-11.989
		S130.615,24.919,124.004,24.919z M124.004,47.097c-5.619,0-10.189-4.571-10.189-10.189s4.57-10.189,10.189-10.189
		s10.189,4.571,10.189,10.189S129.623,47.097,124.004,47.097z"/>
	<path d="M124.004,28.468c-4.654,0-8.441,3.786-8.441,8.44s3.787,8.44,8.441,8.44s8.439-3.786,8.439-8.44
		S128.658,28.468,124.004,28.468z M124.004,43.548c-3.662,0-6.641-2.979-6.641-6.64s2.979-6.64,6.641-6.64s6.639,2.979,6.639,6.64
		S127.666,43.548,124.004,43.548z"/>
	<path d="M124.004,32.18c-2.605,0-4.727,2.121-4.727,4.728s2.121,4.728,4.727,4.728c2.607,0,4.729-2.121,4.729-4.728
		S126.611,32.18,124.004,32.18z M124.004,39.835c-1.613,0-2.926-1.313-2.926-2.928s1.312-2.928,2.926-2.928
		c1.615,0,2.928,1.313,2.928,2.928S125.619,39.835,124.004,39.835z"/>
	<path d="M103.641,14.956l-1.73,0.497l1.414,4.924c-3.771-2.273-7.305-3.061-10.537-2.299c-4.572,1.073-6.766,4.81-6.856,4.968
		l0.019,0.01c-0.494,0.691-0.961,1.453-1.38,2.334v-7.097h-1.968v37.241h1.968V35.159c0-5.607,1.43-9.869,4.049-12.562
		c-0.012-0.015-0.018-0.031-0.029-0.045c0.939-0.99,2.482-2.229,4.633-2.727c2.736-0.634,5.795,0.065,9.111,2.053l-5.402,1.559
		l0.493,1.73l8.45-2.433L103.641,14.956z"/>
</g>
</svg>
